<?xml version="1.0" encoding="utf-8"?>
<!-- Generator: Adobe Illustrator 19.0.0, SVG Export Plug-In . SVG Version: 6.00 Build 0)  -->
<svg version="1.1" id="Layer_1" xmlns="http://www.w3.org/2000/svg" xmlns:xlink="http://www.w3.org/1999/xlink" x="0px" y="0px"
	 viewBox="-478 248.9 24 24" style="enable-background:new -478 248.9 24 24;" xml:space="preserve">
<g>
	<g>
		<path d="M-462.8,259.9c-0.6,0-1.2,0.5-1.2,1.1c0,0,0,0.1,0,0.1h2.4c0.1-0.6-0.4-1.2-1-1.3C-462.7,259.9-462.8,259.9-462.8,259.9z"
			/>
		<path d="M-468.9,261.2h-1.4v2.2h1.2c1.2,0,1.7-0.4,1.7-1.2S-468,261.2-468.9,261.2z"/>
		<path d="M-467.9,259.2c0-0.6-0.4-1-1.1-1h-1.3v2h1C-468.3,260.2-467.9,259.8-467.9,259.2z"/>
		<path d="M-466,249.4c-6.4,0-11.5,5.1-11.5,11.5c0,6.4,5.1,11.5,11.5,11.5s11.5-5.1,11.5-11.5C-454.5,254.5-459.6,249.4-466,249.4z
			 M-468.6,264.5h-3.1v-7.5h3.1c1.3,0,2.2,0.7,2.2,1.8c0,0.8-0.5,1.5-1.3,1.6c1,0,1.7,0.8,1.7,1.8c0,0,0,0.1,0,0.1
			C-466,263.8-467.2,264.5-468.6,264.5z M-464.6,257.6h3.5v0.6h-3.5V257.6z M-460.2,262.1h-3.8v0.2c-0.1,0.7,0.4,1.3,1.1,1.4
			c0.1,0,0.1,0,0.2,0c0.5,0.1,1-0.2,1.2-0.7h1.4c-0.3,1.1-1.3,1.9-2.5,1.8c-1.4,0.1-2.6-0.9-2.7-2.2c0-0.1,0-0.3,0-0.4v-0.5
			c-0.1-1.3,0.9-2.5,2.3-2.6c0.1,0,0.2,0,0.4,0c1.3-0.1,2.5,0.9,2.6,2.3c0,0.1,0,0.2,0,0.3V262.1z"/>
	</g>
</g>
</svg>
