<?xml version="1.0" encoding="utf-8"?>
<!-- Generator: Adobe Illustrator 19.0.0, SVG Export Plug-In . SVG Version: 6.00 Build 0)  -->
<svg version="1.1" id="Layer_1" xmlns="http://www.w3.org/2000/svg" xmlns:xlink="http://www.w3.org/1999/xlink" x="0px" y="0px"
	 viewBox="-478 248.9 24 24" style="enable-background:new -478 248.9 24 24;" xml:space="preserve">
<style type="text/css">
	.st0{fill:#FFFFFF;}
</style>
<circle cx="-466" cy="260.9" r="11.5"/>
<title>dev.to icon</title>
<g>
	<path class="st0" d="M-469.1,260.6c0-1.8,0-1.9-0.3-2.3c-0.4-0.7-0.8-0.8-2.3-0.8h-1.3v6.8h1.2c1.3,0,1.9-0.2,2.3-0.7
		C-469.1,263.1-469,262.6-469.1,260.6z M-470.5,262.8c-0.2,0.2-0.4,0.2-0.7,0.2l-0.5,0l0-2.2l0-2.2h0.5c0.3,0,0.6,0.1,0.8,0.2
		c0.2,0.2,0.3,0.2,0.3,2C-470.3,262.5-470.3,262.6-470.5,262.8z"/>
	<path class="st0" d="M-468,264l-0.3-0.3v-2.9c0-2.7,0-2.9,0.2-3.1c0.2-0.3,0.2-0.3,1.7-0.3h1.5v1.2h-2.2v1.6h1.4v1.2l-0.7,0l-0.7,0
		v1.6l1.1,0l1.1,0v1.2h-1.4C-467.7,264.3-467.8,264.3-468,264z"/>
	<path class="st0" d="M-463.7,259l-0.4-1.5h0.7c0.4,0,0.7,0,0.7,0c0,0.1,1,4.1,1.1,4.4c0,0.1,0.3-0.6,0.7-2.1l0.6-2.3l0.7,0
		c0.4,0,0.7,0,0.7,0c0,0.1-1.5,5.8-1.6,6h0c-0.2,0.4-0.6,0.7-0.9,0.7c-0.2,0-0.4-0.1-0.6-0.4c-0.3-0.3-0.4-0.6-0.7-1.9L-463.7,259z"
		/>
</g>
</svg>
