<?xml version="1.0" encoding="utf-8"?>
<!-- Generator: Adobe Illustrator 19.0.0, SVG Export Plug-In . SVG Version: 6.00 Build 0)  -->
<svg version="1.1" id="Layer_1" xmlns="http://www.w3.org/2000/svg" xmlns:xlink="http://www.w3.org/1999/xlink" x="0px" y="0px"
	 viewBox="-480 250.9 20 20" style="enable-background:new -480 250.9 20 20;" xml:space="preserve">
<path d="M-470,251.3c-5.3,0-9.6,4.3-9.6,9.6s4.3,9.6,9.6,9.6s9.6-4.3,9.6-9.6S-464.7,251.3-470,251.3z M-469.7,260.8
	c0,0,0.1,0,0.1,0c-0.1-0.2-0.2-0.5-0.3-0.7c-2.3,0.7-4.5,0.7-4.8,0.7c0,0,0,0.1,0,0.1c0,1.1,0.4,2.2,1.2,3.1
	C-473.3,263.6-472,261.6-469.7,260.8z M-472.9,264.6c1.3,1,3.1,1.3,4.7,0.6c-0.2-1.2-0.6-2.4-1-3.5
	C-471.8,262.6-472.7,264.3-472.9,264.6z M-466.9,257.3c-1.1-1-2.7-1.4-4.1-1c0.6,0.9,1.2,1.8,1.7,2.7
	C-467.8,258.3-467.1,257.5-466.9,257.3z M-470.4,259.2c-0.5-0.9-1.1-1.8-1.7-2.7c-1.3,0.6-2.2,1.8-2.6,3.2h0
	C-474.1,259.8-472.4,259.8-470.4,259.2z M-468.2,261.5c0.6,1.6,0.8,2.9,0.9,3.3c1-0.7,1.7-1.8,1.9-3.1c-0.6-0.2-1.3-0.3-1.9-0.3
	C-467.6,261.4-467.9,261.4-468.2,261.5z M-470,266.5c-3.1,0-5.7-2.5-5.7-5.7c0-3.1,2.5-5.7,5.7-5.7c3.1,0,5.7,2.5,5.7,5.7
	C-464.3,264-466.9,266.5-470,266.5z M-468.9,259.7c0.1,0.2,0.2,0.4,0.3,0.6l0.1,0.2c0.3,0,0.7-0.1,1.1-0.1c0.7,0,1.5,0.1,2.2,0.2
	c0-1-0.4-2-1-2.8C-466.5,258.2-467.3,259.1-468.9,259.7z"/>
</svg>
