<?xml version="1.0" encoding="utf-8"?>
<!-- Uploaded to SVGRepo https://www.svgrepo.com -->
<svg version="1.1" id="Layer_1" xmlns="http://www.w3.org/2000/svg" xmlns:xlink="http://www.w3.org/1999/xlink" x="0px" y="0px"
	 width="260px" height="260px" viewBox="0 0 260 260" enable-background="new 0 0 260 260" xml:space="preserve">
<path d="M130,2C59.31,2,2,59.31,2,130s57.31,128,128,128s128-57.31,128-128S200.69,2,130,2z M194.08,97.09l0.11,4.28
	c0,50.62-33.26,94.13-94.12,94.13c-18.69,0-36.07-5.48-50.71-14.89c2.59,0.3,5.22,0.46,7.89,0.46c15.5,0,29.77-5.27,41.08-14.14
	c-14.47-0.26-26.43-9.08-30.64-22.23c5.11,0.82,11.26,0.12,14.69-1.29c-7.56-1.53-14.19-5.63-18.94-11.36
	c-4.74-5.72-7.59-13.07-7.59-21.08c4.46,2.48,9.56,3.55,14.98,3.74c-8.87-5.93-14.71-16.06-14.71-27.54
	c0-6.06,1.62-11.75,4.47-16.62c16.32,20.01,40.7,33.18,68.19,34.56c-0.57-2.42-0.86-4.95-0.86-7.54c0-18.26,14.82-33.07,33.09-33.07
	c9.52,0,17.54,3.99,23.11,9.42c6.25-0.21,14.88-3.21,22.05-7c-2.47,7.71-7.71,14.2-14.54,18.29c6.69-0.26,12.43-1.65,18.36-4.28
	C205.57,87.56,200.58,92.46,194.08,97.09z"/>
</svg>
