<?xml version="1.0" encoding="utf-8"?>
<!-- Generator: Adobe Illustrator 23.0.0, SVG Export Plug-In . SVG Version: 6.00 Build 0)  -->
<svg version="1.1" id="Capa_1" xmlns="http://www.w3.org/2000/svg" xmlns:xlink="http://www.w3.org/1999/xlink" x="0px" y="0px"
	 viewBox="0 0 97.8 97.8" style="enable-background:new 0 0 97.8 97.8;" xml:space="preserve">
<path d="M48.8,1.9c-26,0-47,21.1-47,47c0,26,21.1,47,47,47c26,0,47-21.1,47-47C95.8,22.9,74.8,1.9,48.8,1.9z M68.6,53.1
	c1.8,1.8,3.8,3.5,5.4,5.4c0.8,0.9,1.5,1.8,2,2.8c0.7,1.4,0.1,3-1.2,3.1h-8c-2.1,0.2-3.7-0.7-5.1-2.1c-1.1-1.1-2.1-2.3-3.2-3.5
	c-0.4-0.5-0.9-0.9-1.4-1.3c-1.1-0.7-2-0.5-2.7,0.6c-0.6,1.2-0.8,2.4-0.8,3.7c-0.1,1.9-0.7,2.4-2.5,2.5c-4.1,0.2-7.9-0.4-11.5-2.5
	c-3.1-1.8-5.6-4.3-7.7-7.2c-4.1-5.6-7.3-11.8-10.2-18.1c-0.6-1.4-0.2-2.2,1.4-2.2h7.8c1.1,0,1.8,0.6,2.2,1.6
	c1.4,3.5,3.1,6.8,5.3,9.9c0.6,0.8,1.2,1.6,2,2.2c0.9,0.6,1.6,0.4,2.1-0.6c0.3-0.7,0.4-1.4,0.5-2.1c0.2-2.4,0.2-4.8-0.1-7.2
	c-0.2-1.5-1.1-2.5-2.6-2.8c-0.8-0.1-0.7-0.4-0.3-0.9c0.6-0.8,1.2-1.2,2.5-1.2h9.1c1.4,0.3,1.7,0.9,1.9,2.4v10.1
	c0,0.6,0.3,2.2,1.3,2.6c0.8,0.3,1.3-0.4,1.8-0.9c2.2-2.3,3.7-5,5.1-7.8c0.6-1.2,1.1-2.5,1.6-3.8c0.4-0.9,1-1.4,2-1.4h9.5
	c1.5,0.2,1.9,0.9,1.4,2.3c-0.7,2.2-2.1,4.1-3.5,6l-4.5,6C66.9,50.5,67,51.5,68.6,53.1z"/>
</svg>
