<?xml version="1.0" encoding="utf-8"?>
<!-- Generator: Adobe Illustrator 19.0.0, SVG Export Plug-In . SVG Version: 6.00 Build 0)  -->
<svg version="1.1" id="Capa_1" xmlns="http://www.w3.org/2000/svg" xmlns:xlink="http://www.w3.org/1999/xlink" x="0px" y="0px"
	 viewBox="-441 212.1 97.8 97.8" style="enable-background:new -441 212.1 97.8 97.8;" xml:space="preserve">
<style type="text/css">
	.st0{fill:#FFFFFF;}
</style>
<g>
	<g>
		<path d="M-343.3,261c0,27-21.9,48.9-48.9,48.9c-27,0-48.9-21.9-48.9-48.9c0-27,21.9-48.9,48.9-48.9
			C-365.1,212.1-343.3,234-343.3,261z"/>
	</g>
</g>
<path class="st0" d="M-366.4,248.4c-0.6-2.8-3-4.9-5.8-5.2c-6.6-0.7-13.3-0.7-20-0.7c-6.7,0-13.4,0-20,0.7c-2.8,0.3-5.1,2.4-5.8,5.2
	c-0.9,4-0.9,8.4-0.9,12.6c0,4.2,0,8.6,0.9,12.6c0.6,2.8,3,4.9,5.8,5.2c6.6,0.7,13.3,0.7,20,0.7c6.7,0,13.4,0,20-0.7
	c2.8-0.3,5.1-2.4,5.8-5.2c0.9-4,0.9-8.4,0.9-12.6C-365.5,256.8-365.5,252.4-366.4,248.4z M-399,269.3v-17.6c5.6,3,11.3,5.9,17,8.8
	C-387.7,263.4-393.3,266.3-399,269.3z"/>
<path d="M-428.2,234.8v52.5h74.2v-52.5H-428.2z M-358.8,277.3c-0.8,3.7-3.8,6.4-7.5,6.8c-8.6,1-17.2,1-25.8,1c-8.6,0-17.3,0-25.8-1
	c-3.6-0.4-6.6-3.1-7.5-6.8c-1.2-5.2-1.2-10.9-1.2-16.3c0-5.4,0-11.1,1.2-16.3c0.8-3.7,3.8-6.4,7.5-6.8c8.6-1,17.2-1,25.9-1
	c8.6,0,17.3,0,25.8,1c3.6,0.4,6.6,3.1,7.5,6.8c1.2,5.2,1.2,10.9,1.2,16.3C-357.6,266.4-357.6,272.1-358.8,277.3z"/>
</svg>
