<?xml version="1.0" encoding="utf-8"?>
<!-- Generator: Adobe Illustrator 19.0.0, SVG Export Plug-In . SVG Version: 6.00 Build 0)  -->
<svg version="1.1" id="Layer_1" xmlns="http://www.w3.org/2000/svg" xmlns:xlink="http://www.w3.org/1999/xlink" x="0px" y="0px"
	 viewBox="0 0 595.3 595.3" style="enable-background:new 0 0 595.3 595.3;" xml:space="preserve">
<style type="text/css">
	.st0{fill:#232323;}
</style>
<g id="XMLID_68_">
	<path id="XMLID_99_" class="st0" d="M111.8,340.1c-7,6.3-15.8,9.2-26.1,8.5c-9.3-1-17.1-6.1-23.1-15.3c-6.1-9.2-8.9-22.8-8.3-40.6
		c1-14.9,5.5-28.8,13.6-41.6c8-12.7,18.8-21.3,32.4-25.7c13.6-4.2,29.2-1,46.9,9.8c8.3-8.9,19-11.2,32.1-7c2.6,2,4.1,7.2,4.4,15.3
		c0.1,8-0.3,20.6-1.3,37.8s-0.4,36.1,1.8,56.5c0.1,5.1,0.6,9.9,1.3,14.5c0.7,4.1,1.2,7.2,1.3,9.1c0.1,2-0.1,3.7-0.7,4.7
		c-0.7,1-1.9,2.2-3.5,3.2c-2.2,1.3-5.7,2.2-10.5,2.5c-4.8,0.3-9.1,0-12.6-1c-3.1-1-6.4-2.9-9.8-5.4c-3.4-2.5-6-5.1-7.7-7.7
		c-5.7-8.9-9.5-21.9-11.5-38.8C124.9,326.7,118.8,333.8,111.8,340.1z M135.7,254.1c-0.4-4.1-1.8-7.6-3.8-10.7
		c-2.2-2.9-5.3-4.1-9.3-3.5c-7.2,3.5-12.7,10.7-16.6,21.3c-4.1,10.7-6.4,21.6-7.2,33c-0.6,11.4,0.6,18.3,3.8,20.6
		c3.4,2.3,8.3-1.8,14.9-12.3c6.7-10.5,12.6-23.2,17.4-38.3C135.9,261.5,136,258.2,135.7,254.1z"/>
	<path id="XMLID_97_" class="st0" d="M236.5,353.7c0.2,4.9,0.5,10.1-5.3,11.7c-4.3,1.2-9.8,0-13.7-2.1c-7.2-4-10.6-12.4-12.5-20
		c-4.1-16.4-2.3-33.9-1.3-50.5c0.5-8,1-16,1.1-24.1c0.1-7.4-1.2-14.9-0.2-22.3c0.4-3.3,2.2-5.5,4.5-7.9c1.9-2,10.6-10.7,13.1-5.5
		c0.5,1.1,0.4,2.4,0.3,3.7c-0.5,4.2,0.1,8.7,0.6,12.9c0.1,0.6,0.1,1.2,0.4,1.7s1,0.8,1.5,0.6c0.3-0.1,0.5-0.4,0.7-0.7
		c1.3-2.2,0.8-5.2,2.2-7.3c0.3-0.4,0.8-0.7,1.3-0.5c0.2,0.1,0.4,0.3,0.6,0.5c6.7,8.3,5.7,23.7,5.8,33.7c0.2,13.4-0.1,26.9-0.2,40.3
		C235.3,329.9,236.1,341.8,236.5,353.7z"/>
	<path id="XMLID_95_" class="st0" d="M280.3,353.7c0.2,4.9,0.5,10.1-5.3,11.7c-4.3,1.2-9.8,0-13.7-2.1c-7.2-4-10.6-12.4-12.5-20
		c-4.1-16.4-2.3-33.9-1.3-50.5c0.5-8,1-16,1.1-24.1c0.1-7.4-1.2-14.9-0.2-22.3c0.4-3.3,2.2-5.5,4.5-7.9c1.9-2,10.6-10.7,13.1-5.5
		c0.5,1.1,0.4,2.4,0.3,3.7c-0.5,4.2,0.1,8.7,0.6,12.9c0.1,0.6,0.1,1.2,0.4,1.7c0.3,0.5,1,0.8,1.5,0.6c0.3-0.1,0.5-0.4,0.7-0.7
		c1.3-2.2,0.8-5.2,2.2-7.3c0.3-0.4,0.8-0.7,1.3-0.5c0.2,0.1,0.4,0.3,0.6,0.5c6.7,8.3,5.7,23.7,5.8,33.7c0.2,13.4-0.1,26.9-0.2,40.3
		C279.1,329.9,279.8,341.8,280.3,353.7z"/>
	<path id="XMLID_92_" class="st0" d="M350.1,340.1c-7,6.3-15.8,9.2-26.1,8.5c-9.3-1-17.1-6.1-23.1-15.3c-6.1-9.2-8.9-22.8-8.3-40.6
		c1-14.9,5.5-28.8,13.6-41.6c8-12.7,18.8-21.3,32.4-25.7c13.6-4.2,29.2-1,46.9,9.8c8.3-8.9,19-11.2,32.1-7c2.6,2,4.1,7.2,4.4,15.3
		c0.1,8-0.3,20.6-1.3,37.8s-0.4,36.1,1.8,56.5c0.1,5.1,0.6,9.9,1.3,14.5c0.7,4.1,1.2,7.2,1.3,9.1c0.1,2-0.1,3.7-0.7,4.7
		c-0.7,1-1.9,2.2-3.5,3.2c-2.2,1.3-5.7,2.2-10.5,2.5s-9.1,0-12.6-1c-3.1-1-6.4-2.9-9.8-5.4c-3.4-2.5-6-5.1-7.7-7.7
		c-5.7-8.9-9.5-21.9-11.5-38.8C363.2,326.7,357.1,333.8,350.1,340.1z M374,254.1c-0.4-4.1-1.8-7.6-3.8-10.7
		c-2.2-2.9-5.3-4.1-9.3-3.5c-7.2,3.5-12.7,10.7-16.6,21.3c-4.1,10.7-6.4,21.6-7.2,33c-0.6,11.4,0.6,18.3,3.8,20.6
		c3.4,2.3,8.3-1.8,14.9-12.3c6.7-10.5,12.6-23.2,17.4-38.3C374.2,261.5,374.3,258.2,374,254.1z"/>
	<path id="XMLID_90_" class="st0" d="M444.2,297c7.3-5.7,14.7-8.1,22.5-7.1c7.7,1,13.2,5.2,16.4,12.5c0.5,2,0.7,3.6,0.3,5
		c-0.3,1.3-0.8,2.3-1.6,3c-0.8,0.7-1.7,1.3-2.6,1.6c-1,0.3-1.7,0.5-2.4,0.6c-0.7,0-1,0.1-1,0.1c-0.7-2.8-1.9-5.6-3.6-8.5
		s-3.7-4.3-5.9-4.3c-4.5,8.1-7,17.1-7.7,26.8c-0.7,9.7,1,17.1,5.2,22.3c1.9,0.2,3.5-0.2,5-1.4c1.4-1.1,2.8-2.4,4.1-3.9
		c1.6-2,3.3-3.4,5-4.4c1.7-0.9,3.6-0.4,5.8,1.4c0.2,0.2,0.4,0.4,0.4,0.7c0.1,0.2,0,0.6-0.2,1c-0.2,0.5-0.6,1.2-1,2.2
		c-5.5,9.4-12.4,14.3-20.8,14.8c-8.4,0.5-15.8-2.3-22.1-8.5c-6.4-6.2-9.3-14.8-8.7-25.7C432.6,312.1,437,302.7,444.2,297z"/>
	<path id="XMLID_70_" class="st0" d="M501.4,297c7.3-5.7,14.7-8.1,22.5-7.1c7.7,1,13.2,5.2,16.4,12.5c0.5,2,0.7,3.6,0.3,5
		c-0.3,1.3-0.8,2.3-1.6,3c-0.8,0.7-1.7,1.3-2.6,1.6c-1,0.3-1.7,0.5-2.4,0.6c-0.7,0-1,0.1-1,0.1c-0.7-2.8-1.9-5.6-3.6-8.5
		s-3.7-4.3-5.9-4.3c-4.5,8.1-7,17.1-7.7,26.8c-0.7,9.7,1,17.1,5.2,22.3c1.9,0.2,3.5-0.2,5-1.4c1.4-1.1,2.8-2.4,4.1-3.9
		c1.6-2,3.3-3.4,5-4.4c1.7-0.9,3.6-0.4,5.8,1.4c0.2,0.2,0.4,0.4,0.4,0.7c0.1,0.2,0,0.6-0.2,1c-0.2,0.5-0.6,1.2-1,2.2
		c-5.5,9.4-12.4,14.3-20.8,14.8c-8.4,0.5-15.8-2.3-22.1-8.5c-6.4-6.2-9.3-14.8-8.7-25.7C489.8,312.1,494.2,302.7,501.4,297z"/>
</g>
</svg>
