<?xml version="1.0" encoding="utf-8"?>
<!-- Generator: Adobe Illustrator 19.0.0, SVG Export Plug-In . SVG Version: 6.00 Build 0)  -->
<svg version="1.1" id="Layer_1" xmlns="http://www.w3.org/2000/svg" xmlns:xlink="http://www.w3.org/1999/xlink" x="0px" y="0px"
	 viewBox="-192 -37.4 595.3 595.3" style="enable-background:new -192 -37.4 595.3 595.3;" xml:space="preserve">
<style type="text/css">
	.st0{fill:#FF6161;}
</style>
<g>
	<path id="XMLID_35_" class="st0" d="M-73.9,265.9c-9.8,8.8-22.2,12.9-36.6,11.9c-13.1-1.4-24-8.6-32.4-21.5
		c-8.6-12.9-12.5-32-11.7-57c1.4-20.9,7.7-40.4,19.1-58.4c11.2-17.8,26.4-29.9,45.5-36.1c19.1-5.9,41-1.4,65.8,13.8
		c11.7-12.5,26.7-15.7,45.1-9.8c3.7,2.8,5.8,10.1,6.2,21.5c0.1,11.2-0.4,28.9-1.8,53.1s-0.6,50.7,2.5,79.3
		c0.1,7.2,0.8,13.9,1.8,20.4c1,5.8,1.7,10.1,1.8,12.8c0.1,2.8-0.1,5.2-1,6.6c-1,1.4-2.7,3.1-4.9,4.5c-3.1,1.8-8,3.1-14.7,3.5
		s-12.8,0-17.7-1.4c-4.4-1.4-9-4.1-13.8-7.6c-4.8-3.5-8.4-7.2-10.8-10.8c-8-12.5-13.3-30.7-16.1-54.5
		C-55.5,247.1-64,257.2-73.9,265.9z M-40.3,145.2c-0.6-5.8-2.5-10.7-5.3-15c-3.1-4.1-7.4-5.8-13.1-4.9c-10.1,4.9-17.8,15-23.3,29.9
		c-5.8,15-9,30.3-10.1,46.3c-0.8,16,0.8,25.7,5.3,28.9c4.8,3.2,11.7-2.5,20.9-17.3c9.4-14.7,17.7-32.6,24.4-53.8
		C-40,155.7-39.9,150.9-40.3,145.2z"/>
	<path id="XMLID_33_" class="st0" d="M101.2,285.1c0.3,6.9,0.7,14.2-7.4,16.4c-6,1.7-13.8,0-19.2-2.9C64.4,293,59.6,281.2,57,270.5
		c-5.8-23-3.2-47.6-1.8-70.9c0.7-11.2,1.4-22.5,1.5-33.8c0.1-10.4-1.7-20.9-0.3-31.3c0.6-4.6,3.1-7.7,6.3-11.1
		c2.7-2.8,14.9-15,18.4-7.7c0.7,1.5,0.6,3.4,0.4,5.2c-0.7,5.9,0.1,12.2,0.8,18.1c0.1,0.8,0.1,1.7,0.6,2.4c0.4,0.7,1.4,1.1,2.1,0.8
		c0.4-0.1,0.7-0.6,1-1c1.8-3.1,1.1-7.3,3.1-10.2c0.4-0.6,1.1-1,1.8-0.7c0.3,0.1,0.6,0.4,0.8,0.7c9.4,11.7,8,33.3,8.1,47.3
		c0.3,18.8-0.1,37.8-0.3,56.6C99.5,251.6,100.6,268.3,101.2,285.1z"/>
	<path id="XMLID_31_" class="st0" d="M162.7,285.1c0.3,6.9,0.7,14.2-7.4,16.4c-6,1.7-13.8,0-19.2-2.9c-10.1-5.6-14.9-17.4-17.5-28.1
		c-5.8-23-3.2-47.6-1.8-70.9c0.7-11.2,1.4-22.5,1.5-33.8c0.1-10.4-1.7-20.9-0.3-31.3c0.6-4.6,3.1-7.7,6.3-11.1
		c2.7-2.8,14.9-15,18.4-7.7c0.7,1.5,0.6,3.4,0.4,5.2c-0.7,5.9,0.1,12.2,0.8,18.1c0.1,0.8,0.1,1.7,0.6,2.4c0.4,0.7,1.4,1.1,2.1,0.8
		c0.4-0.1,0.7-0.6,1-1c1.8-3.1,1.1-7.3,3.1-10.2c0.4-0.6,1.1-1,1.8-0.7c0.3,0.1,0.6,0.4,0.8,0.7c9.4,11.7,8,33.3,8.1,47.3
		c0.3,18.8-0.1,37.8-0.3,56.6C161,251.6,162,268.3,162.7,285.1z"/>
	<path id="XMLID_28_" class="st0" d="M260.7,265.9c-9.8,8.8-22.2,12.9-36.6,11.9c-13.1-1.4-24-8.6-32.4-21.5
		c-8.6-12.9-12.5-32-11.7-57c1.4-20.9,7.7-40.4,19.1-58.4c11.2-17.8,26.4-29.9,45.5-36.1c19.1-5.9,41-1.4,65.8,13.8
		c11.7-12.5,26.7-15.7,45.1-9.8c3.7,2.8,5.8,10.1,6.2,21.5c0.1,11.2-0.4,28.9-1.8,53.1c-1.4,24.1-0.6,50.7,2.5,79.3
		c0.1,7.2,0.8,13.9,1.8,20.4c1,5.8,1.7,10.1,1.8,12.8c0.1,2.8-0.1,5.2-1,6.6c-1,1.4-2.7,3.1-4.9,4.5c-3.1,1.8-8,3.1-14.7,3.5
		c-6.7,0.4-12.8,0-17.7-1.4c-4.4-1.4-9-4.1-13.8-7.6c-4.8-3.5-8.4-7.2-10.8-10.8c-8-12.5-13.3-30.7-16.1-54.5
		C279.1,247.1,270.5,257.2,260.7,265.9z M294.2,145.2c-0.6-5.8-2.5-10.7-5.3-15c-3.1-4.1-7.4-5.8-13.1-4.9
		c-10.1,4.9-17.8,15-23.3,29.9c-5.8,15-9,30.3-10.1,46.3c-0.8,16,0.8,25.7,5.3,28.9c4.8,3.2,11.7-2.5,20.9-17.3
		c9.4-14.7,17.7-32.6,24.4-53.8C294.5,155.7,294.6,150.9,294.2,145.2z"/>
	<path id="XMLID_26_" class="st0" d="M55.8,330.4c10.2-8,20.6-11.4,31.6-10c10.8,1.4,18.5,7.3,23,17.5c0.7,2.8,1,5.1,0.4,7
		c-0.4,1.8-1.1,3.2-2.2,4.2c-1.1,1-2.4,1.8-3.7,2.2c-1.4,0.4-2.4,0.7-3.4,0.8c-1,0-1.4,0.1-1.4,0.1c-1-3.9-2.7-7.9-5.1-11.9
		c-2.5-4.1-5.2-6-8.3-6c-6.3,11.4-9.8,24-10.8,37.6c-1,13.6,1.4,24,7.3,31.3c2.7,0.3,4.9-0.3,7-2c2-1.5,3.9-3.4,5.8-5.5
		c2.2-2.8,4.6-4.8,7-6.2c2.4-1.3,5.1-0.6,8.1,2c0.3,0.3,0.6,0.6,0.6,1c0.1,0.3,0,0.8-0.3,1.4c-0.3,0.7-0.8,1.7-1.4,3.1
		c-7.7,13.2-17.4,20.1-29.2,20.8s-22.2-3.2-31-11.9c-9-8.7-13.1-20.8-12.2-36.1C39.5,351.6,45.7,338.4,55.8,330.4z"/>
	<path id="XMLID_24_" class="st0" d="M136.1,330.4c10.2-8,20.6-11.4,31.6-10c10.8,1.4,18.5,7.3,23,17.5c0.7,2.8,1,5.1,0.4,7
		c-0.4,1.8-1.1,3.2-2.2,4.2s-2.4,1.8-3.7,2.2c-1.4,0.4-2.4,0.7-3.4,0.8c-1,0-1.4,0.1-1.4,0.1c-1-3.9-2.7-7.9-5.1-11.9
		c-2.5-4.1-5.2-6-8.3-6c-6.3,11.4-9.8,24-10.8,37.6c-1,13.6,1.4,24,7.3,31.3c2.7,0.3,4.9-0.3,7-2c2-1.5,3.9-3.4,5.8-5.5
		c2.2-2.8,4.6-4.8,7-6.2c2.4-1.3,5.1-0.6,8.1,2c0.3,0.3,0.6,0.6,0.6,1c0.1,0.3,0,0.8-0.3,1.4c-0.3,0.7-0.8,1.7-1.4,3.1
		c-7.7,13.2-17.4,20.1-29.2,20.8c-11.8,0.7-22.2-3.2-31-11.9c-9-8.7-13.1-20.8-12.2-36.1C119.8,351.6,126,338.4,136.1,330.4z"/>
</g>
</svg>
