<?xml version="1.0" encoding="utf-8"?>
<!-- Generator: Adobe Illustrator 19.0.0, SVG Export Plug-In . SVG Version: 6.00 Build 0)  -->
<svg version="1.1" id="Layer_1" xmlns="http://www.w3.org/2000/svg" xmlns:xlink="http://www.w3.org/1999/xlink" x="0px" y="0px"
	 viewBox="0 0 595.3 595.3" style="enable-background:new 0 0 595.3 595.3;" xml:space="preserve">
<style type="text/css">
	.st0{fill:none;}
	.st1{fill:#FFFFFF;}
</style>
<g id="XMLID_33_">
	<polyline id="XMLID_99_" class="st0" points="33,595.3 98.4,595.3 204,595.3 220.7,595.3 480.3,595.3 490.1,595.3 595.3,595.3 	"/>
</g>
<g id="XMLID_131_">
	
		<image style="overflow:visible;" width="2781" height="2781" id="XMLID_104_" xlink:href="14272745.png"  transform="matrix(0.24 0 0 0.24 -36 -36)">
	</image>
</g>
<g id="XMLID_41_">
	
		<image style="overflow:visible;" width="1194" height="1172" id="XMLID_102_" xlink:href="1427274C.png"  transform="matrix(0.24 0 0 0.24 -36 -36)">
	</image>
</g>
<g id="XMLID_6_">
	
		<image style="overflow:visible;" width="1441" height="1441" id="XMLID_100_" xlink:href="1427274D.png"  transform="matrix(0.24 0 0 0.24 63.1475 -11.8525)">
	</image>
</g>
<g id="XMLID_66_">
	
		<image style="overflow:visible;" width="1037" height="1298" id="XMLID_98_" xlink:href="1427274F.png"  transform="matrix(0.24 0 0 0.24 -36 116.26)">
	</image>
</g>
<g id="XMLID_62_">
	
		<image style="overflow:visible;" width="1541" height="1852" id="XMLID_95_" xlink:href="1427274B.png"  transform="matrix(0.24 0 0 0.24 261.64 -36)">
	</image>
</g>
<g id="XMLID_24_">
	
		<image style="overflow:visible;" width="876" height="876" id="XMLID_92_" xlink:href="14272744.png"  transform="matrix(0.24 0 0 0.24 124.4861 181)">
	</image>
</g>
<g id="XMLID_25_">
	
		<image style="overflow:visible;" width="1267" height="1267" id="XMLID_127_" xlink:href="14272759.png"  transform="matrix(0.24 0 0 0.24 212.298 195)">
	</image>
</g>
<g id="XMLID_67_">
	
		<image style="overflow:visible;" width="1527" height="1497" id="XMLID_126_" xlink:href="1427275A.png"  transform="matrix(0.24 0 0 0.24 -23.64 278.17)">
	</image>
</g>
<g id="XMLID_65_">
	
		<image style="overflow:visible;" width="1517" height="1056" id="XMLID_122_" xlink:href="1427275B.png"  transform="matrix(0.24 0 0 0.24 165.03 384)">
	</image>
</g>
<g id="XMLID_64_">
	
		<image style="overflow:visible;" width="1073" height="1396" id="XMLID_123_" xlink:href="E9A8ACD5.png"  transform="matrix(0.24 0 0 0.24 374 301)">
	</image>
</g>
<g id="XMLID_1_">
	<g id="XMLID_9_">
		<path id="XMLID_22_" class="st1" d="M163.6,330.3c-5.1,4.6-11.4,6.7-18.9,6.1c-6.7-0.7-12.4-4.4-16.7-11.1
			c-4.4-6.7-6.4-16.5-6-29.4c0.7-10.8,4-20.8,9.8-30.1c5.8-9.2,13.6-15.4,23.4-18.6c9.8-3,21.1-0.7,33.9,7.1
			c6-6.4,13.7-8.1,23.2-5.1c1.9,1.4,3,5.2,3.2,11.1c0.1,5.8-0.2,14.9-0.9,27.3c-0.7,12.4-0.3,26.1,1.3,40.9
			c0.1,3.7,0.4,7.2,0.9,10.5c0.5,3,0.9,5.2,0.9,6.6c0.1,1.4-0.1,2.7-0.5,3.4c-0.5,0.7-1.4,1.6-2.5,2.3c-1.6,0.9-4.1,1.6-7.6,1.8
			s-6.6,0-9.1-0.7c-2.2-0.7-4.6-2.1-7.1-3.9c-2.5-1.8-4.3-3.7-5.6-5.6c-4.1-6.4-6.9-15.8-8.3-28.1
			C173.1,320.6,168.7,325.8,163.6,330.3z M180.9,268c-0.3-3-1.3-5.5-2.7-7.7c-1.6-2.1-3.8-3-6.7-2.5c-5.2,2.5-9.2,7.7-12,15.4
			c-3,7.7-4.6,15.6-5.2,23.9c-0.4,8.2,0.4,13.2,2.7,14.9c2.5,1.7,6-1.3,10.8-8.9c4.8-7.6,9.1-16.8,12.6-27.7
			C181.1,273.5,181.1,271,180.9,268z"/>
		<path id="XMLID_19_" class="st1" d="M253.9,340.2c0.1,3.5,0.4,7.3-3.8,8.5c-3.1,0.9-7.1,0-9.9-1.5c-5.2-2.9-7.7-9-9-14.5
			c-3-11.9-1.7-24.5-0.9-36.5c0.4-5.8,0.7-11.6,0.8-17.4c0.1-5.4-0.9-10.8-0.1-16.1c0.3-2.4,1.6-4,3.3-5.7c1.4-1.4,7.7-7.7,9.5-4
			c0.4,0.8,0.3,1.7,0.2,2.7c-0.4,3,0.1,6.3,0.4,9.3c0.1,0.4,0.1,0.9,0.3,1.2c0.2,0.4,0.7,0.6,1.1,0.4c0.2-0.1,0.4-0.3,0.5-0.5
			c0.9-1.6,0.6-3.8,1.6-5.3c0.2-0.3,0.6-0.5,0.9-0.4c0.1,0.1,0.3,0.2,0.4,0.4c4.8,6,4.1,17.1,4.2,24.4c0.1,9.7-0.1,19.5-0.1,29.2
			C253,322.9,253.6,331.5,253.9,340.2z"/>
		<path id="XMLID_18_" class="st1" d="M285.5,340.2c0.1,3.5,0.4,7.3-3.8,8.5c-3.1,0.9-7.1,0-9.9-1.5c-5.2-2.9-7.7-9-9-14.5
			c-3-11.9-1.7-24.5-0.9-36.5c0.4-5.8,0.7-11.6,0.8-17.4c0.1-5.4-0.9-10.8-0.1-16.1c0.3-2.4,1.6-4,3.3-5.7c1.4-1.4,7.7-7.7,9.5-4
			c0.4,0.8,0.3,1.7,0.2,2.7c-0.4,3,0.1,6.3,0.4,9.3c0.1,0.4,0.1,0.9,0.3,1.2s0.7,0.6,1.1,0.4c0.2-0.1,0.4-0.3,0.5-0.5
			c0.9-1.6,0.6-3.8,1.6-5.3c0.2-0.3,0.6-0.5,0.9-0.4c0.1,0.1,0.3,0.2,0.4,0.4c4.8,6,4.1,17.1,4.2,24.4c0.1,9.7-0.1,19.5-0.1,29.2
			C284.7,322.9,285.2,331.5,285.5,340.2z"/>
		<path id="XMLID_17_" class="st1" d="M336,330.3c-5.1,4.6-11.4,6.7-18.9,6.1c-6.7-0.7-12.4-4.4-16.7-11.1c-4.4-6.7-6.4-16.5-6-29.4
			c0.7-10.8,4-20.8,9.8-30.1c5.8-9.2,13.6-15.4,23.4-18.6c9.8-3,21.1-0.7,33.9,7.1c6-6.4,13.7-8.1,23.2-5.1c1.9,1.4,3,5.2,3.2,11.1
			c0.1,5.8-0.2,14.9-0.9,27.3c-0.7,12.4-0.3,26.1,1.3,40.9c0.1,3.7,0.4,7.2,0.9,10.5c0.5,3,0.9,5.2,0.9,6.6c0.1,1.4-0.1,2.7-0.5,3.4
			c-0.5,0.7-1.4,1.6-2.5,2.3c-1.6,0.9-4.1,1.6-7.6,1.8s-6.6,0-9.1-0.7c-2.2-0.7-4.6-2.1-7.1-3.9c-2.5-1.8-4.3-3.7-5.6-5.6
			c-4.1-6.4-6.9-15.8-8.3-28.1C345.5,320.6,341.1,325.8,336,330.3z M353.3,268c-0.3-3-1.3-5.5-2.7-7.7c-1.6-2.1-3.8-3-6.7-2.5
			c-5.2,2.5-9.2,7.7-12,15.4c-3,7.7-4.6,15.6-5.2,23.9c-0.4,8.2,0.4,13.2,2.7,14.9c2.5,1.7,6-1.3,10.8-8.9
			c4.8-7.6,9.1-16.8,12.6-27.7C353.5,273.5,353.6,271,353.3,268z"/>
		<path id="XMLID_15_" class="st1" d="M404.1,299.1c5.3-4.1,10.6-5.9,16.3-5.1c5.6,0.7,9.6,3.8,11.9,9c0.4,1.4,0.5,2.6,0.2,3.6
			c-0.2,0.9-0.6,1.7-1.2,2.2c-0.6,0.5-1.2,0.9-1.9,1.2c-0.7,0.2-1.2,0.4-1.7,0.4c-0.5,0-0.7,0.1-0.7,0.1c-0.5-2-1.4-4.1-2.6-6.1
			s-2.7-3.1-4.3-3.1c-3.3,5.9-5.1,12.4-5.6,19.4c-0.5,7,0.7,12.4,3.8,16.1c1.4,0.1,2.5-0.1,3.6-1c1-0.8,2-1.7,3-2.8
			c1.2-1.4,2.4-2.5,3.6-3.2c1.2-0.7,2.6-0.3,4.2,1c0.1,0.1,0.3,0.3,0.3,0.5c0.1,0.1,0,0.4-0.1,0.7c-0.1,0.4-0.4,0.9-0.7,1.6
			c-4,6.8-9,10.3-15,10.7s-11.4-1.7-16-6.1c-4.6-4.5-6.7-10.7-6.3-18.6C395.7,310,398.9,303.2,404.1,299.1z"/>
		<path id="XMLID_10_" class="st1" d="M445.5,299.1c5.3-4.1,10.6-5.9,16.3-5.1c5.6,0.7,9.6,3.8,11.9,9c0.4,1.4,0.5,2.6,0.2,3.6
			c-0.2,0.9-0.6,1.7-1.2,2.2c-0.6,0.5-1.2,0.9-1.9,1.2c-0.7,0.2-1.2,0.4-1.7,0.4c-0.5,0-0.7,0.1-0.7,0.1c-0.5-2-1.4-4.1-2.6-6.1
			s-2.7-3.1-4.3-3.1c-3.3,5.9-5.1,12.4-5.6,19.4c-0.5,7,0.7,12.4,3.8,16.1c1.4,0.1,2.5-0.1,3.6-1c1-0.8,2-1.7,3-2.8
			c1.2-1.4,2.4-2.5,3.6-3.2c1.2-0.7,2.6-0.3,4.2,1c0.1,0.1,0.3,0.3,0.3,0.5c0.1,0.1,0,0.4-0.1,0.7c-0.1,0.4-0.4,0.9-0.7,1.6
			c-4,6.8-9,10.3-15,10.7c-6.1,0.4-11.4-1.7-16-6.1c-4.6-4.5-6.7-10.7-6.3-18.6C437.1,310,440.3,303.2,445.5,299.1z"/>
	</g>
	<g id="XMLID_4_">
		<g id="XMLID_141_">
			<g id="XMLID_152_">
				
					<image style="overflow:visible;" width="394" height="440" id="XMLID_153_" xlink:href="E9A8ACEB.png"  transform="matrix(0.24 0 0 0.24 120.8756 242.0101)">
				</image>
			</g>
			<g id="XMLID_150_">
				
					<image style="overflow:visible;" width="101" height="399" id="XMLID_151_" xlink:href="E9A8ACED.png"  transform="matrix(0.24 0 0 0.24 226.4604 247.6022)">
				</image>
			</g>
			<g id="XMLID_148_">
				
					<image style="overflow:visible;" width="101" height="399" id="XMLID_149_" xlink:href="E9A8ACEF.png"  transform="matrix(0.24 0 0 0.24 257.663 247.6022)">
				</image>
			</g>
			<g id="XMLID_146_">
				
					<image style="overflow:visible;" width="394" height="440" id="XMLID_147_" xlink:href="E9A8ACEC.png"  transform="matrix(0.24 0 0 0.24 290.6377 242.0101)">
				</image>
			</g>
			<g id="XMLID_144_">
				
					<image style="overflow:visible;" width="157" height="207" id="XMLID_145_" xlink:href="E9A8ACF4.png"  transform="matrix(0.24 0 0 0.24 389.4475 289.0722)">
				</image>
			</g>
			<g id="XMLID_142_">
				
					<image style="overflow:visible;" width="157" height="207" id="XMLID_143_" xlink:href="E9A8ACF5.png"  transform="matrix(0.24 0 0 0.24 430.1961 289.0722)">
				</image>
			</g>
		</g>
	</g>
</g>
</svg>
