<?xml version="1.0" encoding="utf-8"?>
<!-- Generator: Adobe Illustrator 19.0.0, SVG Export Plug-In . SVG Version: 6.00 Build 0)  -->
<svg version="1.1" id="Layer_1" xmlns="http://www.w3.org/2000/svg" xmlns:xlink="http://www.w3.org/1999/xlink" x="0px" y="0px"
	 viewBox="0 0 981.3 521.8" style="enable-background:new 0 0 981.3 521.8;" xml:space="preserve">
<style type="text/css">
	.st0{fill:#173A07;}
	.st1{fill:#FF6161;}
	.st2{fill:#FFDCED;}
	.st3{fill:#FFB000;}
	.st4{fill:#FFFFFF;}
</style>
<rect id="XMLID_57_" x="1.2" y="260.9" class="st0" width="490.6" height="260.9"/>
<rect id="XMLID_55_" class="st1" width="490.6" height="260.9"/>
<rect id="XMLID_58_" x="490.6" y="260.9" class="st2" width="490.6" height="260.9"/>
<rect id="XMLID_59_" x="490.6" class="st3" width="490.6" height="260.9"/>
<g id="XMLID_23_">
	<path id="XMLID_35_" class="st1" d="M98.1,425.8c-5.6,5-12.6,7.3-20.9,6.8c-7.5-0.8-13.6-4.9-18.4-12.2c-4.9-7.3-7.1-18.2-6.6-32.4
		c0.8-11.9,4.4-23,10.8-33.2c6.4-10.1,15-17,25.9-20.5c10.8-3.4,23.3-0.8,37.4,7.8c6.6-7.1,15.2-9,25.7-5.6
		c2.1,1.6,3.3,5.7,3.5,12.2c0.1,6.4-0.2,16.4-1,30.2c-0.8,13.8-0.3,28.8,1.4,45.1c0.1,4.1,0.5,7.9,1,11.5c0.6,3.3,0.9,5.7,1,7.2
		c0.1,1.6-0.1,2.9-0.6,3.7c-0.6,0.8-1.5,1.7-2.8,2.6c-1.7,1-4.5,1.7-8.4,2c-3.8,0.2-7.2,0-10-0.8c-2.4-0.8-5.1-2.3-7.8-4.3
		s-4.8-4.1-6.2-6.2c-4.5-7.1-7.6-17.5-9.2-31C108.6,415.1,103.7,420.8,98.1,425.8z M117.2,357.1c-0.3-3.3-1.4-6.1-3-8.5
		c-1.7-2.3-4.2-3.3-7.5-2.8c-5.7,2.8-10.1,8.5-13.3,17c-3.3,8.5-5.1,17.3-5.7,26.3c-0.5,9.1,0.5,14.6,3,16.4
		c2.7,1.9,6.6-1.4,11.9-9.8c5.4-8.4,10-18.5,13.9-30.5C117.3,363.1,117.4,360.4,117.2,357.1z"/>
	<path id="XMLID_33_" class="st1" d="M197.7,436.7c0.2,3.9,0.4,8.1-4.3,9.4c-3.4,0.9-7.9,0-10.9-1.7c-5.7-3.2-8.5-9.9-10-15.9
		c-3.3-13.1-1.9-27-1.1-40.3c0.4-6.4,0.8-12.8,0.9-19.2c0.1-5.9-0.9-11.9-0.2-17.8c0.3-2.7,1.8-4.4,3.6-6.3
		c1.5-1.6,8.5-8.5,10.5-4.4c0.4,0.9,0.4,1.9,0.2,2.9c-0.4,3.3,0.1,6.9,0.5,10.3c0,0.5,0.1,0.9,0.4,1.3s0.8,0.6,1.2,0.5
		c0.3-0.1,0.4-0.3,0.6-0.6c1-1.8,0.6-4.2,1.7-5.8c0.2-0.3,0.6-0.5,1-0.4c0.2,0.1,0.3,0.2,0.5,0.4c5.3,6.7,4.5,19,4.7,26.9
		c0.2,10.7-0.1,21.4-0.1,32.2C196.7,417.6,197.3,427.1,197.7,436.7z"/>
	<path id="XMLID_31_" class="st1" d="M232.6,436.7c0.2,3.9,0.4,8.1-4.3,9.4c-3.4,0.9-7.9,0-10.9-1.7c-5.7-3.2-8.5-9.9-10-15.9
		c-3.3-13.1-1.9-27-1.1-40.3c0.4-6.4,0.8-12.8,0.9-19.2c0.1-5.9-0.9-11.9-0.2-17.8c0.3-2.7,1.8-4.4,3.6-6.3
		c1.5-1.6,8.5-8.5,10.5-4.4c0.4,0.9,0.4,1.9,0.2,2.9c-0.4,3.3,0.1,6.9,0.5,10.3c0,0.5,0.1,0.9,0.4,1.3s0.8,0.6,1.2,0.5
		c0.3-0.1,0.4-0.3,0.6-0.6c1-1.8,0.6-4.2,1.7-5.8c0.2-0.3,0.6-0.5,1-0.4c0.2,0.1,0.3,0.2,0.5,0.4c5.3,6.7,4.5,19,4.7,26.9
		c0.2,10.7-0.1,21.4-0.1,32.2C231.7,417.6,232.3,427.1,232.6,436.7z"/>
	<path id="XMLID_28_" class="st1" d="M288.4,425.8c-5.6,5-12.6,7.3-20.9,6.8c-7.5-0.8-13.6-4.9-18.4-12.2
		c-4.9-7.3-7.1-18.2-6.6-32.4c0.8-11.9,4.4-23,10.8-33.2c6.4-10.1,15-17,25.9-20.5c10.8-3.4,23.3-0.8,37.4,7.8
		c6.6-7.1,15.2-9,25.7-5.6c2.1,1.6,3.3,5.7,3.5,12.2c0.1,6.4-0.2,16.4-1,30.2c-0.8,13.8-0.3,28.8,1.4,45.1c0.1,4.1,0.5,7.9,1,11.5
		c0.6,3.3,0.9,5.7,1,7.2c0.1,1.6-0.1,2.9-0.6,3.7c-0.6,0.8-1.5,1.7-2.8,2.6c-1.7,1-4.5,1.7-8.4,2s-7.2,0-10-0.8
		c-2.4-0.8-5.1-2.3-7.8-4.3c-2.7-2-4.8-4.1-6.2-6.2c-4.5-7.1-7.6-17.5-9.2-31C298.9,415.1,294,420.8,288.4,425.8z M307.5,357.1
		c-0.3-3.3-1.4-6.1-3-8.5c-1.7-2.3-4.2-3.3-7.5-2.8c-5.7,2.8-10.1,8.5-13.3,17c-3.3,8.5-5.1,17.3-5.7,26.3c-0.5,9.1,0.5,14.6,3,16.4
		c2.7,1.9,6.6-1.4,11.9-9.8c5.4-8.4,10-18.5,13.9-30.5C307.6,363.1,307.7,360.4,307.5,357.1z"/>
	<path id="XMLID_26_" class="st1" d="M363.5,391.4c5.8-4.6,11.7-6.5,18-5.6c6.2,0.8,10.6,4.1,13.1,10c0.4,1.6,0.5,2.9,0.2,4
		c-0.2,1-0.7,1.8-1.3,2.4c-0.7,0.6-1.4,1-2.1,1.2c-0.8,0.2-1.4,0.4-2,0.5c-0.5,0-0.8,0.1-0.8,0.1c-0.5-2.3-1.5-4.5-2.9-6.8
		c-1.4-2.3-3-3.4-4.7-3.4c-3.6,6.5-5.6,13.6-6.2,21.4c-0.6,7.8,0.8,13.7,4.1,17.8c1.5,0.2,2.8-0.2,4-1.1c1.1-0.9,2.3-2,3.3-3.1
		c1.3-1.6,2.6-2.7,4-3.5c1.4-0.7,2.9-0.4,4.6,1.1c0.2,0.2,0.3,0.4,0.3,0.6c0.1,0.2,0,0.5-0.2,0.8c-0.2,0.4-0.5,0.9-0.8,1.7
		c-4.4,7.5-9.9,11.4-16.6,11.8s-12.6-1.8-17.7-6.8c-5.1-5-7.4-11.8-6.9-20.5C354.3,403.4,357.8,395.9,363.5,391.4z"/>
	<path id="XMLID_24_" class="st1" d="M409.2,391.4c5.8-4.6,11.7-6.5,18-5.6c6.2,0.8,10.6,4.1,13.1,10c0.4,1.6,0.5,2.9,0.2,4
		c-0.2,1-0.7,1.8-1.3,2.4c-0.7,0.6-1.4,1-2.1,1.2c-0.8,0.2-1.4,0.4-2,0.5c-0.5,0-0.8,0.1-0.8,0.1c-0.5-2.3-1.5-4.5-2.9-6.8
		c-1.4-2.3-3-3.4-4.7-3.4c-3.6,6.5-5.6,13.6-6.2,21.4c-0.6,7.8,0.8,13.7,4.1,17.8c1.5,0.2,2.8-0.2,4-1.1c1.1-0.9,2.3-2,3.3-3.1
		c1.3-1.6,2.6-2.7,4-3.5c1.4-0.7,2.9-0.4,4.6,1.1c0.2,0.2,0.3,0.4,0.3,0.6c0.1,0.2,0,0.5-0.2,0.8c-0.2,0.4-0.5,0.9-0.8,1.7
		c-4.4,7.5-9.9,11.4-16.6,11.8s-12.6-1.8-17.7-6.8c-5.1-5-7.4-11.8-6.9-20.5C399.9,403.4,403.4,395.9,409.2,391.4z"/>
</g>
<g id="XMLID_60_">
	<path id="XMLID_72_" class="st4" d="M98.1,164.7c-5.6,5-12.6,7.3-20.9,6.8c-7.5-0.8-13.6-4.9-18.4-12.2c-4.9-7.3-7.1-18.2-6.6-32.4
		c0.8-11.9,4.4-23,10.8-33.2c6.4-10.1,15-17,25.9-20.5c10.8-3.4,23.3-0.8,37.4,7.8c6.6-7.1,15.2-9,25.7-5.6
		c2.1,1.6,3.3,5.7,3.5,12.2c0.1,6.4-0.2,16.4-1,30.2c-0.8,13.8-0.3,28.8,1.4,45.1c0.1,4.1,0.5,7.9,1,11.5c0.6,3.3,0.9,5.7,1,7.2
		c0.1,1.6-0.1,2.9-0.6,3.7c-0.6,0.8-1.5,1.7-2.8,2.6c-1.7,1-4.5,1.7-8.4,2c-3.8,0.2-7.2,0-10-0.8c-2.4-0.8-5.1-2.3-7.8-4.3
		s-4.8-4.1-6.2-6.2c-4.5-7.1-7.6-17.5-9.2-31C108.6,154,103.7,159.7,98.1,164.7z M117.2,96c-0.3-3.3-1.4-6.1-3-8.5
		c-1.7-2.3-4.2-3.3-7.5-2.8c-5.7,2.8-10.1,8.5-13.3,17c-3.3,8.5-5.1,17.3-5.7,26.3c-0.5,9.1,0.5,14.6,3,16.4
		c2.7,1.9,6.6-1.4,11.9-9.8c5.4-8.4,10-18.5,13.9-30.5C117.3,102,117.4,99.3,117.2,96z"/>
	<path id="XMLID_70_" class="st4" d="M197.7,175.6c0.2,3.9,0.4,8.1-4.3,9.4c-3.4,0.9-7.9,0-10.9-1.7c-5.7-3.2-8.5-9.9-10-15.9
		c-3.3-13.1-1.9-27-1.1-40.3c0.4-6.4,0.8-12.8,0.9-19.2c0.1-5.9-0.9-11.9-0.2-17.8c0.3-2.7,1.8-4.4,3.6-6.3
		c1.5-1.6,8.5-8.5,10.5-4.4c0.4,0.9,0.4,1.9,0.2,2.9c-0.4,3.3,0.1,6.9,0.5,10.3c0,0.5,0.1,0.9,0.4,1.3c0.3,0.4,0.8,0.6,1.2,0.5
		c0.3-0.1,0.4-0.3,0.6-0.6c1-1.8,0.6-4.2,1.7-5.8c0.2-0.3,0.6-0.5,1-0.4c0.2,0.1,0.3,0.2,0.5,0.4c5.3,6.7,4.5,19,4.7,26.9
		c0.2,10.7-0.1,21.4-0.1,32.2C196.7,156.5,197.3,166,197.7,175.6z"/>
	<path id="XMLID_68_" class="st4" d="M232.6,175.6c0.2,3.9,0.4,8.1-4.3,9.4c-3.4,0.9-7.9,0-10.9-1.7c-5.7-3.2-8.5-9.9-10-15.9
		c-3.3-13.1-1.9-27-1.1-40.3c0.4-6.4,0.8-12.8,0.9-19.2c0.1-5.9-0.9-11.9-0.2-17.8c0.3-2.7,1.8-4.4,3.6-6.3
		c1.5-1.6,8.5-8.5,10.5-4.4c0.4,0.9,0.4,1.9,0.2,2.9c-0.4,3.3,0.1,6.9,0.5,10.3c0,0.5,0.1,0.9,0.4,1.3c0.3,0.4,0.8,0.6,1.2,0.5
		c0.3-0.1,0.4-0.3,0.6-0.6c1-1.8,0.6-4.2,1.7-5.8c0.2-0.3,0.6-0.5,1-0.4c0.2,0.1,0.3,0.2,0.5,0.4c5.3,6.7,4.5,19,4.7,26.9
		c0.2,10.7-0.1,21.4-0.1,32.2C231.7,156.5,232.3,166,232.6,175.6z"/>
	<path id="XMLID_65_" class="st4" d="M288.4,164.7c-5.6,5-12.6,7.3-20.9,6.8c-7.5-0.8-13.6-4.9-18.4-12.2
		c-4.9-7.3-7.1-18.2-6.6-32.4c0.8-11.9,4.4-23,10.8-33.2c6.4-10.1,15-17,25.9-20.5c10.8-3.4,23.3-0.8,37.4,7.8
		c6.6-7.1,15.2-9,25.7-5.6c2.1,1.6,3.3,5.7,3.5,12.2c0.1,6.4-0.2,16.4-1,30.2c-0.8,13.8-0.3,28.8,1.4,45.1c0.1,4.1,0.5,7.9,1,11.5
		c0.6,3.3,0.9,5.7,1,7.2c0.1,1.6-0.1,2.9-0.6,3.7c-0.6,0.8-1.5,1.7-2.8,2.6c-1.7,1-4.5,1.7-8.4,2c-3.8,0.2-7.2,0-10-0.8
		c-2.4-0.8-5.1-2.3-7.8-4.3c-2.7-2-4.8-4.1-6.2-6.2c-4.5-7.1-7.6-17.5-9.2-31C298.9,154,294,159.7,288.4,164.7z M307.5,96
		c-0.3-3.3-1.4-6.1-3-8.5c-1.7-2.3-4.2-3.3-7.5-2.8c-5.7,2.8-10.1,8.5-13.3,17c-3.3,8.5-5.1,17.3-5.7,26.3c-0.5,9.1,0.5,14.6,3,16.4
		c2.7,1.9,6.6-1.4,11.9-9.8c5.4-8.4,10-18.5,13.9-30.5C307.6,102,307.7,99.3,307.5,96z"/>
	<path id="XMLID_63_" class="st4" d="M363.5,130.3c5.8-4.6,11.7-6.5,18-5.6c6.2,0.8,10.6,4.1,13.1,10c0.4,1.6,0.5,2.9,0.2,4
		c-0.2,1-0.7,1.8-1.3,2.4c-0.7,0.6-1.4,1-2.1,1.2c-0.8,0.2-1.4,0.4-2,0.5c-0.5,0-0.8,0.1-0.8,0.1c-0.5-2.3-1.5-4.5-2.9-6.8
		c-1.4-2.3-3-3.4-4.7-3.4c-3.6,6.5-5.6,13.6-6.2,21.4c-0.6,7.8,0.8,13.7,4.1,17.8c1.5,0.2,2.8-0.2,4-1.1c1.1-0.9,2.3-2,3.3-3.1
		c1.3-1.6,2.6-2.7,4-3.5c1.4-0.7,2.9-0.4,4.6,1.1c0.2,0.2,0.3,0.4,0.3,0.6c0.1,0.2,0,0.5-0.2,0.8c-0.2,0.4-0.5,0.9-0.8,1.7
		c-4.4,7.5-9.9,11.4-16.6,11.8s-12.6-1.8-17.7-6.8c-5.1-5-7.4-11.8-6.9-20.5C354.3,142.3,357.8,134.8,363.5,130.3z"/>
	<path id="XMLID_61_" class="st4" d="M409.2,130.3c5.8-4.6,11.7-6.5,18-5.6c6.2,0.8,10.6,4.1,13.1,10c0.4,1.6,0.5,2.9,0.2,4
		c-0.2,1-0.7,1.8-1.3,2.4c-0.7,0.6-1.4,1-2.1,1.2c-0.8,0.2-1.4,0.4-2,0.5c-0.5,0-0.8,0.1-0.8,0.1c-0.5-2.3-1.5-4.5-2.9-6.8
		c-1.4-2.3-3-3.4-4.7-3.4c-3.6,6.5-5.6,13.6-6.2,21.4c-0.6,7.8,0.8,13.7,4.1,17.8c1.5,0.2,2.8-0.2,4-1.1c1.1-0.9,2.3-2,3.3-3.1
		c1.3-1.6,2.6-2.7,4-3.5c1.4-0.7,2.9-0.4,4.6,1.1c0.2,0.2,0.3,0.4,0.3,0.6c0.1,0.2,0,0.5-0.2,0.8c-0.2,0.4-0.5,0.9-0.8,1.7
		c-4.4,7.5-9.9,11.4-16.6,11.8s-12.6-1.8-17.7-6.8c-5.1-5-7.4-11.8-6.9-20.5C399.9,142.3,403.4,134.8,409.2,130.3z"/>
</g>
<g id="XMLID_75_">
	<path id="XMLID_87_" class="st0" d="M587.6,164.7c-5.6,5-12.6,7.3-20.9,6.8c-7.5-0.8-13.6-4.9-18.4-12.2
		c-4.9-7.3-7.1-18.2-6.6-32.4c0.8-11.9,4.4-23,10.8-33.2c6.4-10.1,15-17,25.9-20.5c10.8-3.4,23.3-0.8,37.4,7.8
		c6.6-7.1,15.2-9,25.7-5.6c2.1,1.6,3.3,5.7,3.5,12.2c0.1,6.4-0.2,16.4-1,30.2c-0.8,13.8-0.3,28.8,1.4,45.1c0.1,4.1,0.5,7.9,1,11.5
		c0.6,3.3,0.9,5.7,1,7.2c0.1,1.6-0.1,2.9-0.6,3.7c-0.6,0.8-1.5,1.7-2.8,2.6c-1.7,1-4.5,1.7-8.4,2c-3.8,0.2-7.2,0-10-0.8
		c-2.4-0.8-5.1-2.3-7.8-4.3s-4.8-4.1-6.2-6.2c-4.5-7.1-7.6-17.5-9.2-31C598,154,593.1,159.7,587.6,164.7z M606.7,96
		c-0.3-3.3-1.4-6.1-3-8.5c-1.7-2.3-4.2-3.3-7.5-2.8c-5.7,2.8-10.1,8.5-13.3,17c-3.3,8.5-5.1,17.3-5.7,26.3c-0.5,9.1,0.5,14.6,3,16.4
		c2.7,1.9,6.6-1.4,11.9-9.8c5.4-8.4,10-18.5,13.9-30.5C606.8,102,606.9,99.3,606.7,96z"/>
	<path id="XMLID_85_" class="st0" d="M687.2,175.6c0.2,3.9,0.4,8.1-4.3,9.4c-3.4,0.9-7.9,0-10.9-1.7c-5.7-3.2-8.5-9.9-10-15.9
		c-3.3-13.1-1.9-27-1.1-40.3c0.4-6.4,0.8-12.8,0.9-19.2c0.1-5.9-0.9-11.9-0.2-17.8c0.3-2.7,1.8-4.4,3.6-6.3
		c1.5-1.6,8.5-8.5,10.5-4.4c0.4,0.9,0.4,1.9,0.2,2.9c-0.4,3.3,0.1,6.9,0.5,10.3c0,0.5,0.1,0.9,0.4,1.3c0.3,0.4,0.8,0.6,1.2,0.5
		c0.3-0.1,0.4-0.3,0.6-0.6c1-1.8,0.6-4.2,1.7-5.8c0.2-0.3,0.6-0.5,1-0.4c0.2,0.1,0.3,0.2,0.5,0.4c5.3,6.7,4.5,19,4.7,26.9
		c0.2,10.7-0.1,21.4-0.1,32.2C686.2,156.5,686.8,166,687.2,175.6z"/>
	<path id="XMLID_83_" class="st0" d="M722.1,175.6c0.2,3.9,0.4,8.1-4.3,9.4c-3.4,0.9-7.9,0-10.9-1.7c-5.7-3.2-8.5-9.9-10-15.9
		c-3.3-13.1-1.9-27-1.1-40.3c0.4-6.4,0.8-12.8,0.9-19.2c0.1-5.9-0.9-11.9-0.2-17.8c0.3-2.7,1.8-4.4,3.6-6.3
		c1.5-1.6,8.5-8.5,10.5-4.4c0.4,0.9,0.4,1.9,0.2,2.9c-0.4,3.3,0.1,6.9,0.5,10.3c0,0.5,0.1,0.9,0.4,1.3c0.3,0.4,0.8,0.6,1.2,0.5
		c0.3-0.1,0.4-0.3,0.6-0.6c1-1.8,0.6-4.2,1.7-5.8c0.2-0.3,0.6-0.5,1-0.4c0.2,0.1,0.3,0.2,0.5,0.4c5.3,6.7,4.5,19,4.7,26.9
		c0.2,10.7-0.1,21.4-0.1,32.2C721.2,156.5,721.7,166,722.1,175.6z"/>
	<path id="XMLID_80_" class="st0" d="M777.9,164.7c-5.6,5-12.6,7.3-20.9,6.8c-7.5-0.8-13.6-4.9-18.4-12.2
		c-4.9-7.3-7.1-18.2-6.6-32.4c0.8-11.9,4.4-23,10.8-33.2c6.4-10.1,15-17,25.9-20.5c10.8-3.4,23.3-0.8,37.4,7.8
		c6.6-7.1,15.2-9,25.7-5.6c2.1,1.6,3.3,5.7,3.5,12.2c0.1,6.4-0.2,16.4-1,30.2c-0.8,13.8-0.3,28.8,1.4,45.1c0.1,4.1,0.5,7.9,1,11.5
		c0.6,3.3,0.9,5.7,1,7.2c0.1,1.6-0.1,2.9-0.6,3.7c-0.6,0.8-1.5,1.7-2.8,2.6c-1.7,1-4.5,1.7-8.4,2c-3.8,0.2-7.2,0-10-0.8
		c-2.4-0.8-5.1-2.3-7.8-4.3s-4.8-4.1-6.2-6.2c-4.5-7.1-7.6-17.5-9.2-31C788.4,154,783.5,159.7,777.9,164.7z M797,96
		c-0.3-3.3-1.4-6.1-3-8.5c-1.7-2.3-4.2-3.3-7.5-2.8c-5.7,2.8-10.1,8.5-13.3,17c-3.3,8.5-5.1,17.3-5.7,26.3c-0.5,9.1,0.5,14.6,3,16.4
		c2.7,1.9,6.6-1.4,11.9-9.8c5.4-8.4,10-18.5,13.9-30.5C797.1,102,797.2,99.3,797,96z"/>
	<path id="XMLID_78_" class="st0" d="M853,130.3c5.8-4.6,11.7-6.5,18-5.6c6.2,0.8,10.6,4.1,13.1,10c0.4,1.6,0.5,2.9,0.2,4
		c-0.2,1-0.7,1.8-1.3,2.4c-0.7,0.6-1.4,1-2.1,1.2c-0.8,0.2-1.4,0.4-2,0.5c-0.5,0-0.8,0.1-0.8,0.1c-0.5-2.3-1.5-4.5-2.9-6.8
		c-1.4-2.3-3-3.4-4.7-3.4c-3.6,6.5-5.6,13.6-6.2,21.4c-0.6,7.8,0.8,13.7,4.1,17.8c1.5,0.2,2.8-0.2,4-1.1c1.1-0.9,2.3-2,3.3-3.1
		c1.3-1.6,2.6-2.7,4-3.5c1.4-0.7,2.9-0.4,4.6,1.1c0.2,0.2,0.3,0.4,0.3,0.6c0.1,0.2,0,0.5-0.2,0.8c-0.2,0.4-0.5,0.9-0.8,1.7
		c-4.4,7.5-9.9,11.4-16.6,11.8s-12.6-1.8-17.7-6.8c-5.1-5-7.4-11.8-6.9-20.5C843.8,142.3,847.3,134.8,853,130.3z"/>
	<path id="XMLID_76_" class="st0" d="M898.7,130.3c5.8-4.6,11.7-6.5,18-5.6c6.2,0.8,10.6,4.1,13.1,10c0.4,1.6,0.5,2.9,0.2,4
		c-0.2,1-0.7,1.8-1.3,2.4c-0.7,0.6-1.4,1-2.1,1.2c-0.8,0.2-1.4,0.4-2,0.5c-0.5,0-0.8,0.1-0.8,0.1c-0.5-2.3-1.5-4.5-2.9-6.8
		c-1.4-2.3-3-3.4-4.7-3.4c-3.6,6.5-5.6,13.6-6.2,21.4c-0.6,7.8,0.8,13.7,4.1,17.8c1.5,0.2,2.8-0.2,4-1.1c1.1-0.9,2.3-2,3.3-3.1
		c1.3-1.6,2.6-2.7,4-3.5c1.4-0.7,2.9-0.4,4.6,1.1c0.2,0.2,0.3,0.4,0.3,0.6c0.1,0.2,0,0.5-0.2,0.8c-0.2,0.4-0.5,0.9-0.8,1.7
		c-4.4,7.5-9.9,11.4-16.6,11.8s-12.6-1.8-17.7-6.8c-5.1-5-7.4-11.8-6.9-20.5C889.4,142.3,892.9,134.8,898.7,130.3z"/>
</g>
<g id="XMLID_90_">
	<path id="XMLID_102_" class="st1" d="M587.6,425.3c-5.6,5-12.6,7.3-20.9,6.8c-7.5-0.8-13.6-4.9-18.4-12.2
		c-4.9-7.3-7.1-18.2-6.6-32.4c0.8-11.9,4.4-23,10.8-33.2c6.4-10.1,15-17,25.9-20.5c10.8-3.4,23.3-0.8,37.4,7.8
		c6.6-7.1,15.2-9,25.7-5.6c2.1,1.6,3.3,5.7,3.5,12.2c0.1,6.4-0.2,16.4-1,30.2c-0.8,13.8-0.3,28.8,1.4,45.1c0.1,4.1,0.5,7.9,1,11.5
		c0.6,3.3,0.9,5.7,1,7.2c0.1,1.6-0.1,2.9-0.6,3.7c-0.6,0.8-1.5,1.7-2.8,2.6c-1.7,1-4.5,1.7-8.4,2c-3.8,0.2-7.2,0-10-0.8
		c-2.4-0.8-5.1-2.3-7.8-4.3c-2.7-2-4.8-4.1-6.2-6.2c-4.5-7.1-7.6-17.5-9.2-31C598,414.6,593.1,420.3,587.6,425.3z M606.7,356.6
		c-0.3-3.3-1.4-6.1-3-8.5c-1.7-2.3-4.2-3.3-7.5-2.8c-5.7,2.8-10.1,8.5-13.3,17c-3.3,8.5-5.1,17.3-5.7,26.3c-0.5,9.1,0.5,14.6,3,16.4
		c2.7,1.9,6.6-1.4,11.9-9.8c5.4-8.4,10-18.5,13.9-30.5C606.8,362.6,606.9,359.9,606.7,356.6z"/>
	<path id="XMLID_100_" class="st1" d="M687.2,436.2c0.2,3.9,0.4,8.1-4.3,9.4c-3.4,0.9-7.9,0-10.9-1.7c-5.7-3.2-8.5-9.9-10-15.9
		c-3.3-13.1-1.9-27-1.1-40.3c0.4-6.4,0.8-12.8,0.9-19.2c0.1-5.9-0.9-11.9-0.2-17.8c0.3-2.7,1.8-4.4,3.6-6.3
		c1.5-1.6,8.5-8.5,10.5-4.4c0.4,0.9,0.4,1.9,0.2,2.9c-0.4,3.3,0.1,6.9,0.5,10.3c0,0.5,0.1,0.9,0.4,1.3c0.3,0.4,0.8,0.6,1.2,0.5
		c0.3-0.1,0.4-0.3,0.6-0.6c1-1.8,0.6-4.2,1.7-5.8c0.2-0.3,0.6-0.5,1-0.4c0.2,0.1,0.3,0.2,0.5,0.4c5.3,6.7,4.5,19,4.7,26.9
		c0.2,10.7-0.1,21.4-0.1,32.2C686.2,417.1,686.8,426.6,687.2,436.2z"/>
	<path id="XMLID_98_" class="st1" d="M722.1,436.2c0.2,3.9,0.4,8.1-4.3,9.4c-3.4,0.9-7.9,0-10.9-1.7c-5.7-3.2-8.5-9.9-10-15.9
		c-3.3-13.1-1.9-27-1.1-40.3c0.4-6.4,0.8-12.8,0.9-19.2c0.1-5.9-0.9-11.9-0.2-17.8c0.3-2.7,1.8-4.4,3.6-6.3
		c1.5-1.6,8.5-8.5,10.5-4.4c0.4,0.9,0.4,1.9,0.2,2.9c-0.4,3.3,0.1,6.9,0.5,10.3c0,0.5,0.1,0.9,0.4,1.3c0.3,0.4,0.8,0.6,1.2,0.5
		c0.3-0.1,0.4-0.3,0.6-0.6c1-1.8,0.6-4.2,1.7-5.8c0.2-0.3,0.6-0.5,1-0.4c0.2,0.1,0.3,0.2,0.5,0.4c5.3,6.7,4.5,19,4.7,26.9
		c0.2,10.7-0.1,21.4-0.1,32.2C721.2,417.1,721.7,426.6,722.1,436.2z"/>
	<path id="XMLID_95_" class="st1" d="M777.9,425.3c-5.6,5-12.6,7.3-20.9,6.8c-7.5-0.8-13.6-4.9-18.4-12.2
		c-4.9-7.3-7.1-18.2-6.6-32.4c0.8-11.9,4.4-23,10.8-33.2c6.4-10.1,15-17,25.9-20.5c10.8-3.4,23.3-0.8,37.4,7.8
		c6.6-7.1,15.2-9,25.7-5.6c2.1,1.6,3.3,5.7,3.5,12.2c0.1,6.4-0.2,16.4-1,30.2c-0.8,13.8-0.3,28.8,1.4,45.1c0.1,4.1,0.5,7.9,1,11.5
		c0.6,3.3,0.9,5.7,1,7.2c0.1,1.6-0.1,2.9-0.6,3.7c-0.6,0.8-1.5,1.7-2.8,2.6c-1.7,1-4.5,1.7-8.4,2c-3.8,0.2-7.2,0-10-0.8
		c-2.4-0.8-5.1-2.3-7.8-4.3c-2.7-2-4.8-4.1-6.2-6.2c-4.5-7.1-7.6-17.5-9.2-31C788.4,414.6,783.5,420.3,777.9,425.3z M797,356.6
		c-0.3-3.3-1.4-6.1-3-8.5c-1.7-2.3-4.2-3.3-7.5-2.8c-5.7,2.8-10.1,8.5-13.3,17c-3.3,8.5-5.1,17.3-5.7,26.3c-0.5,9.1,0.5,14.6,3,16.4
		c2.7,1.9,6.6-1.4,11.9-9.8c5.4-8.4,10-18.5,13.9-30.5C797.1,362.6,797.2,359.9,797,356.6z"/>
	<path id="XMLID_93_" class="st1" d="M853,390.9c5.8-4.6,11.7-6.5,18-5.6c6.2,0.8,10.6,4.1,13.1,10c0.4,1.6,0.5,2.9,0.2,4
		c-0.2,1-0.7,1.8-1.3,2.4c-0.7,0.6-1.4,1-2.1,1.2c-0.8,0.2-1.4,0.4-2,0.5c-0.5,0-0.8,0.1-0.8,0.1c-0.5-2.3-1.5-4.5-2.9-6.8
		c-1.4-2.3-3-3.4-4.7-3.4c-3.6,6.5-5.6,13.6-6.2,21.4s0.8,13.7,4.1,17.8c1.5,0.2,2.8-0.2,4-1.1c1.1-0.9,2.3-2,3.3-3.1
		c1.3-1.6,2.6-2.7,4-3.5c1.4-0.7,2.9-0.4,4.6,1.1c0.2,0.2,0.3,0.4,0.3,0.6c0.1,0.2,0,0.5-0.2,0.8c-0.2,0.4-0.5,0.9-0.8,1.7
		c-4.4,7.5-9.9,11.4-16.6,11.8s-12.6-1.8-17.7-6.8c-5.1-5-7.4-11.8-6.9-20.5C843.8,402.9,847.3,395.4,853,390.9z"/>
	<path id="XMLID_91_" class="st1" d="M898.7,390.9c5.8-4.6,11.7-6.5,18-5.6c6.2,0.8,10.6,4.1,13.1,10c0.4,1.6,0.5,2.9,0.2,4
		c-0.2,1-0.7,1.8-1.3,2.4c-0.7,0.6-1.4,1-2.1,1.2c-0.8,0.2-1.4,0.4-2,0.5c-0.5,0-0.8,0.1-0.8,0.1c-0.5-2.3-1.5-4.5-2.9-6.8
		c-1.4-2.3-3-3.4-4.7-3.4c-3.6,6.5-5.6,13.6-6.2,21.4c-0.6,7.8,0.8,13.7,4.1,17.8c1.5,0.2,2.8-0.2,4-1.1c1.1-0.9,2.3-2,3.3-3.1
		c1.3-1.6,2.6-2.7,4-3.5c1.4-0.7,2.9-0.4,4.6,1.1c0.2,0.2,0.3,0.4,0.3,0.6c0.1,0.2,0,0.5-0.2,0.8c-0.2,0.4-0.5,0.9-0.8,1.7
		c-4.4,7.5-9.9,11.4-16.6,11.8s-12.6-1.8-17.7-6.8c-5.1-5-7.4-11.8-6.9-20.5C889.4,402.9,892.9,395.4,898.7,390.9z"/>
</g>
</svg>
