<?xml version="1.0" encoding="utf-8"?>
<!-- Generator: Adobe Illustrator 19.0.0, SVG Export Plug-In . SVG Version: 6.00 Build 0)  -->
<svg version="1.1" id="Layer_1" xmlns="http://www.w3.org/2000/svg" xmlns:xlink="http://www.w3.org/1999/xlink" x="0px" y="0px"
	 viewBox="0 0 981.3 521.9" style="enable-background:new 0 0 981.3 521.9;" xml:space="preserve">
<style type="text/css">
	.st0{fill:url(#XMLID_4_);stroke:#1D1D1B;stroke-miterlimit:10;}
	.st1{fill:#FF7171;}
</style>
<linearGradient id="XMLID_4_" gradientUnits="userSpaceOnUse" x1="114.86" y1="-114.86" x2="866.44" y2="636.72">
	<stop  offset="0" style="stop-color:#FFEFB3"/>
	<stop  offset="0.2388" style="stop-color:#FFEFB5"/>
	<stop  offset="0.3248" style="stop-color:#FFF1BC"/>
	<stop  offset="0.3861" style="stop-color:#FFF3C7"/>
	<stop  offset="0.4357" style="stop-color:#FFF7D8"/>
	<stop  offset="0.4776" style="stop-color:#FFFBEE"/>
	<stop  offset="0.5025" style="stop-color:#FFFFFF"/>
	<stop  offset="0.5418" style="stop-color:#FFFFDB"/>
	<stop  offset="0.5993" style="stop-color:#FFFFAD"/>
	<stop  offset="0.6591" style="stop-color:#FFFF86"/>
	<stop  offset="0.7202" style="stop-color:#FFFF66"/>
	<stop  offset="0.7832" style="stop-color:#FFFF4D"/>
	<stop  offset="0.8487" style="stop-color:#FFFF3B"/>
	<stop  offset="0.9186" style="stop-color:#FFFF30"/>
	<stop  offset="1" style="stop-color:#FFFF2D"/>
</linearGradient>
<rect id="XMLID_1_" class="st0" width="981.3" height="521.9"/>
<g id="XMLID_2_">
	<path id="XMLID_905_" class="st1" d="M411.8,279c-3,2.7-6.7,3.9-11.1,3.6c-4-0.4-7.3-2.6-9.8-6.5c-2.6-3.9-3.8-9.7-3.5-17.2
		c0.4-6.3,2.4-12.2,5.8-17.7c3.4-5.4,8-9,13.8-10.9c5.8-1.8,12.4-0.4,19.9,4.2c3.5-3.8,8.1-4.8,13.6-3c1.1,0.9,1.7,3,1.9,6.5
		c0.1,3.4-0.1,8.7-0.6,16.1s-0.2,15.3,0.7,24c0.1,2.2,0.2,4.2,0.6,6.1c0.3,1.7,0.5,3,0.6,3.8c0.1,0.9-0.1,1.5-0.3,2
		c-0.3,0.4-0.8,0.9-1.5,1.4c-0.9,0.6-2.4,0.9-4.5,1.1c-2,0.1-3.8,0-5.3-0.4c-1.3-0.4-2.7-1.2-4.2-2.3s-2.5-2.2-3.3-3.3
		c-2.4-3.8-4-9.3-4.9-16.5C417.3,273.3,414.7,276.3,411.8,279z M421.9,242.4c-0.2-1.7-0.7-3.2-1.6-4.5c-0.9-1.2-2.2-1.7-4-1.5
		c-3,1.5-5.4,4.5-7.1,9c-1.7,4.5-2.7,9.2-3,14c-0.2,4.8,0.2,7.7,1.6,8.7c1.4,1,3.5-0.7,6.3-5.2c2.9-4.5,5.3-9.9,7.4-16.2
		C422,245.6,422,244.2,421.9,242.4z"/>
	<path id="XMLID_903_" class="st1" d="M464.7,284.7c0.1,2.1,0.2,4.3-2.3,5c-1.8,0.5-4.2,0-5.8-0.9c-3.1-1.7-4.5-5.3-5.3-8.5
		c-1.7-7-1-14.4-0.6-21.4c0.2-3.4,0.4-6.8,0.5-10.2c0-3.1-0.5-6.3-0.1-9.5c0.2-1.4,1-2.3,1.9-3.4c0.8-0.8,4.5-4.5,5.6-2.3
		c0.2,0.5,0.2,1,0.1,1.6c-0.2,1.8,0.1,3.7,0.2,5.5c0,0.2,0.1,0.5,0.2,0.7c0.1,0.2,0.4,0.3,0.6,0.2c0.1-0.1,0.2-0.2,0.3-0.3
		c0.5-0.9,0.3-2.2,0.9-3.1c0.1-0.2,0.3-0.3,0.5-0.2c0.1,0,0.2,0.1,0.2,0.2c2.8,3.5,2.4,10.1,2.5,14.3c0.1,5.7,0,11.4-0.1,17.1
		C464.2,274.6,464.5,279.7,464.7,284.7z"/>
	<path id="XMLID_901_" class="st1" d="M483.3,284.7c0.1,2.1,0.2,4.3-2.3,5c-1.8,0.5-4.2,0-5.8-0.9c-3.1-1.7-4.5-5.3-5.3-8.5
		c-1.7-7-1-14.4-0.6-21.4c0.2-3.4,0.4-6.8,0.5-10.2c0-3.1-0.5-6.3-0.1-9.5c0.2-1.4,1-2.3,1.9-3.4c0.8-0.8,4.5-4.5,5.6-2.3
		c0.2,0.5,0.2,1,0.1,1.6c-0.2,1.8,0.1,3.7,0.2,5.5c0,0.2,0.1,0.5,0.2,0.7c0.1,0.2,0.4,0.3,0.6,0.2c0.1-0.1,0.2-0.2,0.3-0.3
		c0.5-0.9,0.3-2.2,0.9-3.1c0.1-0.2,0.3-0.3,0.5-0.2c0.1,0,0.2,0.1,0.2,0.2c2.8,3.5,2.4,10.1,2.5,14.3c0.1,5.7,0,11.4-0.1,17.1
		C482.8,274.6,483.1,279.7,483.3,284.7z"/>
	<path id="XMLID_898_" class="st1" d="M512.9,279c-3,2.7-6.7,3.9-11.1,3.6c-4-0.4-7.3-2.6-9.8-6.5c-2.6-3.9-3.8-9.7-3.5-17.2
		c0.4-6.3,2.4-12.2,5.8-17.7c3.4-5.4,8-9,13.8-10.9c5.8-1.8,12.4-0.4,19.9,4.2c3.5-3.8,8.1-4.8,13.6-3c1.1,0.9,1.7,3,1.9,6.5
		c0.1,3.4-0.1,8.7-0.6,16.1c-0.4,7.3-0.2,15.3,0.7,24c0.1,2.2,0.2,4.2,0.6,6.1c0.3,1.7,0.5,3,0.6,3.8c0.1,0.9-0.1,1.5-0.3,2
		c-0.3,0.4-0.8,0.9-1.5,1.4c-0.9,0.6-2.4,0.9-4.5,1.1c-2,0.1-3.8,0-5.3-0.4c-1.3-0.4-2.7-1.2-4.2-2.3c-1.4-1.1-2.5-2.2-3.3-3.3
		c-2.4-3.8-4-9.3-4.9-16.5C518.5,273.3,515.9,276.3,512.9,279z M523.1,242.4c-0.2-1.7-0.7-3.2-1.6-4.5c-0.9-1.2-2.2-1.7-4-1.5
		c-3,1.5-5.4,4.5-7.1,9c-1.7,4.5-2.7,9.2-3,14c-0.2,4.8,0.2,7.7,1.6,8.7c1.4,1,3.5-0.7,6.3-5.2c2.9-4.5,5.3-9.9,7.4-16.2
		C523.1,245.6,523.2,244.2,523.1,242.4z"/>
	<path id="XMLID_896_" class="st1" d="M552.9,260.7c3.1-2.4,6.2-3.4,9.5-3c3.3,0.4,5.6,2.2,7,5.3c0.2,0.9,0.3,1.5,0.1,2.1
		c-0.1,0.5-0.3,1-0.7,1.3c-0.3,0.3-0.7,0.5-1.1,0.7c-0.4,0.1-0.7,0.2-1,0.3c-0.3,0-0.4,0-0.4,0c-0.3-1.2-0.8-2.4-1.5-3.6
		c-0.8-1.2-1.6-1.8-2.5-1.8c-1.9,3.4-3,7.2-3.3,11.4s0.4,7.3,2.2,9.5c0.8,0.1,1.5-0.1,2.1-0.6c0.6-0.5,1.2-1,1.7-1.7
		c0.7-0.9,1.4-1.4,2.1-1.9c0.7-0.4,1.5-0.2,2.5,0.6c0.1,0.1,0.2,0.2,0.2,0.3c0,0.1,0,0.3-0.1,0.4c-0.1,0.2-0.3,0.5-0.4,0.9
		c-2.3,4-5.3,6-8.8,6.3c-3.6,0.2-6.7-1-9.4-3.6c-2.7-2.6-3.9-6.3-3.7-10.9C547.9,267.1,549.8,263.1,552.9,260.7z"/>
	<path id="XMLID_16_" class="st1" d="M577.1,260.7c3.1-2.4,6.2-3.4,9.5-3c3.3,0.4,5.6,2.2,7,5.3c0.2,0.9,0.3,1.5,0.1,2.1
		c-0.1,0.5-0.3,1-0.7,1.3c-0.3,0.3-0.7,0.5-1.1,0.7c-0.4,0.1-0.7,0.2-1,0.3c-0.3,0-0.4,0-0.4,0c-0.3-1.2-0.8-2.4-1.5-3.6
		c-0.8-1.2-1.6-1.8-2.5-1.8c-1.9,3.4-3,7.2-3.3,11.4c-0.3,4.1,0.4,7.3,2.2,9.5c0.8,0.1,1.5-0.1,2.1-0.6c0.6-0.5,1.2-1,1.7-1.7
		c0.7-0.9,1.4-1.4,2.1-1.9c0.7-0.4,1.5-0.2,2.5,0.6c0.1,0.1,0.2,0.2,0.2,0.3c0,0.1,0,0.3-0.1,0.4c-0.1,0.2-0.3,0.5-0.4,0.9
		c-2.3,4-5.3,6-8.8,6.3c-3.6,0.2-6.7-1-9.4-3.6c-2.7-2.6-3.9-6.3-3.7-10.9C572.2,267.1,574.1,263.1,577.1,260.7z"/>
</g>
</svg>
