<?xml version="1.0" encoding="utf-8"?>
<!-- Generator: Adobe Illustrator 19.0.0, SVG Export Plug-In . SVG Version: 6.00 Build 0)  -->
<svg version="1.1" id="Layer_1" xmlns="http://www.w3.org/2000/svg" xmlns:xlink="http://www.w3.org/1999/xlink" x="0px" y="0px"
	 viewBox="0 0 595.3 595.3" style="enable-background:new 0 0 595.3 595.3;" xml:space="preserve">
<style type="text/css">
	.st0{fill:#FF6161;}
</style>
<g id="XMLID_23_">
	<path id="XMLID_35_" class="st0" d="M112.8,341c-7,6.3-15.8,9.2-26.1,8.5c-9.3-1-17.1-6.1-23.1-15.3c-6.1-9.2-8.9-22.8-8.3-40.6
		c1-14.9,5.5-28.8,13.6-41.6c8-12.7,18.8-21.3,32.4-25.7c13.6-4.2,29.2-1,46.9,9.8c8.3-8.9,19-11.2,32.1-7c2.6,2,4.1,7.2,4.4,15.3
		c0.1,8-0.3,20.6-1.3,37.8c-1,17.2-0.4,36.1,1.8,56.5c0.1,5.1,0.6,9.9,1.3,14.5c0.7,4.1,1.2,7.2,1.3,9.1c0.1,2-0.1,3.7-0.7,4.7
		c-0.7,1-1.9,2.2-3.5,3.2c-2.2,1.3-5.7,2.2-10.5,2.5c-4.8,0.3-9.1,0-12.6-1c-3.1-1-6.4-2.9-9.8-5.4c-3.4-2.5-6-5.1-7.7-7.7
		c-5.7-8.9-9.5-21.9-11.5-38.8C125.9,327.6,119.8,334.8,112.8,341z M136.7,255c-0.4-4.1-1.8-7.6-3.8-10.7c-2.2-2.9-5.3-4.1-9.3-3.5
		c-7.2,3.5-12.7,10.7-16.6,21.3c-4.1,10.7-6.4,21.6-7.2,33c-0.6,11.4,0.6,18.3,3.8,20.6c3.4,2.3,8.3-1.8,14.9-12.3
		c6.7-10.5,12.6-23.2,17.4-38.3C136.9,262.5,137,259.1,136.7,255z"/>
	<path id="XMLID_33_" class="st0" d="M237.5,354.7c0.2,4.9,0.5,10.1-5.3,11.7c-4.3,1.2-9.8,0-13.7-2.1c-7.2-4-10.6-12.4-12.5-20
		c-4.1-16.4-2.3-33.9-1.3-50.5c0.5-8,1-16,1.1-24.1c0.1-7.4-1.2-14.9-0.2-22.3c0.4-3.3,2.2-5.5,4.5-7.9c1.9-2,10.6-10.7,13.1-5.5
		c0.5,1.1,0.4,2.4,0.3,3.7c-0.5,4.2,0.1,8.7,0.6,12.9c0.1,0.6,0.1,1.2,0.4,1.7c0.3,0.5,1,0.8,1.5,0.6c0.3-0.1,0.5-0.4,0.7-0.7
		c1.3-2.2,0.8-5.2,2.2-7.3c0.3-0.4,0.8-0.7,1.3-0.5c0.2,0.1,0.4,0.3,0.6,0.5c6.7,8.3,5.7,23.7,5.8,33.7c0.2,13.4-0.1,26.9-0.2,40.3
		C236.3,330.8,237.1,342.7,237.5,354.7z"/>
	<path id="XMLID_31_" class="st0" d="M281.3,354.7c0.2,4.9,0.5,10.1-5.3,11.7c-4.3,1.2-9.8,0-13.7-2.1c-7.2-4-10.6-12.4-12.5-20
		c-4.1-16.4-2.3-33.9-1.3-50.5c0.5-8,1-16,1.1-24.1c0.1-7.4-1.2-14.9-0.2-22.3c0.4-3.3,2.2-5.5,4.5-7.9c1.9-2,10.6-10.7,13.1-5.5
		c0.5,1.1,0.4,2.4,0.3,3.7c-0.5,4.2,0.1,8.7,0.6,12.9c0.1,0.6,0.1,1.2,0.4,1.7c0.3,0.5,1,0.8,1.5,0.6c0.3-0.1,0.5-0.4,0.7-0.7
		c1.3-2.2,0.8-5.2,2.2-7.3c0.3-0.4,0.8-0.7,1.3-0.5c0.2,0.1,0.4,0.3,0.6,0.5c6.7,8.3,5.7,23.7,5.8,33.7c0.2,13.4-0.1,26.9-0.2,40.3
		C280.1,330.8,280.8,342.7,281.3,354.7z"/>
	<path id="XMLID_28_" class="st0" d="M351.1,341c-7,6.3-15.8,9.2-26.1,8.5c-9.3-1-17.1-6.1-23.1-15.3c-6.1-9.2-8.9-22.8-8.3-40.6
		c1-14.9,5.5-28.8,13.6-41.6c8-12.7,18.8-21.3,32.4-25.7c13.6-4.2,29.2-1,46.9,9.8c8.3-8.9,19-11.2,32.1-7c2.6,2,4.1,7.2,4.4,15.3
		c0.1,8-0.3,20.6-1.3,37.8c-1,17.2-0.4,36.1,1.8,56.5c0.1,5.1,0.6,9.9,1.3,14.5c0.7,4.1,1.2,7.2,1.3,9.1c0.1,2-0.1,3.7-0.7,4.7
		c-0.7,1-1.9,2.2-3.5,3.2c-2.2,1.3-5.7,2.2-10.5,2.5c-4.8,0.3-9.1,0-12.6-1c-3.1-1-6.4-2.9-9.8-5.4c-3.4-2.5-6-5.1-7.7-7.7
		c-5.7-8.9-9.5-21.9-11.5-38.8C364.2,327.6,358.1,334.8,351.1,341z M375,255c-0.4-4.1-1.8-7.6-3.8-10.7c-2.2-2.9-5.3-4.1-9.3-3.5
		c-7.2,3.5-12.7,10.7-16.6,21.3c-4.1,10.7-6.4,21.6-7.2,33c-0.6,11.4,0.6,18.3,3.8,20.6c3.4,2.3,8.3-1.8,14.9-12.3
		c6.7-10.5,12.6-23.2,17.4-38.3C375.2,262.5,375.3,259.1,375,255z"/>
	<path id="XMLID_26_" class="st0" d="M445.2,297.9c7.3-5.7,14.7-8.1,22.5-7.1c7.7,1,13.2,5.2,16.4,12.5c0.5,2,0.7,3.6,0.3,5
		c-0.3,1.3-0.8,2.3-1.6,3c-0.8,0.7-1.7,1.3-2.6,1.6c-1,0.3-1.7,0.5-2.4,0.6c-0.7,0-1,0.1-1,0.1c-0.7-2.8-1.9-5.6-3.6-8.5
		c-1.8-2.9-3.7-4.3-5.9-4.3c-4.5,8.1-7,17.1-7.7,26.8c-0.7,9.7,1,17.1,5.2,22.3c1.9,0.2,3.5-0.2,5-1.4c1.4-1.1,2.8-2.4,4.1-3.9
		c1.6-2,3.3-3.4,5-4.4c1.7-0.9,3.6-0.4,5.8,1.4c0.2,0.2,0.4,0.4,0.4,0.7c0.1,0.2,0,0.6-0.2,1c-0.2,0.5-0.6,1.2-1,2.2
		c-5.5,9.4-12.4,14.3-20.8,14.8c-8.4,0.5-15.8-2.3-22.1-8.5c-6.4-6.2-9.3-14.8-8.7-25.7C433.6,313,438,303.6,445.2,297.9z"/>
	<path id="XMLID_24_" class="st0" d="M502.4,297.9c7.3-5.7,14.7-8.1,22.5-7.1c7.7,1,13.2,5.2,16.4,12.5c0.5,2,0.7,3.6,0.3,5
		c-0.3,1.3-0.8,2.3-1.6,3c-0.8,0.7-1.7,1.3-2.6,1.6c-1,0.3-1.7,0.5-2.4,0.6c-0.7,0-1,0.1-1,0.1c-0.7-2.8-1.9-5.6-3.6-8.5
		c-1.8-2.9-3.7-4.3-5.9-4.3c-4.5,8.1-7,17.1-7.7,26.8c-0.7,9.7,1,17.1,5.2,22.3c1.9,0.2,3.5-0.2,5-1.4c1.4-1.1,2.8-2.4,4.1-3.9
		c1.6-2,3.3-3.4,5-4.4c1.7-0.9,3.6-0.4,5.8,1.4c0.2,0.2,0.4,0.4,0.4,0.7c0.1,0.2,0,0.6-0.2,1c-0.2,0.5-0.6,1.2-1,2.2
		c-5.5,9.4-12.4,14.3-20.8,14.8c-8.4,0.5-15.8-2.3-22.1-8.5c-6.4-6.2-9.3-14.8-8.7-25.7C490.8,313,495.2,303.6,502.4,297.9z"/>
</g>
</svg>
