<?xml version="1.0" standalone="no"?>
<!DOCTYPE svg PUBLIC "-//W3C//DTD SVG 20010904//EN"
 "http://www.w3.org/TR/2001/REC-SVG-20010904/DTD/svg10.dtd">
<svg version="1.0" xmlns="http://www.w3.org/2000/svg"
 width="700.000000pt" height="700.000000pt" viewBox="0 0 700.000000 700.000000"
 preserveAspectRatio="xMidYMid meet">
<metadata>
Created by potrace 1.14, written by Peter Selinger 2001-2017
</metadata>
<g transform="translate(0.000000,700.000000) scale(0.100000,-0.100000)"
fill="#000000" stroke="none">
<path d="M1219 4524 c-408 -94 -667 -611 -554 -1105 18 -82 69 -178 123 -236
80 -85 152 -116 267 -115 151 1 259 71 422 273 l58 72 6 -44 c15 -98 20 -126
35 -179 32 -115 76 -210 121 -261 l45 -50 -27 -41 c-68 -103 -124 -222 -110
-236 11 -12 57 11 65 33 5 13 18 30 30 37 11 7 20 16 20 21 0 4 -5 5 -12 1
-12 -8 -7 0 57 84 32 42 44 52 60 47 76 -25 118 -33 163 -31 49 1 51 0 45 -21
-3 -13 0 -29 5 -36 8 -10 6 -22 -8 -45 -18 -29 -48 -47 -108 -66 -39 -13 -24
13 21 35 91 46 102 79 32 99 -43 12 -47 11 -71 -11 -14 -13 -41 -47 -60 -76
-32 -49 -54 -72 -54 -58 0 3 4 11 10 18 71 87 71 88 33 103 -29 10 -83 -2 -83
-18 0 -5 -13 -27 -30 -50 -17 -22 -30 -52 -30 -65 0 -21 4 -23 49 -23 28 0 52
4 55 9 4 5 22 5 45 -1 34 -9 47 -7 95 15 45 21 54 23 49 9 -6 -15 -4 -15 14 1
11 9 24 17 30 17 15 0 45 48 38 60 -3 6 1 10 9 10 9 0 16 8 17 18 0 9 3 12 5
6 3 -6 -11 -37 -31 -69 -45 -76 -45 -98 -1 -112 34 -10 34 -10 50 31 9 23 32
65 51 94 19 30 35 58 35 62 0 9 -56 23 -75 20 -47 -10 -38 17 26 77 47 44 48
45 44 98 -2 30 -6 58 -9 63 -3 4 -8 49 -11 98 -4 49 -9 100 -11 114 -18 115
-21 357 -13 950 4 231 2 258 -14 292 -10 20 -26 39 -34 43 -57 21 -179 24
-236 6 -20 -7 -59 -29 -87 -50 l-49 -37 -96 47 c-154 75 -296 101 -416 73z
m307 -198 c38 -25 67 -99 69 -174 1 -59 -29 -174 -64 -247 -6 -11 -20 -45 -33
-75 -12 -30 -46 -98 -76 -150 -116 -205 -183 -259 -236 -187 -17 23 -20 42
-20 140 -1 166 12 252 61 402 38 117 78 191 134 246 69 70 109 81 165 45z
m458 -1609 c-2 -7 -14 -18 -25 -25 -21 -13 -21 -13 -3 12 20 27 37 35 28 13z"/>
<path d="M4045 4529 c-275 -39 -520 -325 -590 -689 -21 -109 -13 -331 15 -430
64 -222 203 -344 390 -343 142 1 255 72 402 255 l73 89 11 -63 c20 -109 24
-131 45 -203 12 -38 37 -101 58 -140 32 -60 35 -73 25 -93 -6 -13 -14 -23 -18
-22 -13 3 -71 -13 -83 -22 -20 -16 16 -49 45 -41 23 5 24 5 9 -23 -34 -69 -78
-225 -75 -266 3 -43 22 -57 24 -18 2 36 26 110 40 121 8 6 14 18 14 27 0 18
77 170 95 189 19 18 27 17 82 -17 57 -35 108 -47 185 -46 l56 1 -18 -35 c-36
-72 -57 -165 -39 -176 16 -10 49 7 49 26 0 10 9 28 19 41 l19 24 -5 -46 c-3
-28 -1 -49 5 -53 13 -8 57 38 73 76 6 15 16 28 21 28 5 0 7 4 4 9 -5 7 15 21
29 21 3 0 -4 -19 -14 -43 -10 -23 -22 -58 -26 -76 -6 -29 -5 -33 9 -28 8 3 18
2 21 -3 11 -17 34 2 41 33 4 20 9 26 12 17 12 -37 48 -39 120 -5 45 21 52 22
50 8 -2 -11 7 -21 25 -27 21 -8 38 -5 80 13 28 12 57 25 63 27 9 4 9 -8 3 -42
-9 -48 -3 -94 12 -94 5 0 10 11 10 25 1 14 3 28 4 33 1 4 6 22 10 39 4 18 14
38 21 44 8 6 14 18 14 26 0 19 77 172 98 196 11 12 30 17 69 17 29 0 53 4 53
9 0 11 -25 21 -52 21 -19 0 -19 1 -4 25 20 30 20 35 1 35 -8 0 -25 5 -38 11
l-24 11 42 39 c23 21 53 60 66 85 24 44 24 45 5 60 -33 24 -54 16 -121 -46
-85 -79 -98 -79 -137 5 -19 43 -23 66 -22 160 0 119 16 198 61 297 14 32 30
58 36 58 19 0 73 -67 86 -108 16 -47 19 -48 67 -26 22 10 35 24 36 38 0 11 2
28 3 36 5 45 -71 135 -135 161 -52 21 -166 18 -220 -5 -158 -68 -246 -207
-255 -401 -9 -170 67 -307 204 -368 61 -27 163 -33 218 -14 l43 15 -18 -30
c-22 -38 -28 -42 -79 -57 -24 -6 -43 -18 -43 -25 0 -22 24 -36 50 -29 20 5 22
4 15 -13 -5 -10 -18 -47 -29 -81 -25 -73 -25 -73 -83 -95 -74 -28 -73 -2 2 31
43 19 71 53 60 71 -3 5 -24 15 -46 21 -38 12 -41 11 -75 -22 -20 -19 -42 -46
-51 -60 -9 -14 -32 -32 -52 -39 -20 -7 -42 -15 -49 -18 -7 -2 -10 1 -7 11 4 8
25 23 47 33 80 36 92 74 29 92 -56 17 -57 17 -102 -40 -40 -51 -41 -52 -35
-21 7 29 4 34 -18 44 -20 9 -32 9 -51 1 -16 -7 -25 -8 -25 -2 0 6 -11 15 -25
22 -21 9 -27 8 -44 -13 -26 -31 -26 -19 -2 29 11 21 31 43 45 50 44 20 49 52
32 187 -14 114 -18 153 -33 360 -9 120 -9 443 0 632 15 284 9 394 -23 453 -15
27 -76 44 -160 44 -85 -1 -149 -23 -201 -72 l-32 -30 -101 49 c-151 73 -267
96 -391 78z m276 -202 c52 -34 73 -87 73 -183 1 -44 -4 -92 -10 -105 -7 -13
-27 -64 -45 -114 -42 -113 -116 -258 -181 -353 -83 -119 -133 -140 -172 -72
-18 30 -21 51 -20 155 2 286 105 572 237 663 50 35 76 37 118 9z m894 -1616
c-3 -6 -16 -16 -28 -22 -21 -11 -21 -10 2 15 23 25 40 29 26 7z m160 -1 c-10
-11 -22 -20 -26 -20 -5 0 -1 9 8 20 10 11 22 20 27 20 5 0 1 -9 -9 -20z"/>
<path d="M2513 4406 c-33 -24 -71 -61 -84 -82 -23 -38 -24 -44 -26 -289 -1
-137 -4 -272 -7 -300 -14 -121 -15 -451 -1 -530 34 -191 100 -297 205 -329 67
-20 130 -13 156 17 l21 25 -3 528 c-5 701 -6 714 -46 806 -26 61 -46 60 -65
-4 -9 -31 -18 -46 -26 -42 -14 5 -19 44 -21 153 -1 53 -5 66 -22 78 -19 12
-26 10 -81 -31z"/>
<path d="M3065 4433 c-38 -19 -100 -79 -126 -119 -21 -34 -21 -46 -20 -324 0
-85 -1 -173 -3 -195 -37 -389 -21 -629 51 -781 l26 -55 -20 -37 c-50 -89 -163
-399 -163 -445 0 -13 6 -32 14 -43 17 -22 17 -21 35 67 7 30 19 66 29 80 9 13
17 31 17 39 0 8 31 77 69 152 l69 137 38 -19 c49 -26 103 -32 152 -19 53 14
65 46 60 163 -2 50 -5 312 -7 581 -3 510 -7 568 -47 648 -26 49 -47 48 -55 -3
-7 -43 -30 -72 -39 -49 -10 27 -14 65 -14 141 -1 90 -15 107 -66 81z"/>
<path d="M6029 3744 c-150 -51 -241 -162 -273 -334 -29 -151 1 -276 88 -363
71 -72 132 -100 224 -103 82 -3 121 7 175 46 48 35 117 127 117 156 0 20 -22
33 -57 34 -6 0 -38 -25 -69 -55 -74 -70 -91 -76 -120 -40 -70 88 -65 298 13
492 14 34 27 63 29 63 26 0 59 -33 86 -87 17 -35 35 -63 40 -63 5 0 22 7 37
15 88 45 12 204 -115 241 -59 17 -123 16 -175 -2z"/>
<path d="M2886 2957 c-24 -40 -100 -215 -122 -279 -8 -27 -20 -48 -25 -48 -5
0 -3 13 6 30 15 29 15 30 -10 36 -18 4 -33 -1 -56 -20 -41 -35 -48 -26 -12 14
22 25 33 30 54 26 17 -3 32 0 39 9 14 17 5 22 -56 31 -27 3 -52 11 -56 17 -11
19 -128 -125 -128 -159 0 -21 62 -24 90 -5 50 34 50 34 35 -10 -9 -23 -13 -45
-10 -47 14 -14 52 -8 67 11 24 31 28 19 14 -38 -13 -48 -5 -105 13 -105 4 0
12 26 19 58 6 31 21 75 32 97 11 22 20 44 20 50 0 13 144 301 161 321 14 17 4
29 -31 37 -21 5 -29 0 -44 -26z"/>
<path d="M1352 2893 c-73 -131 -98 -182 -115 -241 -19 -63 -8 -106 32 -126 25
-13 27 -12 55 25 17 21 31 49 33 61 2 21 1 21 -23 -7 -20 -25 -17 -13 19 65
24 52 62 127 84 167 l41 71 -34 36 c-19 20 -36 36 -38 36 -3 0 -27 -39 -54
-87z"/>
<path d="M1630 2894 c-56 -133 -170 -327 -185 -313 -9 10 24 116 51 165 24 42
32 104 15 104 -14 0 -78 -75 -86 -101 -4 -13 -21 -43 -36 -66 -29 -41 -36 -59
-21 -50 4 3 6 -18 4 -46 -3 -48 -1 -53 24 -64 23 -11 31 -10 54 7 32 23 99
109 129 165 12 22 21 35 21 30 0 -12 43 64 70 123 25 54 25 55 0 77 -19 17
-20 17 -40 -31z"/>
<path d="M4200 2744 c-11 -26 -20 -49 -20 -51 0 -17 -45 -63 -71 -72 -31 -11
-31 -10 -17 12 62 97 62 97 42 112 -23 17 -40 4 -84 -65 -17 -26 -40 -50 -50
-53 -11 -3 -20 -4 -20 -2 0 12 25 55 32 55 4 0 7 3 7 8 -3 18 2 33 9 28 13 -8
11 28 -2 36 -24 16 -47 6 -70 -30 -13 -21 -36 -46 -50 -56 -26 -17 -27 -17
-20 8 10 42 -10 65 -59 64 -33 0 -49 -7 -77 -32 -19 -18 -51 -42 -71 -53 -20
-11 -49 -29 -64 -39 l-29 -19 19 33 c11 18 33 45 50 60 16 15 23 19 16 9 -8
-9 -11 -21 -7 -24 9 -10 58 21 75 46 12 19 11 22 -14 31 -39 15 -97 4 -119
-23 -10 -12 -30 -35 -43 -52 -14 -16 -22 -24 -18 -17 10 19 -3 15 -56 -18 -27
-16 -49 -26 -49 -21 0 12 63 90 73 90 4 1 3 -8 -3 -19 -17 -32 12 -25 51 11
l33 31 -22 12 c-34 18 -122 7 -122 -15 0 -6 -5 -7 -12 -3 -6 4 -8 3 -5 -3 4
-6 -13 -33 -38 -60 -42 -44 -45 -45 -30 -15 9 18 13 37 10 42 -8 13 -55 13
-55 0 0 -5 -14 -17 -31 -26 l-31 -16 27 37 c25 31 33 36 64 33 26 -2 36 1 36
12 0 16 -33 27 -83 29 -19 1 -31 5 -27 11 3 6 2 10 -2 10 -24 0 -138 -153
-128 -170 3 -4 19 -10 36 -14 24 -4 38 0 65 20 37 29 42 22 20 -31 -8 -19 -12
-35 -8 -36 4 0 16 -2 27 -4 12 -2 31 7 46 21 22 21 27 23 32 10 12 -30 65 -19
114 24 25 22 50 37 55 34 6 -4 6 -10 -1 -17 -16 -16 -13 -44 5 -51 27 -10 73
-7 81 7 4 7 28 28 52 47 34 26 41 29 32 13 -20 -38 -14 -72 14 -79 13 -3 23
-10 22 -14 -2 -9 2 -10 33 -10 18 0 44 23 83 72 6 9 22 19 35 23 19 5 22 3 20
-16 -3 -19 2 -23 30 -26 19 -2 42 2 52 7 13 7 20 6 24 -6 8 -22 65 -13 106 16
l32 23 -6 -21 c-10 -30 -1 -40 29 -34 18 3 31 17 46 51 20 45 65 101 81 101
11 0 -18 -67 -47 -111 -32 -45 -31 -49 6 -44 55 7 104 73 122 163 6 29 4 34
-19 43 -22 8 -32 5 -61 -17 -32 -24 -34 -25 -24 -5 10 19 9 22 -14 31 -40 15
-43 14 -65 -36z m-405 -144 c-36 -53 -46 -43 -11 11 15 22 30 38 33 35 3 -3
-7 -24 -22 -46z"/>
<path d="M4533 2773 c-32 -6 -42 -24 -47 -82 -3 -42 -11 -59 -41 -92 -28 -32
-36 -47 -33 -72 3 -37 17 -38 83 -7 49 23 63 46 72 108 6 48 24 71 56 72 21 0
23 20 1 20 -8 0 -25 -5 -37 -11 -18 -9 -16 -5 8 20 25 27 27 33 15 41 -15 10
-38 11 -77 3z m-66 -203 c-6 -16 -18 -32 -25 -35 -12 -5 -12 -2 0 17 8 13 18
29 22 36 13 22 15 13 3 -18z"/>
<path d="M2218 2728 c-39 -48 -68 -100 -68 -122 0 -26 54 -29 112 -5 51 22 92
48 85 56 -2 2 -19 -3 -38 -11 -19 -7 -44 -17 -56 -20 -39 -12 -16 21 26 38 79
31 96 78 34 95 -55 16 -57 15 -95 -31z m102 -14 c-8 -8 -23 -20 -34 -26 -19
-10 -18 -8 3 16 26 27 53 37 31 10z"/>
<path d="M5529 2629 c-15 -15 -19 -28 -14 -47 8 -32 21 -42 57 -42 46 0 63 55
28 90 -26 26 -45 25 -71 -1z"/>
</g>
</svg>
