<?xml version="1.0" encoding="utf-8"?>
<!-- Generator: Adobe Illustrator 19.0.0, SVG Export Plug-In . SVG Version: 6.00 Build 0)  -->
<svg version="1.1" id="Layer_1" xmlns="http://www.w3.org/2000/svg" xmlns:xlink="http://www.w3.org/1999/xlink" x="0px" y="0px"
	 viewBox="-478 248.9 24 24" style="enable-background:new -478 248.9 24 24;" xml:space="preserve">
<style type="text/css">
	.st0{fill:#1769FF;fill-opacity:0;}
	.st1{fill:#1769FF;}
	.st2{fill:#5FA0FF;}
</style>
<g>
	<g>
		<path class="st0" d="M-467.5,260.6c0.7-0.1,1.1-0.7,1.1-1.4c0-1-0.8-1.6-1.9-1.6h-2.7v6.5h2.7c1.3,0,2.3-0.7,2.3-1.8v-0.1
			C-466,261.3-466.6,260.6-467.5,260.6z M-469.7,258.5h1.1c0.6,0,1,0.3,1,0.9c0,0.6-0.4,0.9-1.3,0.9h-0.8V258.5z M-468.7,263.1h-1
			v-1.9h1.2c0.8,0,1.2,0.3,1.2,0.9S-467.7,263.1-468.7,263.1z"/>
		<rect x="-464.8" y="258.1" class="st0" width="3" height="0.5"/>
		<path class="st0" d="M-463.3,259.2c-0.1,0-0.2,0-0.3,0c-1.2,0.1-2,1.1-2,2.3v0.4c0,0.1,0,0.3,0,0.4c0.1,1.2,1.2,2,2.4,1.9
			c1,0.1,2-0.6,2.2-1.5h-1.2c-0.1,0.4-0.6,0.7-1,0.6c0,0-0.1,0-0.1,0c-0.6-0.1-1-0.6-0.9-1.2v-0.1h3.3v-0.5c0-0.1,0-0.2,0-0.3
			C-461.1,260-462.1,259.1-463.3,259.2z M-464.2,261.1L-464.2,261.1c0-0.7,0.5-1.1,1-1.1h0.2c0.5,0,1,0.5,0.9,1.1H-464.2z"/>
	</g>
</g>
<polygon class="st1" points="-466,248.9 -466,250.8 -455.9,250.8 -455.9,270.9 -466,270.9 -466,272.9 -454,272.9 -454,248.9 "/>
<polygon class="st2" points="-476.1,270.9 -476.1,250.8 -466,250.8 -466,248.9 -478,248.9 -478,272.9 -466,272.9 -466,270.9 "/>
<g>
	<path class="st1" d="M-467.9,260.5c0.9-0.2,1.5-1,1.5-1.9c0-1.3-1-2.1-2.5-2.1h-3.5v8.5h3.5c1.7,0,3-0.9,3-2.4v-0.1
		C-466,261.4-466.8,260.5-467.9,260.5z M-470.9,257.8h1.5c0.8,0,1.2,0.4,1.2,1.1c0,0.7-0.5,1.2-1.6,1.2h-1.1V257.8z M-469.6,263.8
		h-1.3v-2.5h1.6c1,0,1.6,0.4,1.6,1.2C-467.7,263.4-468.3,263.8-469.6,263.8z"/>
	<rect x="-464.4" y="257.2" class="st1" width="3.9" height="0.7"/>
	<path class="st1" d="M-462.4,258.6c-0.1,0-0.3,0-0.4,0c-1.5,0.1-2.7,1.4-2.6,3v0.6c0,0.2,0,0.3,0,0.5c0.2,1.6,1.6,2.7,3.1,2.5
		c1.3,0.1,2.6-0.7,2.9-2h-1.6c-0.2,0.6-0.7,0.9-1.3,0.8c-0.1,0-0.1,0-0.2,0c-0.8-0.1-1.3-0.8-1.2-1.6v-0.2h4.3v-0.6
		c0-0.1,0-0.2,0-0.4C-459.5,259.7-460.8,258.5-462.4,258.6z M-463.7,261.2v-0.1c0-0.7,0.6-1.3,1.3-1.3h0.2c0.7,0.1,1.2,0.7,1.2,1.4
		H-463.7z"/>
</g>
</svg>
