<?xml version="1.0" encoding="utf-8"?>
<!-- Generator: Adobe Illustrator 19.0.0, SVG Export Plug-In . SVG Version: 6.00 Build 0)  -->
<svg version="1.1" id="Layer_1" xmlns="http://www.w3.org/2000/svg" xmlns:xlink="http://www.w3.org/1999/xlink" x="0px" y="0px"
	 viewBox="-478 248.9 24 24" style="enable-background:new -478 248.9 24 24;" xml:space="preserve">
<style type="text/css">
	.st0{fill:#2D2D2D;}
</style>
<title>dev.to icon</title>
<polygon points="-466,248.9 -466,250.8 -455.9,250.8 -455.9,270.9 -466,270.9 -466,272.9 -454,272.9 -454,248.9 "/>
<polygon class="st0" points="-476.1,270.9 -476.1,250.8 -466,250.8 -466,248.9 -478,248.9 -478,272.9 -466,272.9 -466,270.9 "/>
<g>
	<path d="M-469,260.9c0-2-0.1-2.1-0.3-2.6c-0.4-0.7-0.9-0.9-2.6-0.9h-1.4v7.5h1.3c1.5,0,2.1-0.2,2.5-0.8
		C-469,263.6-468.9,263.1-469,260.9z M-470.5,263.3c-0.2,0.2-0.4,0.3-0.8,0.3l-0.6,0l0-2.5l0-2.4h0.6c0.4,0,0.7,0.1,0.8,0.2
		c0.3,0.2,0.3,0.3,0.3,2.2C-470.3,262.9-470.3,263-470.5,263.3z"/>
	<path d="M-457.9,257.5c0,0-0.3-0.1-0.7,0l-0.7,0l-0.7,2.5c-0.4,1.6-0.7,2.5-0.7,2.3c-0.1-0.3-1.3-4.8-1.3-4.8c0,0-0.3-0.1-0.8-0.1
		h-0.8l0.5,1.7l0.9,3.4c0.4,1.5,0.5,1.8,0.8,2.1c0.2,0.2,0.5,0.4,0.7,0.4c0.4,0,0.8-0.4,1-0.8h0
		C-459.5,263.8-457.9,257.6-457.9,257.5z M-464.3,258.7v-1.3h-1.6c-1.6,0-1.7,0-1.9,0.3c-0.2,0.3-0.3,0.5-0.3,3.5v3.2l0.3,0.3
		c0.3,0.3,0.3,0.3,1.9,0.3h1.6v-1.3l-1.2,0l-1.2,0v-1.8l0.8,0l0.7,0v-1.3h-1.5v-1.8H-464.3z"/>
</g>
</svg>
