<?xml version="1.0" encoding="utf-8"?>
<!-- Generator: Adobe Illustrator 19.0.0, SVG Export Plug-In . SVG Version: 6.00 Build 0)  -->
<svg version="1.1" id="Layer_1" xmlns="http://www.w3.org/2000/svg" xmlns:xlink="http://www.w3.org/1999/xlink" x="0px" y="0px"
	 viewBox="-480 250.9 20 20" style="enable-background:new -480 250.9 20 20;" xml:space="preserve">
<style type="text/css">
	.st0{fill:#EA4C89;}
	.st1{fill:#FF78AF;}
</style>
<polygon class="st0" points="-470,250.9 -470,252.5 -461.6,252.5 -461.6,269.2 -470,269.2 -470,270.9 -460,270.9 -460,250.9 "/>
<polygon class="st1" points="-478.4,269.2 -478.4,252.5 -470,252.5 -470,250.9 -480,250.9 -480,270.9 -470,270.9 -470,269.2 "/>
<path class="st0" d="M-470,255.4c-3,0-5.5,2.5-5.5,5.5s2.5,5.5,5.5,5.5c3,0,5.5-2.5,5.5-5.5S-467,255.4-470,255.4z M-466.4,258
	c0.6,0.8,1,1.7,1,2.7c-0.7-0.1-1.4-0.2-2.1-0.2c-0.4,0-0.7,0-1,0.1l-0.1-0.2c-0.1-0.2-0.2-0.4-0.3-0.6
	C-467.4,259.1-466.6,258.2-466.4,258z M-467,257.4c-0.2,0.2-0.8,1-2.3,1.6c-0.5-0.9-1.1-1.8-1.7-2.6
	C-469.6,256.1-468.1,256.4-467,257.4z M-472,256.7c0.6,0.8,1.1,1.7,1.6,2.6c-1.9,0.5-3.6,0.5-4.1,0.5h0
	C-474.2,258.5-473.2,257.3-472,256.7z M-474.6,260.9L-474.6,260.9c0.4-0.1,2.5-0.1,4.7-0.7c0.1,0.2,0.2,0.4,0.3,0.7c0,0-0.1,0-0.1,0
	c-2.2,0.7-3.5,2.6-3.8,3C-474.2,263-474.6,262-474.6,260.9z M-472.8,264.5c0.2-0.3,1.1-1.9,3.6-2.8c0.4,1.1,0.7,2.3,1,3.4
	C-469.8,265.7-471.5,265.5-472.8,264.5z M-467.4,264.6c-0.1-0.4-0.3-1.7-0.9-3.2c0.3,0,0.6-0.1,0.9-0.1c0.6,0,1.3,0.1,1.9,0.3
	C-465.7,262.8-466.4,263.9-467.4,264.6z"/>
</svg>
