<?xml version="1.0" encoding="iso-8859-1"?>
<!-- Generator: Adobe Illustrator 19.0.0, SVG Export Plug-In . SVG Version: 6.00 Build 0)  -->
<svg version="1.1" id="Layer_1" xmlns="http://www.w3.org/2000/svg" xmlns:xlink="http://www.w3.org/1999/xlink" x="0px" y="0px"
	 viewBox="0 0 495 495" style="enable-background:new 0 0 495 495;" xml:space="preserve">
<g>
	<polygon style="fill:#E4187A;" points="247.5,0 247.5,40 455,40 455,455 247.5,455 247.5,495 495,495 495,0 	"/>
	<polygon style="fill:#EA348B;" points="40,455 40,40 247.5,40 247.5,0 0,0 0,495 247.5,495 247.5,455 	"/>
	<path style="fill:#EA348B;" d="M160.599,317.5c38.981,0,70.582-31.343,70.582-69.983c0-38.675-31.601-70.018-70.582-70.018
		C121.601,177.5,90,208.843,90,247.517C90,286.158,121.601,317.5,160.599,317.5z"/>
	<path style="fill:#EA348B;" d="M334.401,317.5c38.999,0,70.599-31.343,70.599-69.983c0-38.675-31.601-70.018-70.599-70.018
		c-38.981,0-70.582,31.343-70.582,70.018C263.819,286.158,295.419,317.5,334.401,317.5z"/>
</g>
<g>
</g>
<g>
</g>
<g>
</g>
<g>
</g>
<g>
</g>
<g>
</g>
<g>
</g>
<g>
</g>
<g>
</g>
<g>
</g>
<g>
</g>
<g>
</g>
<g>
</g>
<g>
</g>
<g>
</g>
</svg>
