<?xml version="1.0" encoding="utf-8"?>
<!-- Generator: Adobe Illustrator 19.0.0, SVG Export Plug-In . SVG Version: 6.00 Build 0)  -->
<svg version="1.1" id="Layer_1" xmlns="http://www.w3.org/2000/svg" xmlns:xlink="http://www.w3.org/1999/xlink" x="0px" y="0px"
	 viewBox="-480 250.9 20 20" style="enable-background:new -480 250.9 20 20;" xml:space="preserve">
<style type="text/css">
	.st0{fill:#353535;}
</style>
<polygon points="-470,250.9 -470,252.5 -461.6,252.5 -461.6,269.2 -470,269.2 -470,270.9 -460,270.9 -460,250.9 "/>
<polygon class="st0" points="-478.4,269.2 -478.4,252.5 -470,252.5 -470,250.9 -480,250.9 -480,270.9 -470,270.9 -470,269.2 "/>
<g>
	<path d="M-465.1,258.7c0.1-0.2,0.1-1.6-0.4-2.8c0,0-1.2,0.1-2.9,1.3c-0.4-0.1-1-0.2-1.6-0.2s-1.2,0.1-1.6,0.2
		c-1.8-1.2-2.9-1.3-2.9-1.3c-0.5,1.3-0.5,2.6-0.4,2.9c-0.6,0.6-1,1.4-1,2.5c0,4.6,3.8,4.7,4.8,4.7h2.2c1,0,4.8-0.1,4.8-4.7
		C-464.1,260.1-464.5,259.3-465.1,258.7z M-470,265.3L-470,265.3c-2.5,0-4.4-0.3-4.4-2.6c0-0.6,0.2-1.1,0.7-1.5
		c0.8-0.7,2.1-0.3,3.7-0.3h0c1.5,0,2.9-0.4,3.6,0.3c0.5,0.4,0.7,1,0.7,1.5C-465.7,265-467.6,265.3-470,265.3z"/>
	<path d="M-467.1,262.9c0,0.6-0.4,1.2-0.8,1.2c-0.5,0-0.8-0.5-0.8-1.2s0.4-1.2,0.8-1.2C-467.5,261.7-467.1,262.2-467.1,262.9z"/>
	<path d="M-471.2,262.9c0,0.6-0.4,1.2-0.8,1.2c-0.5,0-0.8-0.5-0.8-1.2s0.4-1.2,0.8-1.2C-471.6,261.7-471.2,262.2-471.2,262.9z"/>
</g>
</svg>
