<?xml version="1.0" encoding="iso-8859-1"?>
<!-- Generator: Adobe Illustrator 19.0.0, SVG Export Plug-In . SVG Version: 6.00 Build 0)  -->
<svg version="1.1" id="Layer_1" xmlns="http://www.w3.org/2000/svg" xmlns:xlink="http://www.w3.org/1999/xlink" x="0px" y="0px"
	 viewBox="0 0 396 396" style="enable-background:new 0 0 396 396;" xml:space="preserve">
<g>
	<g>
		<path style="fill:#957856;" d="M198,0v32h166v332H198v32h198V0H198z M198,0"/>
		<path style="fill:#A78966;" d="M32,364V32h166V0H0v396h198v-32H32z M32,364"/>
	</g>
	<g>
		<path style="fill:#A78966;" d="M260.424,72.016H135.577c-35.049,0-63.561,28.512-63.561,63.561v124.846
			c0,35.053,28.512,63.561,63.561,63.561h124.847c35.052,0,63.56-28.508,63.56-63.561V135.577
			C323.984,100.528,295.476,72.016,260.424,72.016z M296.566,260.423c0,19.929-16.214,36.143-36.142,36.143H135.577
			c-19.925,0-36.139-16.214-36.139-36.143V135.577c0-19.925,16.214-36.139,36.139-36.139h124.847
			c19.928,0,36.142,16.213,36.142,36.139V260.423z"/>
		<path style="fill:#A78966;" d="M264.982,146.525c-8.471,0-15.359-6.888-15.359-15.354c0-8.467,6.888-15.355,15.359-15.355
			c8.466,0,15.354,6.888,15.354,15.355C280.336,139.638,273.448,146.525,264.982,146.525L264.982,146.525z"/>
		<path style="fill:#A78966;" d="M197.998,133.106c-35.779,0-64.892,29.113-64.892,64.892c0,35.783,29.113,64.896,64.892,64.896
			c35.783,0,64.896-29.113,64.896-64.896C262.894,162.219,233.781,133.106,197.998,133.106z M197.998,235.477
			c-20.655,0-37.475-16.816-37.475-37.479c0-20.655,16.82-37.467,37.475-37.467c20.663,0,37.471,16.812,37.471,37.467
			C235.469,218.661,218.661,235.477,197.998,235.477z"/>
	</g>
</g>
<g>
</g>
<g>
</g>
<g>
</g>
<g>
</g>
<g>
</g>
<g>
</g>
<g>
</g>
<g>
</g>
<g>
</g>
<g>
</g>
<g>
</g>
<g>
</g>
<g>
</g>
<g>
</g>
<g>
</g>
</svg>
