<?xml version="1.0" encoding="utf-8"?>
<!-- Generator: Adobe Illustrator 19.0.0, SVG Export Plug-In . SVG Version: 6.00 Build 0)  -->
<svg version="1.1" id="Layer_1" xmlns="http://www.w3.org/2000/svg" xmlns:xlink="http://www.w3.org/1999/xlink" x="0px" y="0px"
	 viewBox="-480 250.9 20 20" style="enable-background:new -480 250.9 20 20;" xml:space="preserve">
<style type="text/css">
	.st0{fill:#E60023;}
	.st1{fill:#FF6666;}
</style>
<polygon class="st0" points="-470,250.9 -470,252.5 -461.6,252.5 -461.6,269.2 -470,269.2 -470,270.9 -460,270.9 -460,250.9 "/>
<polygon class="st1" points="-478.4,269.2 -478.4,252.5 -470,252.5 -470,250.9 -480,250.9 -480,270.9 -470,270.9 -470,269.2 "/>
<path class="st0" d="M-469.3,263.1c-0.6-0.1-0.9-0.4-1.4-0.7c-0.3,1.4-0.6,2.7-1.5,3.4c-0.3-2.1,0.4-3.7,0.8-5.4
	c-0.6-1,0.1-2.9,1.3-2.5c1.5,0.6-1.3,3.6,0.6,4c2,0.4,2.8-3.4,1.5-4.6c-1.8-1.8-5.1,0-4.7,2.5c0.1,0.6,0.7,0.8,0.3,1.7
	c-1.1-0.3-1.5-1.1-1.4-2.3c0.1-1.9,1.8-3.3,3.4-3.5c2.1-0.2,4.1,0.8,4.4,2.8C-465.8,260.9-467.1,263.3-469.3,263.1z"/>
</svg>
