<?xml version="1.0" encoding="utf-8"?>
<!-- Generator: Adobe Illustrator 19.0.0, SVG Export Plug-In . SVG Version: 6.00 Build 0)  -->
<svg version="1.1" id="Layer_1" xmlns="http://www.w3.org/2000/svg" xmlns:xlink="http://www.w3.org/1999/xlink" x="0px" y="0px"
	 viewBox="-478 248.9 24 24" style="enable-background:new -478 248.9 24 24;" xml:space="preserve">
<style type="text/css">
	.st0{fill:#5AADFF;}
	.st1{fill:#8FCCFF;}
</style>
<polygon class="st0" points="-466,248.9 -466,250.8 -455.9,250.8 -455.9,270.9 -466,270.9 -466,272.9 -454,272.9 -454,248.9 "/>
<polygon class="st1" points="-476.1,270.9 -476.1,250.8 -466,250.8 -466,248.9 -478,248.9 -478,272.9 -466,272.9 -466,270.9 "/>
<path class="st0" d="M-460.1,257.1l-2,9.3c-0.1,0.7-0.5,0.8-1.1,0.5l-3-2.2l-1.5,1.4c-0.1,0.2-0.4,0.3-0.6,0.3l0.2-3.1l5.6-5
	c0.2-0.2,0-0.3-0.4-0.1l-6.9,4.3l-3-0.9c-0.6-0.2-0.7-0.6,0.1-1l11.6-4.5C-460.4,256-459.9,256.3-460.1,257.1z"/>
</svg>
