<?xml version="1.0" encoding="iso-8859-1"?>
<!-- Generator: Adobe Illustrator 19.0.0, SVG Export Plug-In . SVG Version: 6.00 Build 0)  -->
<svg version="1.1" id="Layer_1" xmlns="http://www.w3.org/2000/svg" xmlns:xlink="http://www.w3.org/1999/xlink" x="0px" y="0px"
	 viewBox="0 0 495 495" style="enable-background:new 0 0 495 495;" xml:space="preserve">
<g>
	<polygon style="fill:#5AAAE7;" points="247.5,0 247.5,40 455,40 455,455 247.5,455 247.5,495 495,495 495,0 	"/>
	<polygon style="fill:#78B9EB;" points="40,455 40,40 247.5,40 247.5,0 0,0 0,495 247.5,495 247.5,455 	"/>
	<path style="fill:#78B9EB;" d="M149.753,280.964c12.162,16.477,26.132,31.049,44.184,41.356
		c20.441,11.683,42.451,15.209,65.659,14.134c10.847-0.52,14.108-3.347,14.607-14.154c0.336-7.403,1.192-14.786,4.835-21.435
		c3.582-6.527,9.018-7.76,15.285-3.699c3.123,2.048,5.752,4.616,8.239,7.362c6.109,6.669,12.024,13.573,18.352,20.023
		c7.958,8.101,17.394,12.875,29.235,11.902l45.875,0.02c7.383-0.499,11.224-9.553,6.985-17.817
		c-2.986-5.768-6.904-10.903-11.046-15.881c-9.375-11.265-20.421-20.859-30.865-31.049c-9.416-9.191-10.012-14.526-2.451-25.134
		c8.279-11.586,17.155-22.708,25.495-34.233c7.78-10.766,15.764-21.516,19.84-34.391c2.609-8.218,0.301-11.841-8.096-13.293
		c-1.452-0.239-2.965-0.239-4.438-0.239l-49.916-0.061c-6.15-0.097-9.533,2.588-11.703,8.04c-2.945,7.367-5.971,14.73-9.477,21.817
		c-7.917,16.121-16.778,31.701-29.194,44.877c-2.746,2.904-5.793,6.588-10.368,5.075c-5.711-2.089-7.403-11.52-7.306-14.704
		l-0.041-57.619c-1.111-8.218-2.945-11.902-11.122-13.497h-51.847c-6.904,0-10.389,2.69-14.093,7.006
		c-2.109,2.512-2.767,4.122,1.615,4.958c8.595,1.63,13.471,7.204,14.745,15.825c2.053,13.792,1.911,27.64,0.718,41.473
		c-0.336,4.04-1.034,8.06-2.629,11.841c-2.507,5.951-6.567,7.148-11.881,3.485c-4.794-3.302-8.177-7.958-11.504-12.636
		c-12.437-17.578-22.347-36.521-30.448-56.427c-2.329-5.752-6.369-9.232-12.458-9.334c-14.969-0.239-29.953-0.275-44.943,0.02
		c-8.993,0.158-11.683,4.54-7.999,12.717C107.897,213.573,126.051,248.84,149.753,280.964z"/>
</g>
<g>
</g>
<g>
</g>
<g>
</g>
<g>
</g>
<g>
</g>
<g>
</g>
<g>
</g>
<g>
</g>
<g>
</g>
<g>
</g>
<g>
</g>
<g>
</g>
<g>
</g>
<g>
</g>
<g>
</g>
</svg>
