<?xml version="1.0" encoding="iso-8859-1"?>
<!-- Generator: Adobe Illustrator 19.0.0, SVG Export Plug-In . SVG Version: 6.00 Build 0)  -->
<svg version="1.1" id="Layer_1" xmlns="http://www.w3.org/2000/svg" xmlns:xlink="http://www.w3.org/1999/xlink" x="0px" y="0px"
	 viewBox="0 0 495 495" style="enable-background:new 0 0 495 495;" xml:space="preserve">
<g>
	<polygon style="fill:#C70024;" points="247.5,0 247.5,40 455,40 455,455 247.5,455 247.5,495 495,495 495,0 	"/>
	<polygon style="fill:#FF0C38;" points="40,455 40,40 247.5,40 247.5,0 0,0 0,495 247.5,495 247.5,455 	"/>
	<path style="fill:#FF0C38;" d="M129.536,352.92c39.056,4.353,78.587,4.382,117.948,4.353c39.377,0.029,78.909,0,117.952-4.353
		c16.494-1.841,30.195-14.21,34.057-30.96c5.491-23.846,5.507-49.9,5.507-74.462c0-24.562,0.049-50.603-5.446-74.45
		c-3.857-16.766-17.559-29.118-34.057-30.959c-39.056-4.365-78.591-4.382-117.948-4.365c-39.361-0.016-78.909,0-117.969,4.365
		c-16.477,1.841-30.183,14.193-34.024,30.959C90.065,196.896,90,222.937,90,247.499c0,24.562,0,50.615,5.495,74.462
		C99.336,338.711,113.038,351.079,129.536,352.92z M206.855,192.23c33.374,17.416,66.54,34.707,100.138,52.237
		c-33.5,17.368-66.67,34.577-100.138,51.932V192.23z"/>
</g>
<g>
</g>
<g>
</g>
<g>
</g>
<g>
</g>
<g>
</g>
<g>
</g>
<g>
</g>
<g>
</g>
<g>
</g>
<g>
</g>
<g>
</g>
<g>
</g>
<g>
</g>
<g>
</g>
<g>
</g>
</svg>
