<?xml version="1.0" encoding="iso-8859-1"?>
<!-- Generator: Adobe Illustrator 19.0.0, SVG Export Plug-In . SVG Version: 6.00 Build 0)  -->
<svg version="1.1" id="Layer_1" xmlns="http://www.w3.org/2000/svg" xmlns:xlink="http://www.w3.org/1999/xlink" x="0px" y="0px"
	 viewBox="0 0 508 508" style="enable-background:new 0 0 508 508;" xml:space="preserve">
<path style="fill:#009AD4;" d="M504,378.4c0,68.8-56.4,125.6-125.2,125.6H129.2C60.4,504,4,447.2,4,378.4V128.8C4,60,60.4,4,129.2,4
	h249.6C447.6,4,504,59.6,504,128.8V378.4z"/>
<g>
	<path style="fill:#FFFFFF;" d="M141.2,357.2h56.4c0,0,61.6-2,61.6-64.4c0,0,2.8-50.4-36.4-50.4c0,0,29.6-1.6,29.6-38
		s-24-53.6-54.8-53.6h-56.4h-1.6H99.2v206.4h40.4H141.2z M142.8,186.4H190h7.2c0,0,13.6-0.8,13.6,20.4s-8,23.2-17.2,23.2h-50.8
		V186.4z M142.8,262h54.4c0,0,20.4,0,20.4,28.4c0,24-15.2,26.8-23.2,26.8c-1.6,0-2.8,0.4-3.6,0.4h-48V262z"/>
	<path style="fill:#FFFFFF;" d="M340.8,201.2c-74.4,0-74.4,78.4-74.4,78.4s-5.2,77.2,74.4,77.2c0,0,66.4,4.4,66.4-54.8h-34
		c0,0,1.2,22.8-31.2,22.8c0,0-34,5.2-34-34.8h100.4C408.4,289.6,419.2,201.2,340.8,201.2 M307.6,262c0,0,4-31.6,34-31.6
		s29.6,31.6,29.6,31.6H307.6z"/>
	<rect x="297.6" y="162.8" style="fill:#FFFFFF;" width="83.2" height="20"/>
</g>
<path d="M378.8,508H129.2C58,508,0,450.4,0,379.2V129.6C0,58.4,58,0,129.2,0h249.6C450,0,508,58.4,508,129.6v249.6
	C508,450.4,450,508,378.8,508z M129.2,8C62.4,8,8,62.8,8,129.6v249.6C8,445.6,62.4,500,129.2,500h249.6c66.8,0,121.2-54,121.2-120.8
	V129.6C500,62.4,445.6,8,378.8,8C378.8,8,129.2,8,129.2,8z"/>
<path d="M370,484H138c-62.8,0-114-50.8-114-113.6v-232C24,76.4,76,24,138,24h231.2c2.4,0,4,1.6,4,4s-1.6,4-4,4H138
	C80.4,32,32,80.8,32,138.4v232C32,428.8,79.6,476,138,476h232c58.4,0,106-47.2,106-105.6V258c0-2.4,1.6-4,4-4s4,1.6,4,4v112.4
	C484,433.2,432.8,484,370,484z"/>
<path d="M446.8,65.6c-1.2,0-2-0.4-2.8-1.2C423.2,43.6,396,32,368.8,32c-2.4,0-4-1.6-4-4s1.6-4,4-4c29.2,0,58.4,12.8,80.8,34.8
	c1.6,1.6,1.6,4,0,5.6C449.2,65.2,448,65.6,446.8,65.6z"/>
<path d="M480,234c-2.4,0-4-1.6-4-4v-59.2c0-2.4,1.6-4,4-4s4,1.6,4,4V230C484,232.4,482.4,234,480,234z"/>
<path d="M193.6,234h-54.8c-2.4,0-4-1.6-4-4v-43.6c0-2.4,1.6-4,4-4h58l0,0c2,0,17.6,0.8,17.6,24.4C214.8,230.8,204,234,193.6,234z
	 M142.8,226h50.8c6.4,0,13.2,0,13.2-19.2c0-15.6-8-16.4-9.6-16.4h-54.4L142.8,226L142.8,226z"/>
<path d="M190.4,321.6h-51.6c-2.4,0-4-1.6-4-4V262c0-2.4,1.6-4,4-4h58c0.4,0,24.4,0.4,24.4,32.4c0,26.4-16.8,30.8-27.2,30.8
	c-0.8,0-1.2,0-2,0C191.6,321.6,191.2,321.6,190.4,321.6z M142.8,313.6h47.6c0.4,0,0.4,0,0.8,0c0.8,0,1.6,0,2.8,0
	c12.8-0.4,19.2-8,19.2-22.8c0-23.2-14.8-24.4-16.4-24.4h-54V313.6z"/>
<path d="M140.8,361.2H99.2c-2.4,0-4-1.6-4-4V150.8c0-2.4,1.6-4,4-4h98c36.4,0,58.8,22,58.8,57.6c0,21.2-9.6,32-18.4,37.2
	c4.4,2,8,4.4,11.6,8c8.8,9.6,12,22.8,13.2,32.4c0-1.6,0-2.8,0-3.2c0-0.4,0-20.4,9.6-40.4c8.8-18.8,28-41.2,68.8-41.2
	c22.4,0,40.4,7.2,52.4,21.2c24,27.2,18.8,70.4,18.8,72c-0.4,2-2,3.6-4,3.6h-46.8c-2.4,0-4-1.6-4-4s1.6-4,4-4H404
	c0.8-10.4,0.8-42-17.2-62.4c-10.8-12-26.4-18.4-46.4-18.4c-29.2,0-50,12.4-61.6,36.8c-8.8,18.4-8.8,37.2-8.8,37.2
	c0,0.4-2,32.8,18.4,54c12,12.8,29.6,19.2,52,19.2c0.4,0,30.4,2,48.4-15.2c8.4-8,12.8-18.4,13.6-32H376c-0.8,3.6-2.4,8.4-6.4,13.2
	c-6,6.4-15.6,9.6-28,9.6c-2.4,0.4-16,1.6-26.8-7.6c-7.6-6.8-11.6-17.2-11.6-31.2c0-2.4,1.6-4,4-4h18c2.4,0,4,1.6,4,4s-1.6,4-4,4
	h-13.6c0.8,9.6,3.6,16.4,8.8,20.8c8.4,7.2,20.4,5.6,20.4,5.6h0.4c10.4,0,17.6-2.4,22.4-7.2c4.8-5.2,4.8-11.2,4.8-11.2
	c0-1.2,0.4-2,1.2-2.8c0.8-0.8,2-1.2,2.8-1.2h34c2.4,0,4,1.6,4,4c0,17.6-5.6,31.6-16.4,42c-20.4,19.2-52.8,17.2-54,17.2l0,0
	c-24.4,0-44-7.2-57.6-22c-14.4-15.2-18.8-34.8-20-47.2c0,0.8,0,1.2,0,1.6c0,65.2-64.8,68-65.2,68L140.8,361.2z M103.2,353.2h94
	c2.4,0,57.6-2.8,57.6-60.4c0,0,0,0,0-0.4s1.2-24.4-11.2-37.6c-5.2-5.6-12.4-8.4-20.8-8.4c-2,0-4-1.6-4-4c0-2,1.6-4,3.6-4
	c1.2,0,25.6-2.4,25.6-34.4c0-31.2-18.8-49.6-50.8-49.6h-94V353.2z M377.2,186.4h-79.6c-2.4,0-4-1.6-4-4v-20c0-2.4,1.6-4,4-4h79.2
	c2.4,0,4,1.6,4,4v20C381.2,184.8,379.2,186.4,377.2,186.4z M301.6,178.4h71.2v-12h-71.2V178.4z"/>
<path d="M370.8,266h-63.6c-1.2,0-2.4-0.4-3.2-1.2c-0.8-0.8-1.2-2-0.8-3.2c1.6-12,11.6-34.8,38-34.8c9.6,0,17.6,2.8,23.2,8.8
	c10.4,10.4,10,26,10,26.4C374.8,264,372.8,266,370.8,266z M312,258h54.4c-0.8-4.4-2.4-11.6-7.6-16.8c-4.4-4.4-10-6.4-17.6-6.4
	C321.6,234.4,314.4,250,312,258z"/>
<g>
</g>
<g>
</g>
<g>
</g>
<g>
</g>
<g>
</g>
<g>
</g>
<g>
</g>
<g>
</g>
<g>
</g>
<g>
</g>
<g>
</g>
<g>
</g>
<g>
</g>
<g>
</g>
<g>
</g>
</svg>
