<?xml version="1.0" encoding="utf-8"?>
<!-- Generator: Adobe Illustrator 19.0.0, SVG Export Plug-In . SVG Version: 6.00 Build 0)  -->
<svg version="1.1" id="Layer_1" xmlns="http://www.w3.org/2000/svg" xmlns:xlink="http://www.w3.org/1999/xlink" x="0px" y="0px"
	 viewBox="-239 9.9 502 502" style="enable-background:new -239 9.9 502 502;" xml:space="preserve">
<style type="text/css">
	.st0{fill:#26D100;}
	.st1{fill:#FFFFFF;}
</style>
<path class="st0" d="M262,385.3c0,68.8-56.4,125.6-125.2,125.6h-249.6c-68.8,0-125.2-56.8-125.2-125.6V135.7
	c0-68.8,56.4-124.8,125.2-124.8h249.6c68.8,0,125.2,55.6,125.2,124.8V385.3z"/>
<path d="M136.8,514.9h-249.6c-71.2,0-129.2-57.6-129.2-128.8V136.5c0-71.2,58-129.6,129.2-129.6h249.6C208,6.9,266,65.3,266,136.5
	v249.6C266,457.3,208,514.9,136.8,514.9z M-112.8,14.9c-66.8,0-121.2,54.8-121.2,121.6v249.6c0,66.4,54.4,120.8,121.2,120.8h249.6
	c66.8,0,121.2-54,121.2-120.8V136.5c0-67.2-54.4-121.6-121.2-121.6H-112.8z"/>
<path d="M128,490.9h-232c-62.8,0-114-50.8-114-113.6v-232c0-62,52-114.4,114-114.4h231.2c2.4,0,4,1.6,4,4c0,2.4-1.6,4-4,4H-104
	c-57.6,0-106,48.8-106,106.4v232c0,58.4,47.6,105.6,106,105.6h232c58.4,0,106-47.2,106-105.6V264.9c0-2.4,1.6-4,4-4s4,1.6,4,4v112.4
	C242,440.1,190.8,490.9,128,490.9z"/>
<path d="M204.8,72.5c-1.2,0-2-0.4-2.8-1.2c-20.8-20.8-48-32.4-75.2-32.4c-2.4,0-4-1.6-4-4c0-2.4,1.6-4,4-4
	c29.2,0,58.4,12.8,80.8,34.8c1.6,1.6,1.6,4,0,5.6C207.2,72.1,206,72.5,204.8,72.5z"/>
<g>
	<g>
		<path class="st1" d="M-43.4,268.9l12.8-25.4c0,0,0,0,0,0h-73.1c0,0,0,0,0,0v-98.3c0,0,0,0,0,0H19.1c0,0,0,0,0,0L57.5,69
			c0,0,0,0,0,0h70.2c0,0,0,0,0,0v69.7c0,0,0,0,0,0L56.5,279.8c0,0,0,0,0,0h71.2c0,0,0,0,0,0v98.3c0,0,0,0,0,0H6.9c0,0,0,0,0,0
			l-37.6,74.5c0,0,0,0,0,0h-72.9c0,0,0,0,0,0v-64.3c0,0,0,0,0,0l21.5-42.5"/>
		<path d="M-30.8,457.7h-72.9c-2.8,0-5-2.3-5-5v-64.3c0-0.8,0.2-1.6,0.5-2.3l21.5-42.5c1.4-2.8,5-3.7,7.6-1.7
			c1.9,1.5,2.3,4.2,1.3,6.4l-20.8,41.3c0,0,0,0,0,0v58.1c0,0,0,0,0,0h64.8c0,0,0,0,0,0l36.3-71.8c0.9-1.7,2.6-2.7,4.5-2.7h115.9
			c0,0,0,0,0,0v-88.3c0,0,0,0,0,0l-66.1,0c-1.1,0-2.3-0.3-3.2-1c-2-1.5-2.5-4.2-1.4-6.2l70.7-140.1c0,0,0,0,0,0V74c0,0,0,0,0,0H60.6
			c0,0,0,0,0,0l-37,73.3c-0.9,1.7-2.6,2.7-4.5,2.7H-98.7c0,0,0,0,0,0v88.3c0,0,0,0,0,0l68,0c1.1,0,2.3,0.3,3.2,1
			c2,1.5,2.5,4.2,1.4,6.2l-12.9,25.5c-1.4,2.8-5,3.7-7.6,1.7c-1.9-1.5-2.3-4.2-1.3-6.4l9.1-18c0,0,0,0,0,0h-65c-2.8,0-5-2.3-5-5
			v-98.3c0-2.8,2.3-5,5-5H16c0,0,0,0,0,0l37-73.3c0.9-1.7,2.6-2.7,4.5-2.7h70.2c2.8,0,5,2.3,5,5v69.7c0,0.8-0.2,1.6-0.5,2.3
			L64.6,274.8c0,0,0,0,0,0h63.1c2.8,0,5,2.3,5,5v98.3c0,2.8-2.3,5-5,5H9.9c0,0,0,0,0,0L-26.4,455C-27.2,456.7-28.9,457.7-30.8,457.7
			z"/>
	</g>
	<g>
		<path d="M-67,319.9c-0.8,0-1.6-0.2-2.4-0.6c-2.4-1.3-3.2-4.5-1.9-6.9l8.2-15.6c1.1-2.1,3.6-3.4,5.9-2.7c3.1,0.9,4.5,4.4,3,7.1
			l-8.5,16C-63.5,318.9-65.2,319.9-67,319.9z"/>
	</g>
</g>
</svg>
