<?xml version="1.0" encoding="utf-8"?>
<!-- Generator: Adobe Illustrator 19.0.0, SVG Export Plug-In . SVG Version: 6.00 Build 0)  -->
<svg version="1.1" id="Layer_1" xmlns="http://www.w3.org/2000/svg" xmlns:xlink="http://www.w3.org/1999/xlink" x="0px" y="0px"
	 viewBox="-478 248.9 24 24" style="enable-background:new -478 248.9 24 24;" xml:space="preserve">
<style type="text/css">
	.st0{fill:#A8A8A8;}
	.st1{fill:#FFFFFF;stroke:#000000;stroke-width:0.5;stroke-miterlimit:10;}
</style>
<path class="st0" d="M-454.2,266.7c0,3.3-2.7,5.9-5.9,5.9h-11.8c-3.3,0-5.9-2.7-5.9-5.9v-11.8c0-3.3,2.7-5.9,5.9-5.9h11.8
	c3.3,0,5.9,2.6,5.9,5.9V266.7z"/>
<path d="M-460.1,272.9h-11.8c-3.4,0-6.1-2.7-6.1-6.1V255c0-3.4,2.7-6.1,6.1-6.1h11.8c3.4,0,6.1,2.8,6.1,6.1v11.8
	C-454,270.1-456.7,272.9-460.1,272.9z M-471.9,249.2c-3.2,0-5.7,2.6-5.7,5.7v11.8c0,3.1,2.6,5.7,5.7,5.7h11.8c3.2,0,5.7-2.6,5.7-5.7
	V255c0-3.2-2.6-5.7-5.7-5.7H-471.9z"/>
<path d="M-460.5,271.7h-11c-3,0-5.4-2.4-5.4-5.4v-11c0-2.9,2.5-5.4,5.4-5.4h10.9c0.1,0,0.2,0.1,0.2,0.2s-0.1,0.2-0.2,0.2h-10.9
	c-2.7,0-5,2.3-5,5v11c0,2.8,2.2,5,5,5h11c2.8,0,5-2.2,5-5V261c0-0.1,0.1-0.2,0.2-0.2c0.1,0,0.2,0.1,0.2,0.2v5.3
	C-455.1,269.3-457.6,271.7-460.5,271.7z"/>
<path d="M-456.9,252c-0.1,0-0.1,0-0.1-0.1c-1-1-2.3-1.5-3.6-1.5c-0.1,0-0.2-0.1-0.2-0.2s0.1-0.2,0.2-0.2c1.4,0,2.8,0.6,3.8,1.6
	c0.1,0.1,0.1,0.2,0,0.3C-456.8,251.9-456.8,252-456.9,252z"/>
<path d="M-455.3,259.9c-0.1,0-0.2-0.1-0.2-0.2v-2.8c0-0.1,0.1-0.2,0.2-0.2c0.1,0,0.2,0.1,0.2,0.2v2.8
	C-455.1,259.8-455.2,259.9-455.3,259.9z"/>
<title>dev.to icon</title>
<path class="st1" d="M-469,260.9c0-2-0.1-2.1-0.3-2.6c-0.4-0.7-0.9-0.9-2.6-0.9h-1.4v7.5h1.3c1.5,0,2.1-0.2,2.5-0.8
	C-469,263.6-468.9,263.1-469,260.9z M-470.5,263.3c-0.2,0.2-0.4,0.3-0.8,0.3l-0.6,0l0-2.5l0-2.4h0.6c0.4,0,0.7,0.1,0.8,0.2
	c0.3,0.2,0.3,0.3,0.3,2.2C-470.3,262.9-470.3,263-470.5,263.3z"/>
<path class="st1" d="M-459.7,264.1L-459.7,264.1c-0.2,0.4-0.6,0.8-1,0.8c-0.2,0-0.5-0.2-0.7-0.4c-0.3-0.3-0.4-0.6-0.8-2.1l-0.9-3.4
	l-0.5-1.7h0.8c0.4,0,0.8,0,0.8,0.1c0,0.1,1.2,4.5,1.3,4.8c0,0.2,0.3-0.7,0.7-2.3l0.7-2.5l0.7,0c0.4,0,0.7,0,0.7,0
	C-457.9,257.6-459.5,263.8-459.7,264.1z"/>
<path class="st1" d="M-466.8,258.7v1.8h1.5v1.3l-0.7,0l-0.8,0v1.8l1.2,0l1.2,0v1.3h-1.6c-1.5,0-1.6,0-1.9-0.3l-0.3-0.3v-3.2
	c0-3,0-3.2,0.3-3.5c0.2-0.3,0.3-0.3,1.9-0.3h1.6v1.3H-466.8z"/>
</svg>
