<?xml version="1.0" encoding="iso-8859-1"?>
<!-- Generator: Adobe Illustrator 19.0.0, SVG Export Plug-In . SVG Version: 6.00 Build 0)  -->
<svg version="1.1" id="Layer_1" xmlns="http://www.w3.org/2000/svg" xmlns:xlink="http://www.w3.org/1999/xlink" x="0px" y="0px"
	 viewBox="0 0 508 508" style="enable-background:new 0 0 508 508;" xml:space="preserve">
<path style="fill:#FF73A5;" d="M504,379.6c0,68.8-56.4,124.4-125.2,124.4H129.2C60.4,504,4,448.4,4,379.6V130C4,61.2,60.4,4,129.2,4
	h249.6C447.6,4,504,60.8,504,130V379.6z"/>
<path style="fill:#FFFFFF;" d="M397.6,194c-4-9.2-8.8-18-14.4-26.4s-12-16-19.2-23.2s-14.8-13.6-23.2-19.2
	c-8.4-5.6-17.2-10.4-26.4-14.4c-9.6-4-19.2-7.2-29.2-9.2c-10.4-2-20.8-3.2-31.6-3.2c-10.4,0-21.2,1.2-31.6,3.2
	c-10,2-20,5.2-29.2,9.2s-18,8.8-26.4,14.4c-8.4,5.6-16,12-23.2,19.2s-13.6,14.8-19.2,23.2c-5.6,8.4-10.4,17.2-14.4,26.4
	c-4,9.6-7.2,19.2-9.2,29.2c-2,10.4-3.2,20.8-3.2,31.2s1.2,21.2,3.2,31.6c2,10,5.2,20,9.2,29.2s8.8,18,14.4,26.4
	c5.6,8.4,12,16,19.2,23.2s14.8,13.6,23.2,19.2s17.2,10.4,26.4,14.4c9.6,4,19.2,7.2,29.2,9.2c10.4,2,20.8,3.2,31.6,3.2
	c10.4,0,21.2-1.2,31.6-3.2c10-2,20-5.2,29.2-9.2s18-8.8,26.4-14.4s16-12,23.2-19.2s13.6-14.8,19.2-23.2c5.6-8.4,10.4-17.2,14.4-26.4
	c4-9.6,7.2-19.2,9.2-29.2c2-10.4,3.2-20.8,3.2-31.6c0-10.4-1.2-21.2-3.2-31.2C404.8,213.2,401.6,203.2,397.6,194 M254,121.6
	c33.6,0,64.4,12.4,88,33.2c-0.4,0.4-19.2,29.6-69.6,48.4c-22.8-42-47.6-75.2-50-77.6C232.8,122.8,243.2,121.6,254,121.6 M222,125.2
	L222,125.2c0,0,0,0-0.4,0C222,125.2,222,125.2,222,125.2 M197.2,134c1.6,2.4,26.4,35.6,49.6,76.8c-64,16.8-119.6,16.4-122.8,16.4
	C132.4,186,160,151.6,197.2,134 M154.8,343.6c-21.2-23.6-34-54.8-34-89.2c0-1.6,0-2.8,0-4c2.4,0,68,1.6,136.8-18.8
	c4,7.6,7.6,15.2,10.8,22.8c-1.6,0.4-3.6,1.2-5.2,1.6C191.2,278.8,154.8,343.6,154.8,343.6L154.8,343.6 M171.6,359.6
	c0.4-0.4,26-55.6,104.8-83.2c0.4,0,0.8-0.4,0.8-0.4c18.8,48.8,26,89.6,28,101.2c-16,6.8-34,10.4-52.4,10.4 M253.2,388
	c-30.8,0-57.6-10.8-81.6-28.4l0,0 M328.4,365.2c-1.2-8-8.4-47.2-26-95.2c43.2-6.8,80.4,4.8,83.2,6
	C379.6,312.8,358.4,344.8,328.4,365.2 M294.4,248.8c-0.8-2.4-2-4.4-2.8-6.8c-2.8-6.4-5.6-12.8-8.8-19.2c52.4-21.6,74-52.4,74-52.8
	c18.8,22.8,30,51.6,30.4,83.2C385.2,252.8,340,243.2,294.4,248.8"/>
<path d="M126.4,231.2L126.4,231.2c-1.2,0-2.4,0-2.8,0c-1.2,0-2.4-0.4-3.2-1.6c-0.8-0.8-1.2-2-0.8-3.2c8.8-41.6,37.2-77.6,75.6-96
	c1.6-0.8,3.6-0.4,4.8,1.2c2.8,3.6,26.8,36.4,49.6,77.2c0.8,1.2,0.8,2.4,0,3.6c-0.4,1.2-1.6,2-2.8,2.4
	C190.4,230,140.4,231.2,126.4,231.2z M196,139.2c-33.6,16.8-58,48-67.2,84c16,0,60.4-2,112-14.8C221.6,175.2,202,147.6,196,139.2z"
	/>
<path d="M154.8,347.6c-1.2,0-2-0.4-2.8-1.2c-22.8-25.2-35.2-57.6-35.2-91.6c0-1.6,0-2.8,0-4.4c0-2,2-3.6,4-4c0.8,0,2,0,4.4,0
	c16,0,72.8-1.2,131.2-18.8c2-0.4,4,0.4,4.8,2c4,8,7.6,15.6,10.8,22.8c0.4,1.2,0.4,2.4,0,3.2s-1.6,2-2.4,2c-1.6,0.4-3.6,0.8-5.2,1.6
	c-66,21.2-102,79.2-105.6,85.6c-0.4,0.8-0.8,1.6-1.6,2C156.4,347.6,155.6,347.6,154.8,347.6z M124.8,254.4
	C124.8,254.4,124.8,254.8,124.8,254.4c0,30.4,10.4,59.2,29.6,82.4C164.4,321.2,200,272,262,252c0.4,0,0.8-0.4,0.8-0.4
	c-2.4-4.8-4.8-10-7.2-15.2c-58.4,16.8-114.4,18.4-130.4,18.4C125.2,254.4,124.8,254.4,124.8,254.4z"/>
<path d="M272.4,206.8c-1.6,0-2.8-0.8-3.6-2c-23.2-42.4-48.4-76-49.6-77.2c-0.8-1.2-1.2-2.4-0.4-3.6c0.4-1.2,1.6-2.4,2.8-2.4
	c10.4-2.4,21.6-4,32.4-4c33.2,0,65.6,12,90.8,34.4c1.6,1.2,1.6,3.6,0.8,5.2c-1.2,0.8-20.8,30.4-71.6,49.6
	C273.2,206.8,272.8,206.8,272.4,206.8z M229.6,128c8,10.8,26.8,37.6,44.8,70c38-14.8,56.4-35.2,62.4-42.8
	c-23.2-19.2-52.4-30-82.4-30C245.6,125.6,237.6,126.4,229.6,128z"/>
<path d="M328.4,369.2c-0.4,0-1.2,0-1.6-0.4c-1.2-0.4-2-1.6-2.4-3.2c-1.6-10.4-8.8-48-25.6-94.4c-0.4-1.2-0.4-2.4,0.4-3.2
	c0.8-1.2,1.6-1.6,2.8-2c9.2-1.6,18.8-2,28.4-2c30.4,0,54,7.2,56.4,8c2,0.8,3.2,2.4,2.8,4.4c-6,37.2-27.6,70.8-58.8,92
	C330,368.8,329.2,369.2,328.4,369.2z M308,273.2c13.6,38,20.4,70,23.2,84.8c26-19.2,43.6-48,49.6-79.6c-7.6-2-26.8-6.8-50.8-6.8
	C322.8,272,315.2,272.4,308,273.2z"/>
<path d="M254,414.8c-10.8,0-21.6-1.2-32.4-3.2c-10.4-2-20.4-5.2-30-9.2s-18.4-8.8-27.2-14.8C156,382,148,375.2,140.8,368
	c-7.2-7.2-14-15.2-19.6-23.6s-10.8-17.6-14.8-27.2s-7.2-19.6-9.2-30c-2-10.8-3.2-21.6-3.2-32.4c0-10.8,1.2-21.6,3.2-32
	s5.2-20.4,9.2-30s8.8-18.4,14.8-27.2c5.6-8.4,12.4-16.4,19.6-23.6c7.2-7.2,15.2-14,23.6-19.6c8.4-5.6,17.6-10.8,27.2-14.8
	c10-4,20-7.2,30-9.2c10.4-2,21.2-3.2,32.4-3.2c2.4,0,4,1.6,4,4s-1.6,4-4,4c-10.4,0-20.4,1.2-30.8,3.2c-9.6,2-19.2,4.8-28.4,8.8
	s-17.6,8.4-25.6,14c-8,5.6-15.6,11.6-22.4,18.4c-6.8,6.8-13.2,14.4-18.4,22.4c-5.6,8-10.4,16.8-14,26c-4,9.2-6.8,18.8-8.8,28.4
	c-2.4,9.6-3.6,20-3.6,30.4s1.2,20.4,3.2,30.8c2,10,5.2,19.6,8.8,28.4c3.6,9.2,8.4,17.6,14,26c5.6,8,11.6,15.6,18.4,22.4
	c6.8,6.8,14.4,13.2,22.4,18.4c8,5.6,16.8,10.4,25.6,14c9.2,4,18.8,6.8,28.4,8.8c20,4,41.2,4,61.2,0c10-2,19.6-5.2,28.4-8.8
	c8.8-3.6,17.6-8.4,26-14c8-5.6,15.6-11.6,22.4-18.4S374,348,379.2,340c5.6-8,10-16.8,14-26s6.8-18.8,8.8-28.4
	c2-10,3.2-20.4,3.2-30.8s-1.2-20.4-3.2-30.4s-4.8-19.6-8.8-28.4c-4-9.2-8.4-17.6-14-26c-1.2-2-0.8-4.4,1.2-5.6
	c2-1.2,4.4-0.8,5.6,1.2c5.6,8.4,10.8,17.6,14.8,27.2c4,9.6,7.2,19.6,9.2,30s3.2,21.2,3.2,32c0,10.8-1.2,21.6-3.2,32.4
	c-2,10.4-5.2,20.4-9.2,30S392,336,386,344.4c-5.6,8.4-12,16.4-19.6,23.6c-7.2,7.2-15.2,13.6-23.6,19.6c-8.8,6-17.6,10.8-27.2,14.8
	s-19.6,7.2-30,9.2C275.6,413.6,264.8,414.8,254,414.8z"/>
<path d="M254,392c-30.8,0-60-10-84.4-29.2c-1.6-1.2-2-3.2-1.2-4.8c1.2-2.4,27.2-57.6,106.8-85.2c0.4,0,0.8-0.4,1.2-0.4
	c2-0.4,4,0.4,4.8,2.4c19.2,49.6,26.8,90.4,28.8,102c0.4,2-0.8,3.6-2.4,4.4C290.4,388.4,272.4,392,254,392z M177.2,358.4
	c22.4,16.8,48.8,25.2,76.8,25.2c16.4,0,32.4-3.2,47.6-9.2c-2.4-14-10-50.4-26.4-93.6C210.8,304.8,183.6,347.2,177.2,358.4z"/>
<path d="M387.2,257.2L387.2,257.2c-0.4,0-0.8,0-0.8,0c-2.8-0.8-29.2-6-61.2-6c-10.4,0-20.8,0.8-30,1.6c-1.6,0.4-3.6-0.8-4-2.4
	l-1.2-1.2c-0.8-2-1.6-3.6-2.4-5.6c-2.8-6-5.6-12.8-8.8-19.2c-0.4-0.8-0.4-2,0-3.2s1.2-2,2.4-2.4c48.8-20,70-48,72.4-51.2
	c0.8-1.2,2-1.6,3.2-1.6s2.4,0.4,3.2,1.6c19.6,24,30.8,54,31.2,84.8c0,0.4,0,0.4,0,0.8C391.2,255.6,389.6,257.2,387.2,257.2z
	 M325.2,243.2c26,0,48.4,3.6,58,5.2c-1.2-26-10.4-51.2-26-72c-7.6,9.2-29.2,31.2-68.8,48.4c2.4,5.2,4.8,10.4,7.2,15.6
	c0.4,1.2,1.2,2.8,1.6,4C306,243.6,315.2,243.2,325.2,243.2z"/>
<path d="M378.8,508H129.2C58,508,0,449.6,0,378V128.4C0,57.6,58,0,129.2,0h249.6C450,0,508,57.6,508,128.4V378
	C508,449.6,450,508,378.8,508z M129.2,8C62.4,8,8,62,8,128.4V378c0,67.2,54.4,122,121.2,122h249.6c66.8,0,121.2-54.8,121.2-122
	V128.4C500,62,445.6,8,378.8,8C378.8,8,129.2,8,129.2,8z"/>
<path d="M370,480.4H138c-62.8,0-114-49.6-114-110.8v-232C24,74.8,75.2,24,138,24h231.2c2.4,0,4,1.6,4,4s-1.6,4-4,4H138
	C79.6,32,32,79.2,32,137.2v232C32,426,79.6,472,138,472h232c58.4,0,106-46,106-102.8V258c0-2.4,1.6-4,4-4s4,1.6,4,4v111.2
	C484,430.4,432.8,480.4,370,480.4z"/>
<path d="M446.8,64.4c-1.2,0-2-0.4-2.8-1.2c-20-20-47.2-31.2-75.2-31.2c-2.4,0-4-1.6-4-4s1.6-4,4-4c30,0,59.2,12.4,80.8,33.6
	c1.6,1.6,1.6,4,0,5.6C449.2,64,448,64.4,446.8,64.4z"/>
<path d="M480,234c-2.4,0-4-1.6-4-4v-59.2c0-2.4,1.6-4,4-4s4,1.6,4,4V230C484,232.4,482.4,234,480,234z"/>
<g>
</g>
<g>
</g>
<g>
</g>
<g>
</g>
<g>
</g>
<g>
</g>
<g>
</g>
<g>
</g>
<g>
</g>
<g>
</g>
<g>
</g>
<g>
</g>
<g>
</g>
<g>
</g>
<g>
</g>
</svg>
