<?xml version="1.0" encoding="iso-8859-1"?>
<!-- Generator: Adobe Illustrator 19.0.0, SVG Export Plug-In . SVG Version: 6.00 Build 0)  -->
<svg version="1.1" id="Layer_1" xmlns="http://www.w3.org/2000/svg" xmlns:xlink="http://www.w3.org/1999/xlink" x="0px" y="0px"
	 viewBox="0 0 508 508" style="enable-background:new 0 0 508 508;" xml:space="preserve">
<path style="fill:#FF0087;" d="M504,382.4c0,68.8-56.4,123.6-125.2,123.6H129.2C60.4,506,4,451.6,4,382.4V132.8
	C4,64,60.4,10,129.2,10h249.6C447.6,10,504,64,504,133.2V382.4z"/>
<g>
	<path style="fill:#FFFFFF;" d="M161.6,330.4c40.8,0,74-32.8,74-72.8s-33.2-72.8-74-72.8s-74,32.4-74,72.8
		C87.6,298,120.8,330.4,161.6,330.4"/>
	<path style="fill:#FFFFFF;" d="M346.4,184.8c-40.8,0-73.6,32.4-73.6,72.8s33.2,72.8,73.6,72.8c40.8,0,73.6-32.8,73.6-72.8
		C420.4,217.6,387.2,184.8,346.4,184.8"/>
</g>
<path d="M378.8,506H129.2C58,506,0,449.2,0,378.8V129.6C0,59.2,58,2,129.2,2h249.6C450,2,508,59.2,508,129.6v249.6
	C508,449.2,450,506,378.8,506z M129.2,10C62.4,10,8,63.6,8,129.6v249.6c0,65.6,54.4,119.2,121.2,119.2h249.6
	c66.8,0,121.2-53.2,121.2-119.2V129.6C500,63.6,445.6,10,378.8,10C378.8,10,129.2,10,129.2,10z"/>
<path d="M370,482.4H138c-62.8,0-114-50.4-114-112v-232C24,76.4,75.2,26,138,26h231.2c2.4,0,4,1.6,4,4s-1.6,4-4,4H138
	C79.6,34,32,80.8,32,138.4v232c0,57.2,47.6,104,106,104h232c58.4,0,106-46.8,106-104V260c0-2.4,1.6-4,4-4s4,1.6,4,4v110.4
	C484,432,432.8,482.4,370,482.4z"/>
<path d="M446.8,65.2c-1.2,0-2-0.4-2.8-1.2c-19.2-19.2-46.4-30.4-75.2-30.4c-2.4,0-4-1.6-4-4s1.6-4,4-4c30.4,0,60,12,80.8,32.8
	c1.6,1.6,1.6,4,0,5.6C449.2,64.8,448,65.2,446.8,65.2z"/>
<path d="M480,232.4c-2.4,0-4-1.6-4-4v-55.6c0-2.4,1.6-4,4-4s4,1.6,4,4v55.6C484,230.4,482.4,232.4,480,232.4z"/>
<path d="M161.6,337.2c-43.6,0-79.2-35.6-79.2-79.2s35.6-79.2,79.2-79.2c2.4,0,4,1.6,4,4s-1.6,4-4,4c-39.2,0-71.2,32-71.2,71.2
	s32,71.2,71.2,71.2s71.2-32,71.2-71.2c0-2.4,1.6-4,4-4s4,1.6,4,4C240.4,302,205.2,337.2,161.6,337.2z"/>
<path d="M346,334c-42,0-76-34-76-76s34-75.6,76-75.6c2.4,0,4,1.6,4,4s-1.6,4-4,4c-37.2,0-67.6,30.4-67.6,67.6s30,68,67.6,68
	s67.6-30.4,67.6-67.6c0-2.4,1.6-4,4-4s4,1.6,4,4C421.6,300,387.6,334,346,334z"/>
<g>
</g>
<g>
</g>
<g>
</g>
<g>
</g>
<g>
</g>
<g>
</g>
<g>
</g>
<g>
</g>
<g>
</g>
<g>
</g>
<g>
</g>
<g>
</g>
<g>
</g>
<g>
</g>
<g>
</g>
</svg>
