<?xml version="1.0" encoding="utf-8"?>
<!-- Generator: Adobe Illustrator 19.0.0, SVG Export Plug-In . SVG Version: 6.00 Build 0)  -->
<svg version="1.1" id="Layer_1" xmlns="http://www.w3.org/2000/svg" xmlns:xlink="http://www.w3.org/1999/xlink" x="0px" y="0px"
	 viewBox="21 -252.1 1024 1024" style="enable-background:new 21 -252.1 1024 1024;" xml:space="preserve">
<style type="text/css">
	.st0{fill:#FFFFFF;}
</style>
<path class="st0" d="M1046.9,514.6c0,140.9-115.5,257.2-256.4,257.2H279.4c-140.9,0-256.4-116.3-256.4-257.2V3.5
	c0-140.9,115.5-255.6,256.4-255.6h511.1c140.9,0,256.4,113.9,256.4,255.6V514.6z"/>
<path d="M790.6,780H279.4C133.6,780,14.9,662,14.9,516.2V5.1c0-145.8,118.8-265.4,264.6-265.4h511.1
	c145.8,0,264.6,119.6,264.6,265.4v511.1C1055.1,662,936.4,780,790.6,780z M279.4-243.9c-136.8,0-248.2,112.2-248.2,249v511.1
	c0,136,111.4,247.4,248.2,247.4h511.1c136.8,0,248.2-110.6,248.2-247.4V5.1c0-137.6-111.4-249-248.2-249H279.4z"/>
<path d="M772.5,730.9H297.5C168.9,730.9,64,626.8,64,498.2V23.1c0-127,106.5-234.3,233.4-234.3h473.5c4.9,0,8.2,3.3,8.2,8.2
	c0,4.9-3.3,8.2-8.2,8.2H297.5c-118,0-217.1,99.9-217.1,217.9v475.1c0,119.6,97.5,216.2,217.1,216.2h475.1
	c119.6,0,217.1-96.7,217.1-216.2V268.1c0-4.9,3.3-8.2,8.2-8.2c4.9,0,8.2,3.3,8.2,8.2v230.2C1006,626.8,901.1,730.9,772.5,730.9z"/>
<path d="M929.8-125.9c-2.5,0-4.1-0.8-5.7-2.5c-42.6-42.6-98.3-66.3-154-66.3c-4.9,0-8.2-3.3-8.2-8.2c0-4.9,3.3-8.2,8.2-8.2
	c59.8,0,119.6,26.2,165.5,71.3c3.3,3.3,3.3,8.2,0,11.5C934.7-126.8,932.3-125.9,929.8-125.9z"/>
<path d="M533.1-58.3c-180.2,0-326.2,146.2-326.2,326.2c0,144.2,93.5,266.4,223,309.5c16.4,3.1,22.3-7,22.3-15.7
	c0-7.8-0.2-28.3-0.3-55.4c-90.8,19.7-110-43.9-110-43.9c-14.9-37.6-36.3-47.6-36.3-47.6c-29.6-20.2,2.3-19.7,2.3-19.7
	c32.6,2.2,49.9,33.6,49.9,33.6c29.1,49.9,76.3,35.5,95.1,27c2.9-21.1,11.3-35.5,20.6-43.5C401.1,404,324.9,375.9,324.9,251
	c0-35.7,12.6-64.7,33.6-87.6c-3.7-8.1-14.7-41.3,2.9-86.4c0,0,27.3-8.7,89.7,33.4c26.1-7.2,53.8-10.9,81.6-11
	c27.7,0.2,55.4,3.8,81.6,11C676.2,68.3,703.5,77,703.5,77c17.5,44.9,6.4,78.1,3.3,86.4c20.7,22.8,33.3,51.9,33.3,87.6
	c0,125.3-76.3,152.9-148.8,160.9c11.3,9.7,22,29.9,22,60.4c0,43.6-0.5,78.8-0.5,89.3c0,8.5,5.7,18.7,22.5,15.3
	c130.5-42.7,223.8-164.9,223.8-309C859.3,87.9,713.2-58.3,533.1-58.3L533.1-58.3z"/>
</svg>
