<?xml version="1.0" encoding="utf-8"?>
<!-- Generator: Adobe Illustrator 19.0.0, SVG Export Plug-In . SVG Version: 6.00 Build 0)  -->
<svg version="1.1" id="Layer_1" xmlns="http://www.w3.org/2000/svg" xmlns:xlink="http://www.w3.org/1999/xlink" x="0px" y="0px"
	 viewBox="-234 4.9 512 512" style="enable-background:new -234 4.9 512 512;" xml:space="preserve">
<style type="text/css">
	.st0{fill:#D93C1C;}
	.st1{fill:#FFFFFF;}
</style>
<g>
	<path class="st0" d="M-113.9,512.4c-63.7,0-115.6-51.8-115.6-115.6V124.9c0-63.7,51.8-115.6,115.6-115.6h271.9
		c63.7,0,115.6,51.8,115.6,115.6v271.9c0,63.7-51.8,115.6-115.6,115.6H-113.9z"/>
	<g>
		<path d="M157.9,13.9c29.7,0,57.6,11.6,78.5,32.5S269,95.3,269,124.9v271.9c0,29.7-11.6,57.6-32.5,78.5s-48.9,32.5-78.5,32.5
			h-271.9c-29.7,0-57.6-11.6-78.5-32.5s-32.5-48.9-32.5-78.5V124.9c0-29.7,11.6-57.6,32.5-78.5s48.9-32.5,78.5-32.5H157.9
			 M157.9,4.9h-271.9C-180.2,4.9-234,58.6-234,124.9v271.9c0,66.3,53.8,120.1,120.1,120.1h271.9c66.3,0,120.1-53.8,120.1-120.1
			V124.9C278,58.6,224.2,4.9,157.9,4.9L157.9,4.9z"/>
	</g>
</g>
<path d="M138,490.9H-94c-62.8,0-114-50.8-114-113.6v-232c0-62,52-114.4,114-114.4h231.2c2.4,0,4,1.6,4,4c0,2.4-1.6,4-4,4H-94
	c-57.6,0-106,48.8-106,106.4v232c0,58.4,47.6,105.6,106,105.6h232c58.4,0,106-47.2,106-105.6V264.9c0-2.4,1.6-4,4-4s4,1.6,4,4v112.4
	C252,440.1,200.8,490.9,138,490.9z"/>
<path class="st1" d="M178.8,259.4c-12.4-7.8-27.4-11.3-41.9-14.7c-32.4-7.6-41.8-12.3-41.8-29c0-14.8,11.8-22.2,35-22.2
	c40.1,0,41.3,31.4,41.3,35h31.8c0-15.4-5.7-31.1-15.7-42.8c-9.2-10.9-26.7-23.9-57.4-23.9c-21.6,0-38.6,5.4-50.3,16
	c-10.6,9.5-16.4,23-16.4,38c0,19.9,8.2,35.1,24.3,45.2c12.4,7.8,27.4,11.3,41.9,14.7c32.4,7.6,41.8,12.3,41.8,29
	c0,11.4-26.3,22.2-54,22.2c-53.3,0-65.1-32.6-80.2-73.8c-7.8-21.3-15.8-43.3-30.7-60.7c-17.7-20.7-41.8-30.8-73.4-30.8
	c-22.3,0-44.3,7.7-60.3,21.2c-14.5,12.2-31.9,35.6-31.9,77.3c0,32.5,9.1,57.6,27.1,74.7c16.2,15.5,35.9,20.8,49.2,23.5
	c5.7,1.1,11.8,1.7,18.2,1.7c21.5,0,45.3-6.2,61.6-16.3l-16.8-26.9c-3.5,2.2-8.5,4.6-15.2,6.7c-14.2,4.6-30.2,6-41.6,3.7
	c-25.1-5-50.8-16.9-50.8-67c0-63.5,50.3-66.7,60.4-66.7c29.1,0,42.1,11.2,49.3,19.7c11.1,13,17.8,31.4,25,50.9
	c8,22,16.3,44.7,32.1,62.8c18.7,21.4,44.2,31.8,77.9,31.8c42.6,0,85.8-18.6,85.8-54C203.1,284.8,194.9,269.6,178.8,259.4z"/>
<path d="M182,254.4c-13.2-8.3-28.7-11.9-43.7-15.5c-34.3-8.1-37.2-12.3-37.2-23.2c0-4.5,0-16.3,29-16.3c33.6,0,35.3,24.2,35.3,29
	c0,3.3,2.7,6,6,6h31.8c3.3,0,6-2.7,6-6c0-16.8-6.2-33.8-17.1-46.7c-10-11.9-28.9-26-62-26c-23.1,0-41.4,5.9-54.3,17.5
	c-11.8,10.7-18.4,25.7-18.4,42.5c0,22.1,9.1,39,27.1,50.3c13.2,8.3,28.7,11.9,43.7,15.5c34.3,8.1,37.2,12.3,37.2,23.2
	c0,1.8-3.4,6-12.9,9.9c-9.9,4.1-22.7,6.4-35.2,6.4c-49.1,0-59.8-29.3-74.6-69.8c-0.8-2.2-1.6-4.4-2.4-6.6c-1.1-3.1-4.6-4.7-7.7-3.5
	c-3.1,1.1-4.7,4.6-3.5,7.7c0.8,2.2,1.6,4.4,2.4,6.6c15.2,41.7,28.4,77.7,85.8,77.7c29,0,60-11.3,60-28.2c0-21.6-14.1-27.2-46.4-34.8
	c-14.1-3.3-28.6-6.7-40.1-14c-14.5-9.1-21.5-22.2-21.5-40.2c0-13.3,5.1-25.2,14.4-33.6c10.7-9.6,26.3-14.5,46.4-14.5
	c28.5,0,44.4,11.8,52.9,21.8c7.8,9.2,12.7,21,14,33h-20c-2.4-15.1-14-35-46.8-35c-12.9,0-22.5,2.1-29.4,6.5
	c-7.5,4.8-11.5,12.3-11.5,21.7c0,21.6,14.1,27.2,46.4,34.8c14.1,3.3,28.6,6.7,40.1,14c14.5,9.1,21.5,22.2,21.5,40.2
	c0,17.9-13,29-23.9,35.1c-14.6,8.2-35,12.9-56,12.9c-31.9,0-55.9-9.8-73.4-29.8c-15-17.2-23.2-39.4-31-60.9c-7.3-20-14.2-39-26-52.7
	c-8-9.3-22.3-21.8-53.8-21.8c-6.2,0-22.2,1-37.1,10.5c-13.3,8.4-29.2,26-29.2,62.2c0,54.7,29.7,67.7,55.6,72.9
	c12.3,2.5,29.4,1,44.5-3.9c4.1-1.3,7.9-2.8,11.3-4.5l10.5,16.9c-14.9,7.7-35.1,12.5-53.3,12.5c-6.1,0-11.8-0.5-17-1.6
	c-12.6-2.5-31.2-7.6-46.3-21.9c-16.7-15.9-25.2-39.6-25.2-70.4c0-39.4,16.2-61.3,29.7-72.7c15-12.6,35.5-19.8,56.4-19.8
	c29.8,0,52.4,9.4,68.9,28.7c6.4,7.5,12.1,16.7,17.5,28.2c1.4,3,4.9,4.3,7.9,2.9c3-1.4,4.3-4.9,2.9-7.9c-5.8-12.5-12.1-22.6-19.2-31
	C-8,166.5-33.5,155.7-67,155.7c-23.7,0-47.1,8.2-64.1,22.6c-15.5,13.1-34,37.9-34,81.8c0,34.2,9.7,60.8,28.9,79
	c17.4,16.5,38.1,22.2,52.2,25c5.9,1.2,12.4,1.8,19.3,1.8c22.8,0,47.6-6.6,64.7-17.2c2.8-1.7,3.6-5.5,1.9-8.2l-16.8-26.9
	c-1.7-2.8-5.4-3.6-8.2-1.9c-2.6,1.6-7,3.9-13.8,6.1c-13.3,4.3-28.1,5.6-38.6,3.5c-23.9-4.8-46-15.5-46-61.2
	c0-56.4,41.6-60.8,54.4-60.8c26.6,0,38.3,10,44.8,17.6c10.4,12.2,17,30.1,23.9,49.1c8.2,22.5,16.7,45.8,33.2,64.7
	c19.9,22.8,46.9,33.9,82.4,33.9c45.6,0,91.7-20.6,91.7-60C209.1,282.6,199.9,265.7,182,254.4z"/>
</svg>
