<?xml version="1.0" encoding="iso-8859-1"?>
<!-- Generator: Adobe Illustrator 19.0.0, SVG Export Plug-In . SVG Version: 6.00 Build 0)  -->
<svg version="1.1" id="Layer_1" xmlns="http://www.w3.org/2000/svg" xmlns:xlink="http://www.w3.org/1999/xlink" x="0px" y="0px"
	 viewBox="0 0 508 508" style="enable-background:new 0 0 508 508;" xml:space="preserve">
<path style="fill:#EB1A22;" d="M504,378.4c0,68.8-56.4,125.6-125.2,125.6H129.2C60.4,504,4,447.6,4,378.4V129.2
	C4,60.4,60.4,4,129.2,4h249.6C447.6,4,504,60,504,129.2V378.4z"/>
<path style="fill:#FFFFFF;" d="M182.8,407.6c0.4,2,3.2,2.8,4.4,1.2c2-2.4,25.2-30.4,33.6-58.8c2.4-8,13.2-49.2,13.2-49.2
	c6.4,12,25.2,22.4,45.2,22.4c59.6,0,100-52.4,100-122.8C378.8,147.2,332.4,98,261.6,98c-88,0-132.4,61.2-132.4,112
	c0,30.8,12,58.4,38,68.4c4.4,1.6,8,0,9.2-4.4c0.8-3.2,2.8-11.2,4-14.4c1.2-4.4,0.8-6-2.8-10c-7.6-8.4-12.4-19.6-12.4-35.2
	c0-45.2,35.2-86,91.2-86c49.6,0,77.2,29.6,77.2,68.8c0,51.6-23.6,95.2-58.8,95.2c-19.2,0-34-15.6-29.2-34.4
	c5.6-22.8,16.4-47.2,16.4-63.6c0-14.8-8-26.8-24.8-26.8c-20,0-35.6,20-35.6,46.4c0,16.8,6,28.4,6,28.4s-20.4,83.2-24,97.6
	C176.4,368.8,182.4,404.4,182.8,407.6"/>
<path d="M185.2,413.6c-0.8,0-1.2,0-2-0.4c-2.4-0.8-4.4-2.8-4.4-5.2v-0.8c-2.4-15.2-5.2-44.4,0.8-68.8c0.4-2,2.8-3.6,4.8-2.8
	c2,0.4,3.6,2.8,2.8,4.8c-5.2,22-3.2,48-1.2,62.8c8.4-10.4,24.4-32.8,30.4-54.4c2.4-8,12.8-48.8,12.8-49.2c0.4-1.6,1.6-2.8,3.2-2.8
	c1.6,0,3.2,0.8,4,2c5.2,10,22.4,20.4,41.6,20.4c56.4,0,96-48.8,96-118.8c0.8-48.4-41.6-98.4-112.4-98.4
	c-53.2,0-128.4,33.6-128.4,108c0,31.6,13.2,56,35.2,64.8c1.2,0.4,2,0.4,2.8,0s1.2-1.2,1.2-2c0.4-1.6,1.2-4.4,2-7.2
	c0.8-2.8,1.6-5.6,2-7.2c0.8-2.8,0.8-3.2-2-6.4c-8.8-10-13.2-22.4-13.2-37.6c0-58.4,49.2-90,95.2-90c49.2,0,81.2,28.4,81.2,72.8
	c0,56.4-26.8,99.2-62.8,99.2c-11.2,0-21.2-4.8-27.6-12.8c-6-7.6-8-16.8-5.6-26.8c2-8.4,4.8-16.8,7.6-25.2c1.2-3.2,2-6.4,2.8-9.2
	c3.2-10,6-20.4,6-28.4c0-5.2-1.6-22.8-20.8-22.8c-17.6,0-31.6,18.8-31.6,42.4c0,15.6,5.6,26.4,5.6,26.4c1.2,2,0.4,4.4-1.6,5.2
	c-2,1.2-4.4,0.4-5.2-1.6c-0.4-0.4-6.4-12.4-6.4-30.4c0-28.4,17.6-50.4,39.6-50.4c17.6,0,28.8,12,28.8,30.8c0,9.2-3.2,20-6.4,30.4
	c-0.8,3.2-2,6.4-2.8,9.2c-2.4,8-5.2,16.4-7.2,24.4c-1.6,7.2-0.4,14.4,4,20c4.8,6,12.8,9.6,21.2,9.6c31.2,0,54.8-39.2,54.8-91.2
	c0-40-28-64.8-73.2-64.8c-42.4,0-87.2,28.8-87.2,82c0,13.2,3.6,24,11.2,32.4c4.4,4.8,5.2,8,3.6,13.6c-0.4,1.6-1.2,4.4-2,7.2
	c-0.8,2.8-1.6,5.6-2,7.2c-0.8,3.2-2.8,5.6-5.2,7.2c-2.8,1.2-6,1.6-9.2,0c-25.2-10-40.4-37.2-40.4-72c0-28,12.4-56.4,34.4-78
	c17.6-17.2,49.6-38,102-38c34,0,65.2,11.6,88,32.4c21.2,19.6,33.2,46.8,33.2,74c0,73.6-43.6,126.8-104,126.8
	c-16.8,0-33.6-7.2-43.6-17.2c-3.2,12.4-9.2,35.6-10.8,41.2c-7.2,24.8-26,50-33.6,59.6l-0.4,0.4C189.2,412.8,187.2,413.6,185.2,413.6
	z"/>
<path d="M378.8,508H129.2C58,508,0,450,0,379.2V129.6C0,58,58,0,129.2,0h249.6C450,0,508,58,508,129.6v249.6
	C508,450,450,508,378.8,508z M129.2,8C62.4,8,8,62.4,8,129.6v249.6C8,446,62.4,500,129.2,500h249.6c66.8,0,121.2-54.4,121.2-120.8
	V129.6C500,62.8,445.6,8,378.8,8C378.8,8,129.2,8,129.2,8z"/>
<path d="M370,484H138c-62,0-114-52.4-114-114V138C24,76.4,76,24,138,24h231.2c2.4,0,4,1.6,4,4s-1.6,4-4,4H138
	C80.4,32,32,80.4,32,138.4v232c0,57.6,48.8,106,106,106h232c57.6,0,106-48.4,106-106V258c0-2.4,1.6-4,4-4s4,1.6,4,4v112.4
	C484,432,432,484,370,484z"/>
<path d="M446.8,65.2c-1.2,0-2-0.4-2.8-1.2c-20.4-20.4-48-32.4-75.2-32.4c-2.4,0-4-1.6-4-4s1.6-4,4-4c29.2,0,58.8,12.8,80.8,34.4
	c1.6,1.6,1.6,4,0,5.6C449.2,64.8,448,65.2,446.8,65.2z"/>
<path d="M480,234c-2.4,0-4-1.6-4-4v-59.2c0-2.4,1.6-4,4-4s4,1.6,4,4V230C484,232.4,482.4,234,480,234z"/>
<g>
</g>
<g>
</g>
<g>
</g>
<g>
</g>
<g>
</g>
<g>
</g>
<g>
</g>
<g>
</g>
<g>
</g>
<g>
</g>
<g>
</g>
<g>
</g>
<g>
</g>
<g>
</g>
<g>
</g>
</svg>
