<?xml version="1.0" encoding="utf-8"?>
<!-- Generator: Adobe Illustrator 19.0.0, SVG Export Plug-In . SVG Version: 6.00 Build 0)  -->
<svg version="1.1" id="Layer_1" xmlns="http://www.w3.org/2000/svg" xmlns:xlink="http://www.w3.org/1999/xlink" x="0px" y="0px"
	 viewBox="-234 4.9 512 512" style="enable-background:new -234 4.9 512 512;" xml:space="preserve">
<style type="text/css">
	.st0{fill:#59AAE7;}
	.st1{fill:#FCFCFC;}
	.st2{fill:#D8D7DA;}
</style>
<g>
	<path class="st0" d="M-113.9,512.4c-63.7,0-115.6-51.8-115.6-115.6V124.9c0-63.7,51.8-115.6,115.6-115.6h271.9
		c63.7,0,115.6,51.8,115.6,115.6v271.9c0,63.7-51.8,115.6-115.6,115.6H-113.9z"/>
	<path d="M157.9,13.9c29.7,0,57.6,11.6,78.5,32.5S269,95.3,269,124.9v271.9c0,29.7-11.6,57.6-32.5,78.5s-48.9,32.5-78.5,32.5h-271.9
		c-29.7,0-57.6-11.6-78.5-32.5s-32.5-48.9-32.5-78.5V124.9c0-29.7,11.6-57.6,32.5-78.5s48.9-32.5,78.5-32.5H157.9 M157.9,4.9h-271.9
		C-180.2,4.9-234,58.6-234,124.9v271.9c0,66.3,53.8,120.1,120.1,120.1h271.9c66.3,0,120.1-53.8,120.1-120.1V124.9
		C278,58.6,224.2,4.9,157.9,4.9L157.9,4.9z"/>
</g>
<path class="st1" d="M-66.4,314.3l-80-40c-2.2-1.1-2.2-4.2,0-5.3l303.8-157.1c2.2-1.2,4.8,0.8,4.3,3.2l-52.3,261.5
	c-0.4,1.9-2.4,2.9-4.1,2.2l-71.1-30.5c-0.9-0.4-1.8-0.3-2.6,0.1l-91.8,51c-2,1.1-4.5-0.3-4.5-2.6v-79.9
	C-64.8,315.8-65.4,314.8-66.4,314.3z"/>
<path class="st2" d="M-31.9,341.2l-0.5-79.8c0-0.5,0.3-1,0.7-1.3l129.7-79.2c1.5-0.9,3,1,1.8,2.3L1.1,282.6
	c-0.1,0.1-0.2,0.2-0.3,0.4l-16.9,33.8l-13.1,25.2C-29.9,343.2-31.9,342.7-31.9,341.2z"/>
<path d="M118.4,287.3l-16.2,80.8L36,339.7c-2.3-1-4.9-0.9-7.1,0.4l-85,47.2v-72.5c0-3.1-1.7-5.9-4.5-7.2l-72-36l283.5-146.7
	l-24.6,123c-1,5,2.8,9.7,7.9,9.7l0,0c3.9,0,7.2-2.7,7.9-6.5l27.9-139.5c0.6-3-0.6-6.2-3.1-8c-2.5-1.9-5.8-2.2-8.6-0.7l-312.6,161.7
	c-2.7,1.4-4.4,4.2-4.4,7.2c0,3,1.7,5.8,4.5,7.2l81.8,40.9v81c0,2.1,0.7,4.2,2.2,5.8c1.6,1.7,3.8,2.6,5.9,2.6c1.4,0,2.7-0.3,3.9-1
	l93.5-52l71.6,30.7c1.5,0.7,3.2,0.9,4.8,0.6c3.4-0.6,5.8-3.2,6.5-6.4l18.1-90.6c1-5-2.8-9.7-7.9-9.7l0,0
	C122.5,280.8,119.2,283.5,118.4,287.3z"/>
<path d="M-33.8,355c0.6,0.1,1.2,0.2,1.9,0.2c3,0,5.8-1.7,7.2-4.5l31.8-63.5l106.9-106.9c2.9-2.9,3.2-7.5,0.6-10.7
	c-2.5-3.2-7.1-4-10.6-1.9L-36.1,254c-2.4,1.5-3.8,4.1-3.8,6.9v86.2C-40,350.8-37.4,354.1-33.8,355z M-23.8,265.4l77.6-47.8
	l-59.1,59.1c-0.6,0.6-1.1,1.3-1.5,2.1l-17,34L-23.8,265.4L-23.8,265.4z"/>
<path d="M138,490.9H-94c-62.8,0-114-50.8-114-113.6v-232c0-62,52-114.4,114-114.4h231.2c2.4,0,4,1.6,4,4c0,2.4-1.6,4-4,4H-94
	c-57.6,0-106,48.8-106,106.4v232c0,58.4,47.6,105.6,106,105.6h232c58.4,0,106-47.2,106-105.6V264.9c0-2.4,1.6-4,4-4s4,1.6,4,4v112.4
	C252,440.1,200.8,490.9,138,490.9z"/>
<path d="M214.8,72.5c-1.2,0-2-0.4-2.8-1.2c-20.8-20.8-48-32.4-75.2-32.4c-2.4,0-4-1.6-4-4c0-2.4,1.6-4,4-4
	c29.2,0,58.4,12.8,80.8,34.8c1.6,1.6,1.6,4,0,5.6C217.2,72.1,216,72.5,214.8,72.5z"/>
<path d="M248,240.9c-2.4,0-4-1.6-4-4v-59.2c0-2.4,1.6-4,4-4s4,1.6,4,4v59.2C252,239.3,250.4,240.9,248,240.9z"/>
</svg>
