<?xml version="1.0" encoding="utf-8"?>
<!-- Generator: Adobe Illustrator 19.0.0, SVG Export Plug-In . SVG Version: 6.00 Build 0)  -->
<svg version="1.1" id="Layer_1" xmlns="http://www.w3.org/2000/svg" xmlns:xlink="http://www.w3.org/1999/xlink" x="0px" y="0px"
	 viewBox="-239 9.9 502 502" style="enable-background:new -239 9.9 502 502;" xml:space="preserve">
<style type="text/css">
	.st0{fill:#44678D;}
	.st1{fill:#FFFFFF;}
</style>
<path class="st0" d="M262,385.3c0,68.8-56.4,125.6-125.2,125.6h-249.6c-68.8,0-125.2-56.8-125.2-125.6V135.7
	c0-68.8,56.4-124.8,125.2-124.8h249.6c68.8,0,125.2,55.6,125.2,124.8V385.3z"/>
<path d="M136.8,514.9h-249.6c-71.2,0-129.2-57.6-129.2-128.8V136.5c0-71.2,58-129.6,129.2-129.6h249.6C208,6.9,266,65.3,266,136.5
	v249.6C266,457.3,208,514.9,136.8,514.9z M-112.8,14.9c-66.8,0-121.2,54.8-121.2,121.6v249.6c0,66.4,54.4,120.8,121.2,120.8h249.6
	c66.8,0,121.2-54,121.2-120.8V136.5c0-67.2-54.4-121.6-121.2-121.6H-112.8z"/>
<path d="M128,490.9h-232c-62.8,0-114-50.8-114-113.6v-232c0-62,52-114.4,114-114.4h231.2c2.4,0,4,1.6,4,4c0,2.4-1.6,4-4,4H-104
	c-57.6,0-106,48.8-106,106.4v232c0,58.4,47.6,105.6,106,105.6h232c58.4,0,106-47.2,106-105.6V264.9c0-2.4,1.6-4,4-4s4,1.6,4,4v112.4
	C242,440.1,190.8,490.9,128,490.9z"/>
<path d="M204.8,72.5c-1.2,0-2-0.4-2.8-1.2c-20.8-20.8-48-32.4-75.2-32.4c-2.4,0-4-1.6-4-4c0-2.4,1.6-4,4-4
	c29.2,0,58.4,12.8,80.8,34.8c1.6,1.6,1.6,4,0,5.6C207.2,72.1,206,72.5,204.8,72.5z"/>
<g>
	<g>
		<path class="st1" d="M143.7,258.6c-1.5,2.1-2.9,4.3-4.1,6.5c-4.5,8.1-4.2,12.6,2.4,19.4c10.4,10.7,21.5,20.7,31.6,31.8
			c7.3,8,14.1,16.7,19.9,25.8c7.3,11.6,2.8,22.5-10.9,24.4c-8.6,1.2-50.7,0-52.9,0c-11.3-0.1-21.2-4-29.2-11.7
			c-8.9-8.6-17-17.9-25.5-26.9c-2.6-2.7-5.3-5.3-8.3-7.5c-7-5.3-13.8-4.1-17.1,4.1c-2.8,7-5.2,25.5-5.3,27.1
			c-0.6,8.3-5.8,13.5-15.1,14c-26.7,1.4-52.5-1.5-76.6-14.4c-20.4-10.9-36.7-26.4-50.8-44.4c-22.4-28.6-40.1-60.1-56.3-92.5
			c-0.8-1.7-17.2-36.5-17.7-38.2c-1.5-5.5-0.1-10.8,4.6-12.6c2.9-1.1,56.9,0,57.8,0c8.6,0.5,14.5,4.1,18.1,13.1l0,0
			c10.3,25.5,23.4,49.5,40.6,71.1c2.3,2.9,5.2,5.4,8.2,7.5c4.4,3,8.6,2,10.4-3.1c1.9-5.3,3.7-16.1,3.8-21.7
			c0.3-14.6,0-24.2-0.8-38.7c-0.5-9.3-3.8-17.5-17.6-20c-4.2-0.8-4.6-4.3-1.9-7.7c5.7-7.3,13.6-8.4,22.1-8.9
			c13.9-0.8,27.8-0.1,41.7,0c5.7,0.1,11.4,0.5,16.9,1.7c7.3,1.6,11.2,6.7,12.4,13.8c0.6,3.7,0.9,7.4,0.9,11.1
			c-0.4,15.9-1.1,31.9-1.3,47.8c-0.1,6.3,0.4,12.7,1.7,18.7c1.9,8.5,7.7,10.6,13.6,4.5c7.5-7.8,14.1-16.5,20.3-25.4
			c11.3-16.2,19.7-33.9,27-52.3c3.8-9.4,6.6-11.5,16.8-11.5c19.1,0,38.2-0.1,57.3,0c3.4,0,6.9,0.3,10.1,1.4c5.2,1.7,7.3,5.9,6,11.3
			C193.3,189.2,143.7,258.6,143.7,258.6z"/>
		<path d="M165.3,371.4c-10.1,0-22.4-0.2-32.5-0.5c-1.7,0-2.9-0.1-3.2-0.1c-12.6-0.1-23.4-4.4-32.2-12.9
			c-5.8-5.6-11.3-11.6-16.6-17.3c-2.9-3.2-6-6.5-9-9.6c-2.7-2.9-5.3-5.2-7.8-7.1c-2.5-1.9-4.8-2.7-6.5-2.2c-1.9,0.5-3.1,2.7-3.8,4.4
			c-2.5,6.3-4.9,24-5,25.8c-0.8,10.7-7.9,17.4-19.2,18.1c-31.6,1.7-56.7-3-78.9-14.9c-19.2-10.3-36.2-25.2-52.2-45.6
			c-19.5-24.9-37-53.7-56.8-93.3c-0.2-0.3-17.3-36.6-18-39c-2.2-8.1,0.7-15.3,7.2-17.8c4.4-1.7,59.1-0.3,59.6-0.2
			c10.7,0.6,17.9,5.7,22,15.8c11,27.2,24.1,50.1,40,70c1.9,2.4,4.4,4.7,7.3,6.6c1.3,0.9,2.2,1,2.5,0.9c0.3-0.1,0.9-0.7,1.3-1.8
			c1.8-5,3.4-15.3,3.5-20.3c0.3-14.4,0-23.9-0.8-38.4c-0.4-8.1-3-14-14-15.9c-4.5-0.8-6.1-3.5-6.7-5.1c-1.1-2.9-0.3-6.5,2.2-9.6
			c6.9-8.8,16.7-10.1,25.4-10.5c10.5-0.6,21-0.4,31.3-0.2c3.6,0.1,7.2,0.1,10.7,0.2c6.6,0.1,12.5,0.7,17.8,1.8
			c8.6,1.9,14.2,8,15.8,17.3c0.7,4.1,1,8.1,0.9,12c-0.1,6.6-0.4,13.2-0.6,19.7c-0.3,9.2-0.6,18.7-0.7,28.1
			c-0.1,6.6,0.5,12.5,1.6,17.8c0.7,3.2,1.9,4.4,2.4,4.5c0.5,0.1,1.8-0.2,3.7-2.1c6.3-6.5,12.4-14.2,19.9-24.9
			c9.7-13.9,18.1-30.2,26.5-51.4c4.4-11.2,8.9-14.3,20.8-14.3c22.2-0.1,40.4-0.1,57.3,0c4.5,0,8.2,0.5,11.4,1.6
			c7.2,2.3,10.7,8.7,9,16.4c-0.5,2.4-2.9,3.8-5.2,3.3c-2.4-0.5-3.8-2.9-3.3-5.2c1-4.2-1.2-5.5-3.1-6.1c-2.4-0.8-5.3-1.1-8.8-1.1
			c-16.9-0.1-35.2-0.1-57.3,0c-8.3,0-9.6,0.9-12.7,8.8c-8.6,21.8-17.3,38.7-27.4,53.1c-7.7,11.1-14.1,19.1-20.8,26
			c-5.3,5.5-10,5.2-12.4,4.5c-2.5-0.7-6.8-3.1-8.6-11.1c-1.3-5.9-1.9-12.5-1.8-19.7c0.1-9.4,0.4-19,0.7-28.2
			c0.2-6.4,0.4-13.1,0.6-19.6c0.1-3.3-0.2-6.8-0.8-10.3c-1-5.8-3.9-9.1-9-10.2c-4.8-1-10-1.6-16.1-1.6c-3.6,0-7.2-0.1-10.8-0.2
			c-10.1-0.2-20.5-0.4-30.7,0.2c-9,0.5-14.7,1.8-18.9,7.2c-0.2,0.3-0.4,0.6-0.5,0.8c13.3,2.5,20.2,10.3,20.9,24
			c0.8,14.7,1.1,24.3,0.8,39.1c-0.1,5.8-1.9,17.1-4,23.1c-1.3,3.6-3.7,6.2-6.8,7.2c-3.2,1-6.8,0.3-10.2-2c-3.6-2.4-6.7-5.3-9.1-8.4
			c-16.4-20.6-29.9-44.2-41.3-72.2c-2.8-6.9-7-9.9-14.3-10.3c-3.6-0.1-50.7-1-56.2-0.2c-2.3,1.1-2.4,4.5-1.7,7.1
			c1.2,3.2,16.4,35.5,17.4,37.5c19.5,39,36.7,67.3,55.9,91.8c15.2,19.4,31.4,33.6,49.5,43.3c20.8,11.1,44.4,15.5,74.3,13.9
			c6.8-0.4,10.5-3.7,10.9-10c0.1-1.2,2.5-20.5,5.6-28.4c2.6-6.4,6.6-8.8,9.6-9.6c4.4-1.2,9.5,0.1,14.2,3.7c2.8,2.2,5.7,4.8,8.8,8
			c3.1,3.2,6.1,6.5,9.1,9.8c5.2,5.7,10.6,11.6,16.3,17c7.1,6.9,16,10.4,26.2,10.4c0.3,0,1.5,0,3.4,0.1c27.8,0.6,44.2,0.6,48.9,0
			c4.9-0.7,8.4-2.8,9.9-5.9c1.5-3.2,0.8-7.4-2.1-11.9c-5.5-8.6-12-17.1-19.4-25.2c-5.8-6.4-12.2-12.6-18.4-18.6
			c-4.3-4.2-8.8-8.6-13.1-13.1c-7.7-8-8.5-14.6-3-24.5c1.6-2.8,3-5,4.4-7c1.4-2,4.2-2.4,6.1-0.9c1.9,1.4,2.4,4.2,0.9,6.1
			c-1.2,1.7-2.5,3.6-3.8,6.1c-3.6,6.6-3.4,9,1.7,14.2c4.2,4.4,8.7,8.7,13,12.9c6.2,6.1,12.7,12.4,18.7,19
			c7.8,8.5,14.6,17.4,20.3,26.5c4.5,7,5.4,14.2,2.6,20.2c-2.7,5.9-8.6,9.7-16.6,10.9C180,371.3,173.4,371.4,165.3,371.4z
			 M168.8,227.2c-0.9,0-1.8-0.2-2.6-0.7c-2-1.3-2.5-4-1.2-6c3.9-5.7,7.2-10.8,10.3-15.4c1.3-2,4-2.6,6-1.3c2,1.3,2.6,4,1.3,6
			c-3.1,4.7-6.4,9.8-10.3,15.5C171.4,226.5,170.1,227.1,168.8,227.2z"/>
	</g>
</g>
</svg>
