<?xml version="1.0" encoding="iso-8859-1"?>
<!-- Generator: Adobe Illustrator 19.0.0, SVG Export Plug-In . SVG Version: 6.00 Build 0)  -->
<svg version="1.1" id="Layer_1" xmlns="http://www.w3.org/2000/svg" xmlns:xlink="http://www.w3.org/1999/xlink" x="0px" y="0px"
	 viewBox="0 0 511.999 511.999" style="enable-background:new 0 0 511.999 511.999;" xml:space="preserve">
<g>
	<g>
		<g>
			<path d="M171.678,266.843H93.714c-5.633,0-10.2,4.567-10.2,10.2v62.993c0,5.633,4.567,10.2,10.2,10.2h73.529
				c0.077,0,0.152-0.001,0.229-0.002c17.138-0.385,37.567-7.743,37.567-40.609C205.039,276.047,184.116,266.934,171.678,266.843z
				 M167.124,329.836h-63.21v-42.593h67.687c3.059,0.04,13.039,1.773,13.039,22.382C184.64,326.426,178.992,329.552,167.124,329.836
				z"/>
			<path d="M424.983,233.748c-8.174-8.216-19.426-12.382-33.444-12.382c-24.069,0-42.736,13.231-51.215,36.302
				c-1.15,3.128-0.699,6.622,1.21,9.355c1.907,2.734,5.03,4.362,8.364,4.362h77.799c3.048,0,5.935-1.364,7.874-3.715
				c1.938-2.352,2.721-5.448,2.137-8.439C436.301,252.028,432.951,241.76,424.983,233.748z M367.718,250.986
				c5.928-6.129,13.894-9.221,23.822-9.221c8.39,0,14.777,2.142,18.979,6.368c0.881,0.886,1.664,1.847,2.359,2.853H367.718z"/>
			<path d="M93.714,225.889h72.597c5.172,0,12.99,0,19.454-6.289c6.146-5.98,9.01-15.868,9.01-31.119
				c0-31.093-20.522-32.869-22.862-32.969c-0.145-0.006-0.291-0.009-0.437-0.009l-77.762,0.003c-5.633,0-10.2,4.568-10.2,10.2
				v49.984C83.514,221.322,88.081,225.889,93.714,225.889z M103.914,175.904l67.029-0.003c1.184,0.391,3.432,3.822,3.432,12.579
				c0,13.354-2.545,16.215-2.835,16.497c-0.526,0.512-3.471,0.512-5.231,0.512h-62.396V175.904z"/>
			<path d="M481.272,198.757c-21.252-24.199-51.832-36.47-90.891-36.47c-67.866,0-100.238,36.27-115.445,66.698
				c-3.527,7.057-6.283,14.083-8.436,20.784c-1.891-2.661-3.931-5.151-6.118-7.461c-1.864-1.971-3.828-3.807-5.889-5.505
				c10.045-10.715,18.763-27.374,18.763-52.912c0-30.303-10.548-55.462-30.503-72.757c-18.043-15.637-42.636-23.902-71.119-23.902
				H18.128C8.132,87.231,0,95.364,0,105.36v295.026c0,9.996,8.132,18.128,18.128,18.128h153.305
				c0.261,0.005,0.676,0.011,1.233,0.011c7.354,0,33.3-0.999,58.413-13.848c14.675-7.505,31.914-20.635,42.508-43.168
				c4.872,9.551,10.887,18.176,18.01,25.808c23.058,24.707,56.146,37.279,98.342,37.367c0.744,0.033,2.293,0.085,4.479,0.085
				c10.631,0,38.081-1.29,63.267-13.244c34.344-16.293,51.758-43.646,51.758-81.297c0-3.576-1.04-6.914-2.836-9.726
				c2.353-2.639,3.954-5.976,4.44-9.692C511.411,308.032,519.476,242.273,481.272,198.757z M491.04,306.196H348.543
				c-2.911,0-5.683,1.243-7.619,3.418s-2.85,5.072-2.512,7.963c1.933,16.578,9.612,29.3,22.209,36.792
				c11.792,7.013,24.677,7.77,29.67,7.77c1.017,0,1.678-0.033,1.891-0.045c18.257-0.011,32.343-4.57,40.74-13.181
				c6.521-6.686,8.235-12.938,8.646-16.415h47.454c-0.662,28.288-13.79,48.124-40.077,60.595
				c-21.443,10.175-45.275,11.274-54.525,11.274c-2.086,0-3.395-0.055-3.747-0.072c-0.161-0.008-0.321-0.012-0.481-0.012
				c-36.432-0.036-64.585-10.427-83.678-30.885c-11.696-12.534-19.814-28.518-24.127-47.511c-1.059-4.664-5.205-7.942-9.942-7.942
				c-0.174,0-0.352,0.005-0.528,0.013c-4.953,0.254-9.006,4.034-9.603,8.959c-3.334,27.5-16.968,47.551-40.522,59.599
				c-21.053,10.772-42.921,11.61-49.122,11.61c-0.416,0-0.702-0.004-0.846-0.008c-0.09-0.002-0.18-0.003-0.269-0.003H20.4V107.63
				h151.234c23.505,0,43.478,6.541,57.758,18.918c15.35,13.304,23.464,33.131,23.464,57.341c0,20.867-7.081,36.201-21.046,45.572
				c-3.035,2.036-4.747,5.54-4.491,9.185c0.256,3.644,2.443,6.875,5.732,8.466c4.647,2.249,8.856,5.348,12.511,9.214
				c6.593,6.969,11.456,16.489,14.45,28.298c1.21,4.771,5.659,7.992,10.563,7.67c4.911-0.326,8.887-4.113,9.456-9
				c1.304-11.214,4.642-28.157,13.153-45.19c12.635-25.281,39.754-55.416,97.196-55.416c32.932,0,58.355,9.936,75.562,29.53
				C495.174,245.512,492.086,295.509,491.04,306.196z M421.614,326.595c-0.238,1.205-0.355,2.441-0.342,3.694
				c-0.141,0.491-0.743,2.11-2.958,4.382c-4.351,4.464-13.903,7.024-26.206,7.024c-0.353,0-0.771,0.013-1.073,0.033
				c-0.111,0.005-0.368,0.012-0.746,0.012c-1.837,0-11.394-0.237-19.242-4.904c-4.109-2.444-7.195-5.832-9.301-10.241H421.614z"/>
		</g>
	</g>
</g>
<g>
	<g>
		<path d="M448.626,87.54h-121.73c-9.996,0-18.129,7.646-18.129,17.044v31.35c0,9.398,8.132,17.045,18.129,17.045h121.73
			c9.997,0,18.128-7.646,18.128-17.044v-31.351C466.754,95.186,458.623,87.54,448.626,87.54z M446.355,132.579H329.166V107.94
			h117.189V132.579z"/>
	</g>
</g>
<g>
	<g>
		<path d="M40.8,315.158c-5.633,0-10.2,4.567-10.2,10.2v51c0,5.633,4.567,10.2,10.2,10.2s10.2-4.567,10.2-10.2v-51
			C51,319.725,46.433,315.158,40.8,315.158z"/>
	</g>
</g>
<g>
	<g>
		<path d="M40.8,278.439c-5.633,0-10.2,4.566-10.2,10.2v5.1c0,5.633,4.567,10.2,10.2,10.2s10.2-4.567,10.2-10.2v-5.1
			C51,283.005,46.433,278.439,40.8,278.439z"/>
	</g>
</g>
<g>
</g>
<g>
</g>
<g>
</g>
<g>
</g>
<g>
</g>
<g>
</g>
<g>
</g>
<g>
</g>
<g>
</g>
<g>
</g>
<g>
</g>
<g>
</g>
<g>
</g>
<g>
</g>
<g>
</g>
</svg>
