<?xml version="1.0" encoding="iso-8859-1"?>
<!-- Generator: Adobe Illustrator 19.0.0, SVG Export Plug-In . SVG Version: 6.00 Build 0)  -->
<svg version="1.1" id="Layer_1" xmlns="http://www.w3.org/2000/svg" xmlns:xlink="http://www.w3.org/1999/xlink" x="0px" y="0px"
	 viewBox="0 0 512 512" style="enable-background:new 0 0 512 512;" xml:space="preserve">
<g>
	<g>
		<path d="M403.119,270.381h-71.712l77.852-148.448c0.766-1.462,1.167-3.087,1.167-4.738V10.199C410.426,4.567,405.86,0,400.227,0
			h-88.922c-3.763,0-7.221,2.072-8.996,5.392l-50.042,93.65H111.05c-5.633,0-10.199,4.567-10.199,10.199v120.732
			c0,5.632,4.566,10.199,10.199,10.199h65.804L99.885,384.215c-0.79,1.479-1.203,3.129-1.203,4.807v112.779
			c0,5.632,4.566,10.199,10.199,10.199h89.645c3.793,0,7.272-2.103,9.033-5.462l49.835-95.027h145.725
			c5.633,0,10.199-4.567,10.199-10.199V280.58C413.319,274.948,408.752,270.381,403.119,270.381z M392.919,391.113H251.226
			c-3.792,0-7.271,2.103-9.032,5.462l-49.835,95.027h-73.277V391.574l83.783-156.794c1.689-3.161,1.595-6.976-0.248-10.05
			c-1.843-3.073-5.164-4.955-8.748-4.955h-72.619V119.441H258.38c3.765,0,7.222-2.073,8.996-5.392l50.042-93.65h72.608v94.286
			l-84.518,161.16c-1.657,3.161-1.542,6.96,0.305,10.015c1.847,3.055,5.158,4.921,8.727,4.921h78.378V391.113z"/>
	</g>
</g>
<g>
	<g>
		<path d="M329.434,357.992h-63.235c-5.633,0-10.199,4.567-10.199,10.199c0,5.632,4.566,10.199,10.199,10.199h63.235
			c5.633,0,10.199-4.567,10.199-10.199C339.633,362.559,335.067,357.992,329.434,357.992z"/>
	</g>
</g>
<g>
	<g>
		<path d="M369.211,357.992h-6.12c-5.633,0-10.199,4.567-10.199,10.199c0,5.632,4.566,10.199,10.199,10.199h6.12
			c5.633,0,10.199-4.567,10.199-10.199C379.41,362.559,374.844,357.992,369.211,357.992z"/>
	</g>
</g>
<g>
</g>
<g>
</g>
<g>
</g>
<g>
</g>
<g>
</g>
<g>
</g>
<g>
</g>
<g>
</g>
<g>
</g>
<g>
</g>
<g>
</g>
<g>
</g>
<g>
</g>
<g>
</g>
<g>
</g>
</svg>
