<?xml version="1.0" encoding="utf-8"?>
<!-- Generator: Adobe Illustrator 19.0.0, SVG Export Plug-In . SVG Version: 6.00 Build 0)  -->
<svg version="1.1" id="Layer_1" xmlns="http://www.w3.org/2000/svg" xmlns:xlink="http://www.w3.org/1999/xlink" x="0px" y="0px"
	 viewBox="-478 248.9 24 24" style="enable-background:new -478 248.9 24 24;" xml:space="preserve">
<style type="text/css">
	.st0{fill:none;stroke:#000000;stroke-width:0.6;stroke-miterlimit:10;}
	.st1{fill:none;stroke:#000000;stroke-width:0.3;stroke-miterlimit:10;}
</style>
<g>
	<title>dev.to icon</title>
	<g>
		<path class="st0" d="M-471,260.4c0-3-0.1-3.2-0.5-3.9c-0.7-1.1-1.4-1.4-3.9-1.4h-2.1v11.4h2c2.2,0,3.2-0.3,3.8-1.2
			C-471,264.5-470.9,263.7-471,260.4z M-473.4,264c-0.3,0.3-0.6,0.4-1.3,0.4l-0.8,0l-0.1-3.7l0-3.7h0.9c0.6,0,1,0.1,1.3,0.3
			c0.4,0.3,0.4,0.4,0.4,3.3C-473,263.5-473.1,263.7-473.4,264z"/>
		<path class="st0" d="M-467.8,257.1v2.7h2.3v1.9l-1.1,0.1l-1.1,0v2.7l1.9,0l1.8,0.1v1.9h-2.4c-2.3,0-2.4,0-2.8-0.5l-0.5-0.4v-4.8
			c0-4.6,0-4.8,0.4-5.3c0.3-0.5,0.4-0.5,2.9-0.5h2.5v2H-467.8z"/>
		<path class="st0" d="M-456.4,255.2l1.1-0.1c0.6,0,1.1,0,1.1,0.1c0,0.2-2.5,9.7-2.7,10.1h0c-0.3,0.7-1,1.2-1.5,1.2
			c-0.3,0-0.7-0.2-1-0.6c-0.5-0.5-0.7-1-1.2-3.2l-1.4-5.1l-0.7-2.5h1.2c0.6,0,1.1,0,1.1,0.1c0,0.1,1.8,6.9,1.9,7.3
			c0.1,0.2,0.5-1.1,1.1-3.5L-456.4,255.2z"/>
	</g>
	<path class="st0" d="M-476.6,257.3"/>
	<line class="st1" x1="-476.6" y1="257.3" x2="-476.6" y2="262.3"/>
	<line class="st1" x1="-460.8" y1="258.4" x2="-459.1" y2="264.5"/>
</g>
</svg>
