<?xml version="1.0" encoding="iso-8859-1"?>
<!-- Generator: Adobe Illustrator 19.0.0, SVG Export Plug-In . SVG Version: 6.00 Build 0)  -->
<svg version="1.1" id="Layer_1" xmlns="http://www.w3.org/2000/svg" xmlns:xlink="http://www.w3.org/1999/xlink" x="0px" y="0px"
	 viewBox="0 0 512 512" style="enable-background:new 0 0 512 512;" xml:space="preserve">
<g>
	<g>
		<g>
			<path d="M256,0C114.844,0,0.004,114.836,0.004,255.988C0.004,397.153,114.844,512,256,512s255.996-114.846,255.996-256.011
				C511.996,114.836,397.156,0,256,0z M256,491.602c-129.909,0-235.598-105.695-235.598-235.614
				C20.402,126.084,126.091,20.398,256,20.398s235.598,105.685,235.598,235.59C491.598,385.906,385.909,491.602,256,491.602z"/>
			<path d="M75.292,213.712c0.082,0,0.165-0.001,0.248-0.002c28.941-0.704,87.453-4.284,154.15-20.365
				c3.133-0.755,5.724-2.946,6.99-5.908c1.266-2.964,1.057-6.35-0.564-9.135c-24.394-41.938-48.371-76.836-60.492-93.905
				c-2.976-4.192-8.609-5.512-13.14-3.081c-46.736,25.084-82.083,68.576-96.978,119.326c-0.918,3.125-0.287,6.5,1.696,9.083
				C69.135,212.242,72.126,213.712,75.292,213.712z M164.301,103.752c11.395,16.344,28.816,42.245,47.137,72.865
				c-49.579,10.895-93.439,14.808-121.751,16.166C103.892,155.904,130.343,124.282,164.301,103.752z"/>
			<path d="M280.118,169.27c1.852,3.313,5.309,5.223,8.906,5.223c1.301,0,2.622-0.25,3.892-0.773
				c47.608-19.678,74.881-45.16,86.899-58.599c1.879-2.099,2.804-4.881,2.559-7.687s-1.639-5.385-3.853-7.127
				C343.729,72.928,300.218,57.85,256,57.85c-9.375,0-18.812,0.667-28.049,1.984c-3.517,0.502-6.519,2.798-7.926,6.059
				c-1.406,3.262-1.014,7.021,1.036,9.923C233.236,93.048,257.101,128.105,280.118,169.27z M356.776,109.618
				c-12.186,11.712-32.606,27.779-63.391,41.679c-16.747-29.273-33.508-54.992-45.681-72.856
				C286.376,76.639,324.975,87.755,356.776,109.618z"/>
			<path d="M442.391,286.538c-13.112-3.271-39.884-8.76-71.868-8.76c-9.032,0-18.044,0.442-26.785,1.312
				c-3.106,0.309-5.899,2.023-7.581,4.651c-1.682,2.628-2.068,5.882-1.049,8.831c16.061,46.447,25.521,85.952,30.631,110.914
				c0.718,3.509,3.224,6.384,6.603,7.574c1.106,0.389,2.251,0.579,3.388,0.579c2.34,0,4.647-0.805,6.505-2.343
				c34.199-28.304,58.224-67.613,67.649-110.683C451.066,293.225,447.745,287.875,442.391,286.538z M381.95,381.974
				c-5.048-22.125-12.553-50.886-23.324-83.521c3.942-0.185,7.917-0.276,11.896-0.275c23.176,0,43.399,3.089,56.985,5.894
				C419.293,333.357,403.505,360.31,381.95,381.974z"/>
			<path d="M294.126,300.139c-0.942-2.557-2.868-4.629-5.349-5.756c-2.479-1.127-5.309-1.216-7.854-0.244
				c-86.837,33.125-127.673,88.89-141.199,111.328c-2.768,4.592-1.508,10.543,2.883,13.619
				c33.306,23.331,72.516,35.663,113.394,35.663c23.564,0,46.584-4.092,68.422-12.161c4.674-1.727,7.416-6.578,6.484-11.474
				C326.309,406.977,315.419,357.866,294.126,300.139z M256.001,434.35c-33.375,0-65.499-9.157-93.514-26.572
				c15.587-22.799,50.652-63.32,116.067-90.725c16.281,45.926,25.711,85.358,30.6,109.203
				C292.052,431.63,274.212,434.35,256.001,434.35z"/>
			<path d="M453.706,239.352c-3.013-34.674-15.136-68.078-35.058-96.6c-1.769-2.53-4.587-4.125-7.668-4.335
				c-3.078-0.209-6.088,0.985-8.184,3.253c-13.199,14.282-42.708,41.544-92.04,63.673c-2.49,1.117-4.429,3.186-5.382,5.743
				c-0.953,2.557-0.841,5.39,0.31,7.865c2.878,6.187,5.602,12.281,8.084,18.082l0.965,2.289c1.732,4.127,5.951,6.646,10.405,6.201
				c11.966-1.181,24.63-1.78,37.641-1.78c32.384,0,60.896,3.566,79.112,6.556c0.551,0.091,1.104,0.135,1.652,0.135
				c2.551,0,5.031-0.958,6.932-2.717C452.787,245.575,453.978,242.489,453.706,239.352z M362.779,223.344
				c-11.011,0-21.803,0.409-32.182,1.22c-0.715-1.634-1.444-3.283-2.188-4.946c38.318-18.527,64.567-39.739,80.236-54.81
				c11.653,19.436,19.514,40.97,23.129,63.345C413.479,225.651,389.392,223.344,362.779,223.344z"/>
			<path d="M265.032,258.117c2.74-0.941,4.949-3.003,6.078-5.67c1.129-2.666,1.071-5.688-0.159-8.309
				c-2.046-4.358-4.15-8.724-6.254-12.976c-2.174-4.398-7.171-6.627-11.9-5.296c-79.79,22.42-156.01,25.548-185.076,25.852
				c-2.738,0.03-5.351,1.158-7.249,3.133c-1.897,1.976-2.92,4.63-2.838,7.369c1.237,41.588,15.248,81.082,40.515,114.211
				c1.932,2.534,4.932,4.014,8.109,4.014c0.08,0,0.16-0.001,0.24-0.003c3.265-0.076,6.296-1.712,8.152-4.4
				C132.688,349.925,183.45,286.156,265.032,258.117z M106.382,352.714c-15.768-24.339-25.239-51.889-27.758-80.805
				c29.313-0.81,82.966-4.197,142.5-17.164C164.931,283.603,126.477,326.265,106.382,352.714z"/>
		</g>
	</g>
</g>
<g>
	<g>
		<path d="M401.231,418.088c-3.795-4.164-10.244-4.464-14.408-0.671c-1.942,1.77-3.944,3.552-5.949,5.298
			c-4.248,3.699-4.693,10.141-0.993,14.389c2.017,2.316,4.849,3.501,7.695,3.501c2.375,0,4.762-0.825,6.695-2.508
			c2.119-1.845,4.236-3.731,6.29-5.601C404.724,428.703,405.024,422.252,401.231,418.088z"/>
	</g>
</g>
<g>
	<g>
		<path d="M467.213,292.717c-5.646-0.087-10.238,4.478-10.288,10.11c-0.003,0.392-0.877,39.684-47.382,91.729
			c-3.753,4.2-3.39,10.648,0.81,14.401c1.946,1.739,4.373,2.594,6.792,2.594c2.804,0,5.594-1.149,7.61-3.404
			c51.57-57.713,52.552-103.232,52.57-105.143C477.373,297.372,472.845,292.766,467.213,292.717z"/>
	</g>
</g>
<g>
</g>
<g>
</g>
<g>
</g>
<g>
</g>
<g>
</g>
<g>
</g>
<g>
</g>
<g>
</g>
<g>
</g>
<g>
</g>
<g>
</g>
<g>
</g>
<g>
</g>
<g>
</g>
<g>
</g>
</svg>
