<?xml version="1.0" encoding="iso-8859-1"?>
<!-- Generator: Adobe Illustrator 19.0.0, SVG Export Plug-In . SVG Version: 6.00 Build 0)  -->
<svg version="1.1" id="Layer_1" xmlns="http://www.w3.org/2000/svg" xmlns:xlink="http://www.w3.org/1999/xlink" x="0px" y="0px"
	 viewBox="0 0 512 512" style="enable-background:new 0 0 512 512;" xml:space="preserve">
<g>
	<g>
		<path d="M426.237,211.788c-4.102-1.403-8.041-2.697-11.848-3.948l-0.428-0.141c-31.843-10.443-34.616-13.108-34.616-22.07
			c0-9.361,5.978-15.176,15.603-15.176c7.702,0,13.657,2.187,21.29,13.359c6.312,9.245,18.517,12.244,28.392,6.978l29.879-15.924
			c5.112-2.721,9.001-7.463,10.672-13.009c1.671-5.542,1.051-11.641-1.699-16.731c-9.493-17.578-21.661-31.065-36.167-40.087
			c-14.62-9.093-31.672-13.704-50.683-13.704c-28.631,0-53.049,9.177-70.615,26.537c-13.837,13.676-23.292,31.251-27.245,50.054
			c-29.638-50.875-78.511-79.511-137.385-79.511C72.396,88.416,0,163.606,0,256.028c0,92.391,72.396,167.557,161.383,167.557
			c47.734,0,81.417-16.973,112.626-56.749c4.881-6.217,6.03-14.619,2.997-21.926l-18.01-43.354
			c-3.275-7.891-10.909-13.187-19.45-13.492c-8.51-0.308-16.523,4.432-20.362,12.075c-14.733,29.387-29.859,39.802-57.801,39.802
			c-43.783,0-79.404-37.642-79.404-83.912c0-46.284,35.621-83.938,79.404-83.938c31.78,0,60.847,19.672,72.332,48.952
			c0.029,0.071,0.076,0.188,0.105,0.259l49.812,118.174c23.028,55.996,58.916,82.194,112.981,82.438h0.207
			c65.664,0,115.181-46.051,115.181-107.119C512,253.516,477.709,229.296,426.237,211.788z M396.819,401.515h-0.161
			c-45.977-0.207-74.142-21.092-94.175-69.833c-0.011-0.028-0.022-0.056-0.035-0.084l-49.742-118.005l-0.032-0.074
			c-14.542-36.985-51.219-61.828-91.292-61.828c-55.032,0-99.802,46.805-99.802,104.337c0,57.516,44.771,104.31,99.802,104.31
			c35.826,0,57.855-14.793,76.033-51.054c0.271-0.536,0.77-0.835,1.401-0.837c0.587,0.021,1.113,0.385,1.339,0.928l18.009,43.354
			c0.21,0.505,0.133,1.084-0.203,1.512c-27.277,34.764-55.257,48.944-96.579,48.944c-77.738,0-140.985-66.014-140.985-147.157
			c0-81.173,63.246-147.213,140.986-147.213c58.832,0,106.315,33.049,130.294,90.673c0.019,0.05,0.039,0.1,0.059,0.15
			c1.798,4.498,25.614,62.581,45.645,110.253c12.46,29.679,23.165,49.221,57.103,50.406c0.898,0.031,1.787,0.046,2.661,0.046
			c14.593,0,28.009-4.52,37.778-12.731c10.279-8.64,15.939-20.728,15.939-34.041c0-25.028-15.38-31.481-47.404-42.606
			c-62.684-21.564-86.371-34.318-86.371-83.137c0-20.622,8.481-40.833,23.266-55.447c13.667-13.507,33.127-20.646,56.277-20.646
			c30.707,0,53.245,14.092,68.904,43.087c0.189,0.35,0.231,0.768,0.116,1.149c-0.116,0.386-0.375,0.701-0.732,0.891l-29.886,15.928
			c-0.679,0.36-1.515,0.154-1.95-0.483c-10.516-15.389-22.277-22.252-38.135-22.252c-20.86,0-36.001,14.961-36.001,35.575
			c0,25.496,19.357,31.845,48.653,41.451l0.423,0.14c3.749,1.232,7.627,2.506,11.628,3.876c45.568,15.5,71.949,34.164,71.949,83.698
			C491.602,364.233,450.854,401.515,396.819,401.515z M341.896,267.782c15.13,8.439,33.6,15.136,54.897,22.463
			c33.671,11.698,33.671,14.162,33.671,23.328c0,16.037-14.581,27.052-35.273,26.339c-20.67-0.722-26.559-8.277-39.003-37.919
			C351.519,290.88,346.645,279.207,341.896,267.782z"/>
	</g>
</g>
<g>
	<g>
		<path d="M335.793,331.641l-39.401-94.853c-2.161-5.202-8.129-7.665-13.331-5.507c-5.202,2.161-7.667,8.129-5.507,13.331
			l39.401,94.853c1.629,3.924,5.424,6.29,9.423,6.29c1.303,0,2.629-0.252,3.908-0.783
			C335.488,342.812,337.954,336.844,335.793,331.641z"/>
	</g>
</g>
<g>
	<g>
		<path d="M283.258,205.169l-2.542-6.118c-2.161-5.201-8.126-7.667-13.331-5.505c-5.201,2.16-7.666,8.129-5.505,13.331l2.542,6.119
			c1.629,3.923,5.424,6.289,9.422,6.289c1.303,0,2.629-0.252,3.909-0.784C282.954,216.34,285.42,210.372,283.258,205.169z"/>
	</g>
</g>
<g>
</g>
<g>
</g>
<g>
</g>
<g>
</g>
<g>
</g>
<g>
</g>
<g>
</g>
<g>
</g>
<g>
</g>
<g>
</g>
<g>
</g>
<g>
</g>
<g>
</g>
<g>
</g>
<g>
</g>
</svg>
