<?xml version="1.0" encoding="iso-8859-1"?>
<!-- Generator: Adobe Illustrator 19.0.0, SVG Export Plug-In . SVG Version: 6.00 Build 0)  -->
<svg version="1.1" id="Layer_1" xmlns="http://www.w3.org/2000/svg" xmlns:xlink="http://www.w3.org/1999/xlink" x="0px" y="0px"
	 viewBox="0 0 512 512" style="enable-background:new 0 0 512 512;" xml:space="preserve">
<g>
	<g>
		<path d="M406.136,53.215c0,0,0,0-0.001,0C370.389,18.899,321.054,0,267.219,0C185.506,0,135.043,33.699,107.1,61.971
			C72.477,97,52.621,143.612,52.621,189.856c0,59.012,25.258,104.541,67.547,121.78c3.801,1.558,7.693,2.348,11.568,2.348
			c8.382,0,15.764-3.632,20.8-9.803c-8.013,33.948-16.523,69.985-19.112,80.897c-1.244,5.296-6.523,32.705-7.677,60.475
			c-1.638,39.447,5.961,60.88,23.232,65.52c2.302,0.618,4.596,0.927,6.882,0.927c16.178,0,31.916-15.478,46.874-46.152
			c10.945-22.445,18.987-47.84,21.163-55.74c1.74-6.335,6.719-25.781,11.607-45.01c16.485,10.71,37.258,17.02,57.397,17.02
			c48.074,0,91.275-21.585,121.64-60.781c28.913-37.323,44.836-89.078,44.836-145.732
			C459.379,130.314,439.973,85.703,406.136,53.215z M142.447,196.675c0-55.014,41.074-113.485,117.196-113.485
			c60.266,0,96.245,32.594,96.245,87.189c0,36.155-7.686,69.46-21.643,93.777c-8.966,15.619-24.466,34.238-47.402,34.238
			c-8.891,0-16.787-3.531-21.658-9.686c-4.533-5.732-5.933-12.979-4.047-20.959c2.859-12.099,6.792-24.829,10.622-37.217
			c7.269-23.544,14.133-45.783,14.133-64.497c0-34.957-22.693-59.37-55.186-59.37c-39.916,0-71.184,39.212-71.183,89.266
			c0,20.588,4.849,36.8,7.932,45.025l-1.677,7.103c-0.382,1.619-0.795,3.371-1.237,5.241c-1.38-5.262-4.327-9.762-8.26-14.395
			C146.715,227.581,142.447,214.557,142.447,196.675z M398.418,308.848c-26.416,34.097-63.89,52.876-105.516,52.876
			c-20.573,0-42.691-8.504-56.354-21.663c-2.617-2.521-6.379-3.458-9.874-2.462c-3.495,0.997-6.195,3.78-7.087,7.302
			c-8.335,32.893-13.646,53.572-15.356,59.797c-0.072,0.265-7.656,27.248-19.829,52.211c-13.544,27.774-24.693,35.925-30.13,34.465
			c-3.425-0.921-9.535-11.505-8.146-44.976c1.009-24.298,5.597-50.029,7.148-56.632c4.273-18.003,24.678-104.47,32.358-137.02
			l2.411-10.217c0.495-2.097,0.313-4.296-0.519-6.282c-2.285-5.459-7.603-20.315-7.603-40.314c0-38.618,22.308-68.87,50.787-68.87
			c21.134,0,34.789,15.298,34.789,38.974c0,15.638-6.425,36.448-13.248,58.552c-3.905,12.635-7.944,25.701-10.961,38.472
			c-3.322,14.06-0.516,27.663,7.903,38.306c8.766,11.075,22.49,17.426,37.653,17.426c25.881,0,48.389-15.38,65.093-44.481
			c15.702-27.359,24.349-64.269,24.349-103.931c0-32.412-11.036-59.643-31.914-78.745c-20.624-18.868-49.921-28.842-84.728-28.842
			c-52.136,0-84.375,23.198-102.241,42.659c-22.467,24.474-35.352,57.723-35.352,91.224c0,22.733,5.928,40.336,18.67,55.412
			c4.467,5.262,5.193,6.844,3.482,13.155c-0.017,0.064-0.034,0.13-0.05,0.194l-0.227,0.907c-1.339,5.358-4.126,16.511-5.341,21.082
			c-0.602,2.3-2.291,6.159-6.845,6.159c-1.21,0-2.5-0.277-3.851-0.831C93.53,278.75,73.019,240.282,73.019,189.855
			c0-40.919,17.711-82.305,48.589-113.546c25.21-25.507,70.938-55.912,145.611-55.912c48.543,0,92.861,16.881,124.789,47.532
			c29.852,28.662,46.973,67.91,46.973,107.679C438.981,227.764,424.575,275.082,398.418,308.848z"/>
	</g>
</g>
<g>
	<g>
		<path d="M238.496,207.256c-5.403-1.597-11.075,1.487-12.672,6.887l-11.219,37.929c-1.598,5.402,1.486,11.076,6.887,12.673
			c0.965,0.286,1.94,0.421,2.896,0.421c4.402,0,8.463-2.872,9.775-7.308l11.219-37.929
			C246.981,214.527,243.897,208.853,238.496,207.256z"/>
	</g>
</g>
<g>
	<g>
		<path d="M248.694,172.776c-5.401-1.597-11.075,1.487-12.673,6.887l-1.508,5.099c-1.596,5.401,1.487,11.075,6.888,12.672
			c0.965,0.286,1.94,0.421,2.896,0.421c4.402,0,8.464-2.873,9.776-7.308l1.508-5.099
			C257.178,180.046,254.095,174.373,248.694,172.776z"/>
	</g>
</g>
<g>
</g>
<g>
</g>
<g>
</g>
<g>
</g>
<g>
</g>
<g>
</g>
<g>
</g>
<g>
</g>
<g>
</g>
<g>
</g>
<g>
</g>
<g>
</g>
<g>
</g>
<g>
</g>
<g>
</g>
</svg>
