<?xml version="1.0" encoding="utf-8"?>
<!-- Generator: Adobe Illustrator 19.0.0, SVG Export Plug-In . SVG Version: 6.00 Build 0)  -->
<svg version="1.1" id="Layer_1" xmlns="http://www.w3.org/2000/svg" xmlns:xlink="http://www.w3.org/1999/xlink" x="0px" y="0px"
	 viewBox="-478 248.9 24 24" style="enable-background:new -478 248.9 24 24;" xml:space="preserve">
<style type="text/css">
	.st0{fill:none;}
	.st1{fill:none;stroke:#000000;stroke-width:1.2;stroke-miterlimit:10;}
</style>
<g>
	<path class="st0" d="M-478,248.9h24v24h-24V248.9z"/>
	<path class="st1" d="M-476.9,271.8l1.5-5.4c-1-1.7-1.5-3.6-1.5-5.5c0-6,4.9-10.9,10.9-10.9s10.9,4.9,10.9,10.9
		c0,6-4.9,10.9-10.9,10.9c-1.9,0-3.8-0.5-5.5-1.5L-476.9,271.8z M-470,255.7c-0.1,0-0.3,0-0.4,0.1c-0.1,0.1-0.2,0.2-0.3,0.2
		c-0.1,0.1-0.2,0.2-0.3,0.3c-0.4,0.5-0.6,1.2-0.6,1.8c0,0.5,0.1,1.1,0.4,1.5c0.4,1,1.2,2,2.2,3c0.2,0.2,0.5,0.5,0.7,0.7
		c1.2,1.1,2.6,1.8,4.2,2.2l0.6,0.1c0.2,0,0.4,0,0.6,0c0.3,0,0.6-0.1,0.9-0.3c0.2-0.1,0.3-0.1,0.4-0.2c0,0,0,0,0.1-0.1
		c0.1-0.1,0.2-0.2,0.4-0.3c0.1-0.1,0.2-0.2,0.2-0.3c0.1-0.2,0.2-0.5,0.2-0.8c0-0.2,0-0.3,0-0.4c0-0.1-0.1-0.2-0.2-0.3l-0.6-0.3
		c0,0-1-0.4-1.5-0.7c-0.1,0-0.1,0-0.2,0c-0.2,0-0.3,0-0.4,0.1v0c0,0-0.1,0.1-0.9,1c-0.1,0.1-0.3,0.2-0.4,0.1c-0.1,0-0.1,0-0.2-0.1
		c-0.1-0.1-0.2-0.1-0.3-0.1l0,0c-0.6-0.3-1.2-0.6-1.7-1.1c-0.1-0.1-0.3-0.3-0.4-0.4c-0.4-0.4-0.8-0.9-1.1-1.4l-0.1-0.1
		c0-0.1-0.1-0.1-0.1-0.2c0-0.2,0.1-0.3,0.1-0.3s0.3-0.3,0.4-0.4c0.1-0.1,0.2-0.3,0.3-0.4c0.1-0.2,0.2-0.4,0.1-0.6
		c-0.3-0.7-0.6-1.5-1-2.2c-0.1-0.1-0.3-0.3-0.4-0.3c-0.1,0-0.1,0-0.2,0C-469.7,255.7-469.8,255.7-470,255.7L-470,255.7z"/>
</g>
</svg>
