<?xml version="1.0" encoding="iso-8859-1"?>
<!-- Generator: Adobe Illustrator 19.0.0, SVG Export Plug-In . SVG Version: 6.00 Build 0)  -->
<svg version="1.1" id="Layer_1" xmlns="http://www.w3.org/2000/svg" xmlns:xlink="http://www.w3.org/1999/xlink" x="0px" y="0px"
	 viewBox="0 0 512 512" style="enable-background:new 0 0 512 512;" xml:space="preserve">
<g>
	<g>
		<g>
			<path d="M330.474,230.57l-103.136-53.555c-8.024-4.168-17.809-3.842-25.541,0.854c-7.727,4.695-12.528,13.227-12.528,22.269
				V307.6c0,9.055,4.81,17.595,12.559,22.29c4.07,2.464,8.738,3.767,13.498,3.767c4.188,0,8.361-1.025,12.07-2.963l103.136-53.903
				c8.641-4.513,14.001-13.376,13.991-23.131C344.511,243.911,339.127,235.063,330.474,230.57z M321.084,258.711h-0.001
				l-103.138,53.904c-1.718,0.899-3.895,0.829-5.55-0.173c-1.683-1.02-2.728-2.875-2.728-4.843V200.138
				c0-1.963,1.043-3.815,2.72-4.834c0.897-0.544,1.918-0.818,2.943-0.818c0.895,0,1.792,0.209,2.604,0.631l103.138,53.556
				c1.88,0.976,3.049,2.898,3.052,5.012C324.125,255.805,322.96,257.731,321.084,258.711z"/>
			<path d="M490.444,106.148v0.001c-19.915-23.675-54.938-33.333-120.882-33.333H142.434c-67.52,0-103.159,10.287-123.013,35.508
				C0,132.998,0,166.742,0,213.446v85.109c0,38.36,3.237,77.555,26.725,104.375c21.66,24.734,58.427,36.254,115.709,36.254h227.129
				c57.17,0,89.279-8.413,110.831-29.039C502.547,388.944,512,355.571,512,298.555v-85.109
				C512,164.107,510.5,129.984,490.444,106.148z M491.602,298.555c0,50.908-7.57,79.874-25.312,96.853
				c-17.35,16.604-45.373,23.378-96.726,23.378H142.434c-104.416,0-122.035-37.09-122.035-120.23v-85.109
				c0-42.602,0-73.383,15.051-92.504c15.503-19.695,46.498-27.728,106.985-27.728v-0.001h227.128
				c59.199,0,89.699,7.552,105.273,26.066v0.001c15.6,18.539,16.766,49.32,16.766,94.165V298.555z"/>
		</g>
	</g>
</g>
<g>
	<g>
		<path d="M341.673,387.57h-9.179c-5.633,0-10.199,4.566-10.199,10.199c0,5.633,4.566,10.199,10.199,10.199h9.179
			c5.633,0,10.199-4.566,10.199-10.199C351.872,392.136,347.306,387.57,341.673,387.57z"/>
	</g>
</g>
<g>
	<g>
		<path d="M292.717,387.57H131.57c-5.633,0-10.199,4.566-10.199,10.199c0,5.633,4.566,10.199,10.199,10.199h161.147
			c5.633,0,10.199-4.566,10.199-10.199C302.916,392.136,298.35,387.57,292.717,387.57z"/>
	</g>
</g>
<g>
</g>
<g>
</g>
<g>
</g>
<g>
</g>
<g>
</g>
<g>
</g>
<g>
</g>
<g>
</g>
<g>
</g>
<g>
</g>
<g>
</g>
<g>
</g>
<g>
</g>
<g>
</g>
<g>
</g>
</svg>
