<?xml version="1.0" encoding="iso-8859-1"?>
<!-- Generator: Adobe Illustrator 19.0.0, SVG Export Plug-In . SVG Version: 6.00 Build 0)  -->
<svg version="1.1" id="Layer_1" xmlns="http://www.w3.org/2000/svg" xmlns:xlink="http://www.w3.org/1999/xlink" x="0px" y="0px"
	 viewBox="0 0 512 512" style="enable-background:new 0 0 512 512;" xml:space="preserve">
<g>
	<path style="fill:#B3404A;" d="M60.76,139.885c-7.812,0-14.144-6.332-14.144-14.144V60.76c0-7.812,6.332-14.144,14.144-14.144
		h64.98c7.812,0,14.144,6.332,14.144,14.144s-6.332,14.144-14.144,14.144H74.903v50.837
		C74.903,133.553,68.571,139.885,60.76,139.885z"/>
	<path style="fill:#B3404A;" d="M451.239,465.384H386.26c-7.81,0-14.144-6.332-14.144-14.144s6.334-14.144,14.144-14.144h50.835
		V386.26c0-7.812,6.334-14.144,14.144-14.144c7.81,0,14.144,6.332,14.144,14.144v64.98
		C465.383,459.05,459.05,465.384,451.239,465.384z"/>
	<path style="fill:#B3404A;" d="M497.856,512H14.144C6.332,512,0,505.668,0,497.856V14.144C0,6.332,6.332,0,14.144,0h483.713
		C505.667,0,512,6.332,512,14.144v483.713C512,505.668,505.667,512,497.856,512z M28.287,483.713h455.425V28.287H28.287V483.713z"/>
	<path style="fill:#B3404A;" d="M351.161,178.647h-32.767c-7.81,0-14.144-6.332-14.144-14.144s6.334-14.144,14.144-14.144h32.767
		c7.81,0,14.144,6.332,14.144,14.144S358.973,178.647,351.161,178.647z"/>
</g>
<g>
	<path style="fill:#F4B2B0;" d="M336.712,361.64c-11.581,0-22.142-1.706-31.388-5.069c-9.553-3.477-17.771-8.615-24.433-15.274
		c-6.669-6.672-11.762-14.834-15.144-24.263c-3.254-9.072-4.905-19.391-4.905-30.668c0-11.383,1.677-21.807,4.984-30.983
		c3.41-9.468,8.442-17.664,14.951-24.357c6.549-6.728,14.592-11.916,23.913-15.418c9.029-3.392,19.3-5.112,30.532-5.112
		c10.881,0,20.906,1.627,29.798,4.836c9.233,3.338,17.211,8.331,23.72,14.84c6.499,6.498,11.536,14.565,14.972,23.976
		c3.319,9.103,5.001,19.539,5.001,31.027c0,7.643-4.324,14.295-10.652,17.643c1.368,1.027,2.587,2.269,3.601,3.696
		c3.113,4.385,3.925,10.022,2.175,15.087c-1.578,4.537-3.706,8.765-6.332,12.591c-4.201,6.111-9.502,11.291-15.764,15.404
		c-6.049,3.977-13.022,7.028-20.718,9.066C353.564,360.638,345.384,361.64,336.712,361.64z M321.519,305.118
		c0.089,0.311,0.182,0.614,0.279,0.907c0.953,2.895,2.177,5.203,3.639,6.872c1.269,1.447,2.67,2.455,4.278,3.079
		c2.003,0.778,4.353,1.17,6.995,1.17c4.322,0,7.845-0.806,10.189-2.332c0.481-0.313,1.949-1.269,3.103-4.368
		c0.738-1.994,1.836-3.79,3.201-5.327h-31.685V305.118z M348.218,261.665c-0.733-1.815-1.598-3.294-2.584-4.389
		c-1.458-1.618-4.126-3.771-10.41-3.771c-4.079,0-7.082,1.342-9.735,4.351c-0.962,1.09-1.793,2.362-2.491,3.809H348.218z"/>
	<path style="fill:#F4B2B0;" d="M125.573,358.963c-12.289,0-22.288-9.998-22.288-22.288V188.607
		c0-12.289,9.998-22.288,22.288-22.288h55.07c9.987,0,19.2,1.136,27.384,3.378c8.577,2.352,16.05,5.874,22.215,10.468
		c6.465,4.819,11.499,10.772,14.961,17.695c3.458,6.916,5.212,14.674,5.212,23.06c0,14.21-4.595,26.085-13.461,35.141
		c3.816,2.812,7.089,6.085,9.803,9.809c6.475,8.888,9.756,19.486,9.756,31.505c0,19.391-6.639,34.793-19.735,45.779
		c-12.511,10.492-31.096,15.811-55.242,15.811h-55.964V358.963z M179.155,307.329c8.902,0,13.083-1.668,15.021-3.066
		c0.689-0.496,2.519-1.817,2.519-7.483c0-3.308-0.506-5.199-0.809-6.032c-0.219-0.603-0.526-1.001-1.089-1.413
		c-0.471-0.344-1.912-1.219-4.977-1.85c-2.13-0.437-5.973-0.959-12.152-0.959h-15.906v20.802h17.394V307.329z M178.858,234.594
		c8.244,0,11.077-1.636,11.748-2.139c0.371-0.277,1.331-1.952,1.331-6.329c0-3.027-0.576-5.046-1.71-6.004
		c-0.103-0.088-2.682-2.165-12.855-2.165h-15.608v16.639h17.094V234.594z"/>
</g>
<g>
	<path style="fill:#B3404A;" d="M422.858,285.176c0-13.149-1.97-25.218-5.857-35.871c-4.147-11.363-10.291-21.165-18.259-29.133
		c-7.987-7.988-17.712-14.09-28.904-18.136c-10.449-3.772-22.09-5.682-34.614-5.682c-12.937,0-24.883,2.023-35.505,6.014
		c-11.285,4.242-21.066,10.565-29.075,18.794c-2.344,2.41-4.508,4.99-6.527,7.698c0.273-2.588,0.438-5.229,0.438-7.94
		c0-10.601-2.256-20.487-6.706-29.385c-4.461-8.919-10.906-16.559-19.158-22.709c-7.587-5.653-16.646-9.949-26.925-12.767
		c-9.41-2.577-19.879-3.882-31.127-3.882h-55.067c-20.088,0-36.431,16.343-36.431,36.431v148.068
		c0,20.088,16.343,36.431,36.431,36.431h55.962c27.56,0,49.203-6.431,64.328-19.115c5.732-4.809,10.455-10.27,14.209-16.329
		c3.097,4.967,6.708,9.524,10.814,13.632c8.135,8.134,18.093,14.378,29.6,18.566c10.8,3.931,22.988,5.923,36.225,5.923
		c9.895,0,19.295-1.163,27.942-3.454c9.162-2.426,17.531-6.1,24.863-10.919c7.797-5.12,14.408-11.584,19.644-19.204
		c3.346-4.878,6.044-10.233,8.026-15.929c2.457-7.072,2.219-14.738-0.505-21.555C420.573,299.186,422.858,292.443,422.858,285.176z
		 M227.687,332.318c-9.892,8.295-25.42,12.502-46.152,12.502h-55.962c-4.491,0-8.144-3.653-8.144-8.144V188.607
		c0-4.491,3.653-8.144,8.144-8.144h55.07c8.727,0,16.682,0.967,23.648,2.875c6.865,1.883,12.755,4.631,17.5,8.167
		c4.676,3.485,8.297,7.751,10.762,12.681c2.467,4.933,3.718,10.562,3.718,16.733c0,16.274-7.523,27.494-23.002,34.298l-7.277,3.199
		l7.66,2.117c9.734,2.69,17.025,7.287,21.672,13.666c4.673,6.414,7.042,14.212,7.042,23.174
		C242.368,312.599,237.565,324.03,227.687,332.318z M388.772,290.974h-82.897l0.045,2.874c0.102,6.409,0.925,11.995,2.447,16.609
		c1.547,4.7,3.713,8.659,6.435,11.763c2.772,3.161,6.072,5.498,9.807,6.945c3.628,1.41,7.701,2.124,12.104,2.124
		c7.169,0,13.195-1.556,17.906-4.624c3.89-2.533,6.797-6.331,8.64-11.285c0.403-1.089,1.376-1.792,2.475-1.792h22.242
		c0.866,0,1.653,0.407,2.158,1.119c0.481,0.677,0.604,1.505,0.337,2.273c-1.157,3.325-2.716,6.424-4.626,9.21
		c-3.148,4.583-7.14,8.479-11.864,11.581c-4.781,3.141-10.356,5.57-16.575,7.216c-6.284,1.666-13.247,2.509-20.695,2.509
		c-9.929,0-18.862-1.419-26.55-4.218c-7.598-2.765-14.081-6.797-19.271-11.985c-5.178-5.179-9.159-11.584-11.83-19.034
		c-2.704-7.54-4.075-16.251-4.075-25.894c0-9.744,1.395-18.554,4.148-26.187c2.723-7.561,6.689-14.052,11.785-19.291
		c5.086-5.226,11.394-9.277,18.75-12.042c7.431-2.792,16.029-4.206,25.556-4.206c9.24,0,17.65,1.345,24.996,3.997
		c7.257,2.624,13.489,6.506,18.52,11.537c5.034,5.034,8.966,11.367,11.688,18.827c2.75,7.537,4.144,16.344,4.144,26.176
		C394.571,288.373,391.969,290.974,388.772,290.974z"/>
	<path style="fill:#B3404A;" d="M356.141,247.807c-5.052-5.604-12.09-8.447-20.917-8.447c-8.151,0-14.996,3.075-20.344,9.138
		c-5.219,5.919-8.133,14.105-8.66,24.334l-0.153,2.974h58.982l-0.231-3.042C363.98,261.665,361.06,253.267,356.141,247.807z"/>
	<path style="fill:#B3404A;" d="M199.069,243.787c4.652-3.474,7.011-9.415,7.011-17.661c0-7.384-2.264-13.042-6.731-16.813
		c-4.387-3.703-11.577-5.502-21.979-5.502h-29.751v44.926h31.239C187.996,248.737,194.608,247.116,199.069,243.787z"/>
	<path style="fill:#B3404A;" d="M203.134,277.909c-2.699-1.967-6.22-3.406-10.468-4.278c-4.038-0.827-9.084-1.247-14.998-1.247
		h-30.05v49.09h31.538c10.323,0,17.944-1.878,23.297-5.741c5.566-4.015,8.387-10.393,8.387-18.952c0-4.174-0.559-7.827-1.658-10.857
		C207.998,282.668,205.964,279.972,203.134,277.909z"/>
</g>
<g>
</g>
<g>
</g>
<g>
</g>
<g>
</g>
<g>
</g>
<g>
</g>
<g>
</g>
<g>
</g>
<g>
</g>
<g>
</g>
<g>
</g>
<g>
</g>
<g>
</g>
<g>
</g>
<g>
</g>
</svg>
