<?xml version="1.0" encoding="iso-8859-1"?>
<!-- Generator: Adobe Illustrator 19.0.0, SVG Export Plug-In . SVG Version: 6.00 Build 0)  -->
<svg version="1.1" id="Layer_1" xmlns="http://www.w3.org/2000/svg" xmlns:xlink="http://www.w3.org/1999/xlink" x="0px" y="0px"
	 viewBox="0 0 512 512" style="enable-background:new 0 0 512 512;" xml:space="preserve">
<g>
	<path style="fill:#B3404A;" d="M60.76,139.883c-7.812,0-14.144-6.334-14.144-14.144V60.761c0-7.81,6.332-14.144,14.144-14.144
		h64.98c7.812,0,14.144,6.334,14.144,14.144s-6.332,14.144-14.144,14.144H74.903v50.835
		C74.903,133.551,68.571,139.883,60.76,139.883z"/>
	<path style="fill:#B3404A;" d="M451.24,465.383h-64.98c-7.812,0-14.144-6.334-14.144-14.144s6.332-14.144,14.144-14.144h50.836
		V386.26c0-7.81,6.332-14.144,14.144-14.144s14.144,6.334,14.144,14.144v64.979C465.384,459.05,459.05,465.383,451.24,465.383z"/>
	<path style="fill:#B3404A;" d="M497.856,512H14.144C6.332,512,0,505.667,0,497.856V14.144C0,6.334,6.332,0,14.144,0h483.713
		C505.668,0,512,6.334,512,14.144v483.713C512,505.667,505.668,512,497.856,512z M28.287,483.713h455.425V28.287H28.287V483.713z"/>
</g>
<path style="fill:#F4B2B0;" d="M297.157,271.261c16.863,0.001,33.728,0.095,50.589-0.069c3.482-0.034,4.457,1.076,4.428,4.461
	c-0.188,23.435-0.274,46.869-0.199,70.304c0.011,3.611-1.342,4.324-4.604,4.312c-29.758-0.098-59.518-0.003-89.276-0.129
	c-3.179-0.014-4.868,1.047-6.358,3.772c-10.456,19.129-21.124,38.145-31.554,57.287c-1.557,2.857-3.249,4.102-6.602,4.099
	c-16.24-0.014-32.478,0.252-48.718,0.39c-5.01,0.042-5.02,0.003-5.02-4.863c-0.003-21.078-0.078-42.157,0.098-63.233
	c0.023-2.686,0.832-5.673,2.181-7.994c18.668-32.133,37.498-64.171,56.278-96.239c0.802-1.371,1.509-2.796,2.656-4.932
	c-2.001-0.184-3.191-0.393-4.377-0.388c-17.11,0.088-34.221,0.119-51.329,0.388c-3.259,0.051-3.3-1.573-3.295-3.902
	c0.033-16.863,0.014-33.727,0.013-50.59c-0.001-6.448-0.003-12.896,0-19.343c0.003-4.955,0.004-4.962,4.826-4.962
	c28.519,0.006,57.038-0.035,85.556,0.098c3.127,0.014,4.898-0.921,6.459-3.646c10.714-18.704,21.641-37.284,32.361-55.985
	c1.543-2.693,3.249-3.819,6.427-3.788c16.118,0.158,32.239,0.161,48.357,0.003c3.462-0.034,4.492,1.059,4.427,4.478
	c-0.379,19.706-0.525,39.418-0.881,59.125c-0.033,1.757-0.751,3.635-1.591,5.225c-6.435,12.192-12.878,24.378-19.326,36.563"/>
<path style="fill:#B3404A;" d="M163.952,429.837c-3.803,0-9.036-0.334-13.444-4.704c-4.809-4.768-4.809-10.509-4.809-14.308
	l-0.008-13.964c-0.016-16.177-0.03-32.905,0.107-49.388c0.042-5.116,1.535-10.578,4.095-14.984
	c14.299-24.61,28.927-49.568,43.073-73.703l3.815-6.512c-10.349,0.054-20.856,0.13-31.208,0.293
	c-0.119,0.001-0.238,0.003-0.355,0.003c-6.227,0-10.169-2.585-12.393-4.779c-4.93-4.864-4.918-10.991-4.913-13.296
	c0.025-12.721,0.02-25.443,0.016-38.167l-0.003-15.156v-16.588c0.001-3.765,0.004-9.455,4.605-14.189
	c4.772-4.913,10.516-4.926,14.369-4.911l18.175-0.001c20.829,0.001,42.329-0.006,63.563,0.082
	c4.806-8.365,9.687-16.77,14.425-24.932c5.329-9.181,10.66-18.361,15.938-27.57c5.216-9.107,13.103-10.917,18.834-10.899
	c16.047,0.157,32.222,0.16,48.083,0.003c0.088,0,0.174,0,0.26,0c5.561,0,10.086,1.724,13.456,5.126
	c3.42,3.454,5.1,8.086,4.991,13.766c-0.198,10.285-0.334,20.767-0.465,30.901c-0.122,9.404-0.245,18.808-0.414,28.211
	c-0.068,3.749-1.151,7.64-3.222,11.567c-6.44,12.199-12.885,24.389-19.334,36.578c-3.652,6.905-12.209,9.543-19.117,5.887
	c-6.905-3.653-9.54-12.212-5.887-19.117c6.437-12.166,12.871-24.334,19.296-36.506c0.16-8.995,0.277-17.994,0.393-26.989
	c0.091-6.913,0.182-13.985,0.294-21.061c-11.461,0.064-23.032,0.051-34.552-0.044c-4.677,8.137-9.383,16.241-14.089,24.348
	c-5.377,9.263-10.937,18.841-16.342,28.275c-2.813,4.913-8.335,10.759-18.667,10.759c-0.045,0-0.089,0-0.134,0
	c-22.422-0.105-45.237-0.102-67.305-0.098l-8.867,0.001l0.003,22.545c0.003,9.274,0.007,18.548-0.001,27.822
	c10.265-0.107,20.542-0.153,30.569-0.199l9.826-0.045c1.591-0.03,2.97,0.146,4.184,0.281c0.454,0.051,0.963,0.109,1.559,0.164
	c4.725,0.434,8.919,3.209,11.166,7.389c2.246,4.181,2.246,9.209,0.001,13.39c-0.379,0.706-0.707,1.328-1.006,1.898
	c-0.703,1.335-1.283,2.426-1.907,3.489l-13.233,22.585c-14.132,24.112-28.747,49.046-43.019,73.612
	c-0.119,0.219-0.26,0.75-0.266,1.008c-0.137,16.351-0.122,33.013-0.106,49.124l0.003,4.621c1.956-0.021,3.914-0.042,5.868-0.064
	c9.728-0.107,19.747-0.218,29.702-0.236c4.971-9.092,10.008-18.192,14.896-27.026c4.976-8.993,9.951-17.985,14.881-27.002
	c3.981-7.284,10.452-11.131,18.713-11.131c0.038,0,0.076,0,0.116,0c15.841,0.068,31.965,0.072,47.557,0.076
	c10.698,0.003,21.397,0.006,32.095,0.028c-0.021-16.011,0.028-32.745,0.148-50.697c-9.315,0.041-18.633,0.028-27.723,0.014
	c-4.36-0.007-8.722-0.013-13.083-0.014c-7.812-0.001-14.144-6.335-14.142-14.146c0.001-7.809,6.334-14.141,14.144-14.141h0.001
	c4.373,0.001,8.748,0.007,13.121,0.014c12.246,0.017,24.913,0.038,37.328-0.083c0.089,0,0.178,0,0.267,0
	c5.508,0,10.004,1.699,13.366,5.054c3.414,3.407,5.123,8.004,5.076,13.663c-0.204,25.459-0.269,48.404-0.198,70.145
	c0.018,5.527-1.689,10.046-5.073,13.431c-5.102,5.1-11.581,5.09-13.721,5.072c-13.872-0.045-27.746-0.049-41.618-0.052
	c-14.265-0.004-28.976-0.008-43.531-0.059c-4.305,7.854-8.642,15.69-12.978,23.525c-5.464,9.874-11.114,20.084-16.595,30.143
	c-5.167,9.48-13.186,11.473-19.012,11.473c-0.44-0.017-0.883,0-1.324,0c-10.691,0-21.57,0.119-32.105,0.235
	c-5.059,0.057-10.118,0.112-15.178,0.156C164.655,429.834,164.31,429.837,163.952,429.837z"/>
<g>
</g>
<g>
</g>
<g>
</g>
<g>
</g>
<g>
</g>
<g>
</g>
<g>
</g>
<g>
</g>
<g>
</g>
<g>
</g>
<g>
</g>
<g>
</g>
<g>
</g>
<g>
</g>
<g>
</g>
</svg>
