<?xml version="1.0" encoding="utf-8"?>
<!-- Generator: Adobe Illustrator 19.0.0, SVG Export Plug-In . SVG Version: 6.00 Build 0)  -->
<svg version="1.1" id="Layer_1" xmlns="http://www.w3.org/2000/svg" xmlns:xlink="http://www.w3.org/1999/xlink" x="0px" y="0px"
	 viewBox="-478 248.9 24 24" style="enable-background:new -478 248.9 24 24;" xml:space="preserve">
<style type="text/css">
	.st0{fill:#F4B2B0;}
	.st1{fill:#B3404A;}
</style>
<polyline class="st0" points="-463.5,257.4 -457.9,257.4 -460.6,263.4 "/>
<polygon class="st0" points="-472.7,258.2 -472.7,264.3 -469.8,263.4 -469.8,258.4 "/>
<title>dev.to icon</title>
<path class="st1" d="M-469,260.9c0-2-0.1-2.1-0.3-2.6c-0.4-0.7-0.9-0.9-2.6-0.9h-1.4v7.5h1.3c1.5,0,2.1-0.2,2.5-0.8
	C-469,263.6-468.9,263.1-469,260.9z M-470.5,263.3c-0.2,0.2-0.4,0.3-0.8,0.3l-0.6,0l0-2.5l0-2.4h0.6c0.4,0,0.7,0.1,0.8,0.2
	c0.3,0.2,0.3,0.3,0.3,2.2C-470.3,262.9-470.3,263-470.5,263.3z"/>
<path class="st1" d="M-459.7,264.1L-459.7,264.1c-0.2,0.4-0.6,0.8-1,0.8c-0.2,0-0.5-0.2-0.7-0.4c-0.3-0.3-0.4-0.6-0.8-2.1l-0.9-3.4
	l-0.5-1.7h0.8c0.4,0,0.8,0,0.8,0.1c0,0.1,1.2,4.5,1.3,4.8c0,0.2,0.3-0.7,0.7-2.3l0.7-2.5l0.7,0c0.4,0,0.7,0,0.7,0
	C-457.9,257.6-459.5,263.8-459.7,264.1z"/>
<path class="st1" d="M-466.8,258.7v1.8h1.5v1.3l-0.7,0l-0.8,0v1.8l1.2,0l1.2,0v1.3h-1.6c-1.5,0-1.6,0-1.9-0.3l-0.3-0.3v-3.2
	c0-3,0-3.2,0.3-3.5c0.2-0.3,0.3-0.3,1.9-0.3h1.6v1.3H-466.8z"/>
<g>
	<path class="st1" d="M-475.1,255.4c-0.4,0-0.7-0.3-0.7-0.7v-3c0-0.4,0.3-0.7,0.7-0.7h3c0.4,0,0.7,0.3,0.7,0.7
		c0,0.4-0.3,0.7-0.7,0.7h-2.4v2.4C-474.5,255.1-474.8,255.4-475.1,255.4z"/>
	<path class="st1" d="M-456.8,270.7h-3c-0.4,0-0.7-0.3-0.7-0.7c0-0.4,0.3-0.7,0.7-0.7h2.4V267c0-0.4,0.3-0.7,0.7-0.7
		s0.7,0.3,0.7,0.7v3C-456.2,270.4-456.5,270.7-456.8,270.7z"/>
	<path class="st1" d="M-454.7,272.9h-22.7c-0.4,0-0.7-0.3-0.7-0.7v-22.7c0-0.4,0.3-0.7,0.7-0.7h22.7c0.4,0,0.7,0.3,0.7,0.7v22.7
		C-454,272.6-454.3,272.9-454.7,272.9z M-476.7,271.5h21.3v-21.3h-21.3V271.5z"/>
</g>
</svg>
