<?xml version="1.0" encoding="iso-8859-1"?>
<!-- Generator: Adobe Illustrator 19.0.0, SVG Export Plug-In . SVG Version: 6.00 Build 0)  -->
<svg version="1.1" id="Layer_1" xmlns="http://www.w3.org/2000/svg" xmlns:xlink="http://www.w3.org/1999/xlink" x="0px" y="0px"
	 viewBox="0 0 512 512" style="enable-background:new 0 0 512 512;" xml:space="preserve">
<g>
	<path style="fill:#B3404A;" d="M60.761,139.885c-7.81,0-14.144-6.332-14.144-14.144V60.76c0-7.812,6.334-14.144,14.144-14.144
		h64.979c7.81,0,14.144,6.332,14.144,14.144s-6.334,14.144-14.144,14.144H74.905v50.837
		C74.905,133.553,68.571,139.885,60.761,139.885z"/>
	<path style="fill:#B3404A;" d="M451.239,465.384H386.26c-7.81,0-14.144-6.332-14.144-14.144s6.334-14.144,14.144-14.144h50.835
		V386.26c0-7.812,6.334-14.144,14.144-14.144c7.81,0,14.144,6.332,14.144,14.144v64.98
		C465.383,459.05,459.05,465.384,451.239,465.384z"/>
	<path style="fill:#B3404A;" d="M497.856,512H14.144C6.334,512,0,505.668,0,497.856V14.144C0,6.332,6.334,0,14.144,0h483.713
		C505.667,0,512,6.332,512,14.144v483.713C512,505.668,505.667,512,497.856,512z M28.287,483.713h455.425V28.287H28.287V483.713z"/>
</g>
<path style="fill:#F4B2B0;" d="M352.187,351.835c-18.998,19.068-43.632,32.519-71.195,37.639
	c-6.902,1.287-13.988,2.051-21.215,2.249c-1.259,0.042-2.518,0.057-3.776,0.057c-25.303,0-48.994-6.916-69.261-18.981
	C146.91,349.136,120.221,305.687,120.221,256c0-4.469,0.212-8.882,0.651-13.238c4.894-50.719,37.707-93.277,82.882-112.117
	c1.287-0.523,2.574-1.047,3.875-1.542c15.021-5.742,31.328-8.882,48.371-8.882c40.946,0,77.649,18.118,102.541,46.787
	c20.706,23.818,33.238,54.948,33.238,88.992c0,9.971-1.075,19.702-3.126,29.065"/>
<path style="fill:#B3404A;" d="M402.054,289.58c0.061-0.182,0.109-0.372,0.163-0.559c0.083-0.283,0.167-0.566,0.232-0.851
	c0.006-0.027,0.016-0.051,0.021-0.078c2.291-10.461,3.452-21.257,3.452-32.092c0-36.003-12.941-70.766-36.433-97.939
	c-0.038-0.047-0.078-0.093-0.117-0.141c-0.052-0.061-0.1-0.123-0.153-0.184c-28.504-32.829-69.771-51.658-113.22-51.658
	c-18.414,0-36.387,3.301-53.402,9.807c-1.403,0.533-2.791,1.098-4.287,1.707c-51.026,21.279-86.046,68.559-91.471,123.392
	c-0.003,0.028-0.006,0.057-0.01,0.085c-0.008,0.093-0.023,0.187-0.031,0.28c-0.478,4.761-0.721,9.691-0.721,14.651
	c0,52.633,28.14,102.046,73.427,128.952c23.048,13.719,49.5,20.971,76.496,20.971c1.419,0,2.839-0.017,4.164-0.062
	c7.858-0.215,15.738-1.051,23.412-2.481l0,0c0.003,0,0.006-0.001,0.008-0.001c0.001,0,0.004-0.001,0.006-0.001
	c1.832-0.341,3.655-0.716,5.467-1.123c0.792-0.178,1.574-0.385,2.362-0.576c1.013-0.245,2.028-0.478,3.034-0.744
	c1.031-0.272,2.049-0.576,3.073-0.87c0.745-0.214,1.496-0.413,2.239-0.639c1.158-0.352,2.304-0.735,3.451-1.115
	c0.594-0.197,1.192-0.379,1.782-0.583c1.229-0.423,2.444-0.878,3.659-1.332c0.498-0.187,1.001-0.361,1.498-0.553
	c1.259-0.487,2.502-1.003,3.745-1.522c0.444-0.185,0.894-0.362,1.337-0.552c1.257-0.54,2.501-1.109,3.741-1.683
	c0.421-0.195,0.846-0.38,1.266-0.58c1.236-0.586,2.457-1.199,3.676-1.82c0.416-0.212,0.837-0.416,1.252-0.631
	c1.194-0.621,2.373-1.269,3.55-1.924c0.433-0.24,0.87-0.474,1.301-0.72c1.139-0.648,2.264-1.32,3.387-1.998
	c0.46-0.277,0.922-0.549,1.379-0.832c1.075-0.665,2.136-1.354,3.195-2.047c0.496-0.325,0.994-0.645,1.488-0.976
	c1-0.672,1.986-1.363,2.97-2.059c0.542-0.383,1.085-0.764,1.621-1.154c0.919-0.669,1.826-1.355,2.731-2.045
	c0.59-0.45,1.18-0.898,1.762-1.356c0.837-0.659,1.665-1.332,2.489-2.011c0.635-0.522,1.269-1.044,1.897-1.577
	c0.758-0.645,1.508-1.301,2.256-1.963c0.675-0.597,1.346-1.195,2.013-1.805c0.687-0.629,1.368-1.27,2.044-1.914
	c0.393-0.375,0.799-0.734,1.189-1.113c0.12-0.116,0.222-0.243,0.338-0.362c0.474-0.464,0.96-0.911,1.428-1.382
	c5.513-5.534,5.498-14.489-0.037-20.002c-5.532-5.515-14.489-5.496-20.002,0.037c-0.788,0.791-1.594,1.554-2.4,2.32
	c-0.549,0.522-1.1,1.042-1.658,1.553c-0.54,0.495-1.086,0.982-1.635,1.467c-0.604,0.535-1.211,1.066-1.825,1.588
	c-0.512,0.436-1.031,0.863-1.549,1.288c-0.665,0.546-1.331,1.09-2.006,1.621c-0.478,0.376-0.962,0.744-1.445,1.113
	c-0.728,0.556-1.458,1.109-2.196,1.646c-0.443,0.322-0.891,0.635-1.337,0.952c-0.791,0.56-1.584,1.116-2.387,1.656
	c-0.407,0.274-0.819,0.539-1.23,0.808c-0.851,0.557-1.704,1.11-2.568,1.646c-0.378,0.233-0.76,0.458-1.139,0.687
	c-0.904,0.546-1.809,1.088-2.725,1.608c-0.358,0.204-0.721,0.399-1.082,0.598c-0.945,0.525-1.892,1.045-2.851,1.545
	c-0.347,0.181-0.7,0.352-1.048,0.529c-0.977,0.498-1.957,0.99-2.949,1.46c-0.351,0.167-0.707,0.322-1.059,0.485
	c-0.994,0.461-1.991,0.917-3,1.351c-0.375,0.161-0.754,0.31-1.13,0.467c-0.991,0.414-1.986,0.827-2.989,1.215
	c-0.14,0.054-0.281,0.102-0.421,0.156c4.161-26.21,4.346-53.781,0.516-81.322c8.742-1.779,17.667-2.7,26.666-2.7
	c19.559,0,38.394,4.14,55.979,12.305c0.023,0.01,0.045,0.017,0.066,0.027c0.274,0.126,0.56,0.233,0.844,0.341
	c0.174,0.066,0.348,0.141,0.523,0.201c0.195,0.066,0.399,0.117,0.6,0.174c0.272,0.079,0.542,0.16,0.815,0.222
	c0.028,0.006,0.054,0.017,0.082,0.023c0.127,0.028,0.255,0.04,0.383,0.064c0.315,0.059,0.629,0.119,0.945,0.157
	c0.168,0.021,0.337,0.028,0.505,0.042c0.293,0.024,0.586,0.049,0.877,0.057c0.202,0.004,0.403-0.004,0.604-0.008
	c0.255-0.006,0.509-0.008,0.762-0.028c0.226-0.017,0.448-0.048,0.672-0.075c0.228-0.028,0.455-0.054,0.68-0.092
	c0.231-0.04,0.457-0.093,0.686-0.144c0.218-0.049,0.436-0.096,0.649-0.154c0.216-0.059,0.427-0.13,0.639-0.199
	c0.225-0.074,0.448-0.146,0.669-0.229c0.188-0.072,0.371-0.154,0.556-0.233c0.239-0.103,0.477-0.207,0.71-0.322
	c0.156-0.078,0.307-0.164,0.46-0.248c0.25-0.136,0.499-0.274,0.741-0.426c0.13-0.082,0.256-0.171,0.383-0.257
	c0.25-0.168,0.499-0.339,0.74-0.525c0.117-0.091,0.228-0.187,0.342-0.28c0.236-0.194,0.47-0.389,0.693-0.598
	c0.119-0.11,0.229-0.229,0.345-0.344c0.202-0.204,0.405-0.407,0.595-0.624c0.133-0.151,0.257-0.311,0.385-0.47
	c0.157-0.194,0.314-0.385,0.461-0.588c0.15-0.208,0.289-0.427,0.427-0.644c0.109-0.168,0.221-0.334,0.324-0.508
	c0.153-0.26,0.289-0.532,0.424-0.805c0.064-0.127,0.137-0.245,0.197-0.373c0.013-0.027,0.021-0.055,0.033-0.082
	c0.115-0.252,0.212-0.513,0.313-0.775C401.904,289.969,401.988,289.775,402.054,289.58z M338.573,166.701
	c-15.902,14.821-37.013,31.324-61.108,42.288c-12.053-27.103-27.993-51.517-46.895-71.937c8.304-1.767,16.801-2.687,25.429-2.687
	C286.777,134.365,316.202,146.012,338.573,166.701z M137.561,228.222c0.137-0.587,0.284-1.171,0.43-1.757
	c0.175-0.706,0.352-1.412,0.539-2.112c0.16-0.598,0.33-1.194,0.498-1.788c0.192-0.677,0.388-1.354,0.591-2.025
	c0.184-0.607,0.375-1.212,0.567-1.815c0.209-0.652,0.421-1.303,0.642-1.95c0.208-0.612,0.42-1.222,0.636-1.829
	c0.223-0.627,0.453-1.25,0.686-1.873c0.233-0.621,0.47-1.24,0.713-1.857c0.235-0.595,0.477-1.187,0.721-1.778
	c0.262-0.632,0.523-1.264,0.795-1.891c0.242-0.56,0.494-1.115,0.744-1.669c0.293-0.648,0.584-1.297,0.888-1.939
	c0.242-0.513,0.494-1.02,0.744-1.529c0.33-0.673,0.658-1.348,1-2.015c0.228-0.444,0.467-0.884,0.7-1.325
	c0.382-0.721,0.761-1.445,1.157-2.158c0.173-0.31,0.354-0.615,0.528-0.924c2.921-5.157,6.206-10.091,9.843-14.759
	c0.054-0.069,0.106-0.14,0.16-0.209c0.692-0.884,1.4-1.757,2.116-2.621c0.102-0.123,0.202-0.249,0.306-0.372
	c0.7-0.839,1.416-1.666,2.139-2.486c0.124-0.14,0.246-0.283,0.371-0.423c0.721-0.81,1.455-1.608,2.198-2.399
	c0.132-0.14,0.263-0.281,0.396-0.421c0.751-0.791,1.512-1.571,2.284-2.342c0.129-0.129,0.256-0.257,0.386-0.385
	c0.785-0.778,1.581-1.544,2.389-2.301c0.119-0.112,0.239-0.223,0.358-0.335c0.826-0.768,1.663-1.526,2.512-2.273
	c0.098-0.086,0.195-0.171,0.294-0.256c0.877-0.765,1.762-1.52,2.662-2.262c0.066-0.054,0.133-0.107,0.198-0.161
	c0.936-0.768,1.884-1.525,2.844-2.266c0.011-0.008,0.023-0.017,0.033-0.025c6.044-4.659,12.567-8.78,19.511-12.284
	c20.091,19.213,36.99,43.441,49.513,70.918c-34.697,8.77-80.48,10.56-113.218,10.486
	C137.476,228.614,137.514,228.417,137.561,228.222z M134.383,257.092c1.888,0.013,3.792,0.02,5.721,0.02
	c38.776,0,84.993-2.566,120.914-12.257c2.106,6.375,4.008,12.847,5.631,19.384c0.348,1.393,0.662,2.822,0.989,4.236
	c-38.571,15.186-70.13,45.182-87.493,82.578C151.853,328.372,134.718,293.748,134.383,257.092z M256,377.635
	c-1.262,0-2.52-0.024-3.778-0.064c-0.397-0.013-0.795-0.033-1.192-0.05c-0.868-0.035-1.737-0.078-2.602-0.132
	c-0.453-0.028-0.905-0.059-1.358-0.093c-0.836-0.061-1.669-0.132-2.502-0.209c-0.434-0.041-0.868-0.081-1.303-0.126
	c-0.946-0.099-1.89-0.212-2.83-0.332c-0.303-0.04-0.607-0.072-0.909-0.113c-1.239-0.168-2.475-0.356-3.708-0.563
	c-0.28-0.047-0.559-0.102-0.839-0.151c-0.953-0.167-1.907-0.342-2.854-0.53c-0.42-0.083-0.839-0.174-1.257-0.262
	c-0.822-0.173-1.641-0.352-2.457-0.542c-0.434-0.1-0.867-0.202-1.3-0.308c-0.843-0.205-1.684-0.423-2.522-0.646
	c-0.375-0.1-0.751-0.195-1.124-0.3c-1.175-0.325-2.346-0.665-3.512-1.025c-0.025-0.009-0.051-0.014-0.076-0.023
	c-1.197-0.371-2.385-0.765-3.568-1.173c-0.349-0.12-0.696-0.249-1.044-0.372c-0.836-0.297-1.67-0.6-2.499-0.915
	c-0.406-0.154-0.81-0.313-1.215-0.471c-0.786-0.308-1.57-0.627-2.351-0.952c-0.392-0.163-0.784-0.325-1.173-0.492
	c-0.874-0.376-1.744-0.764-2.61-1.161c-0.273-0.124-0.549-0.245-0.82-0.372c-0.075-0.035-0.148-0.074-0.223-0.109
	c13.203-30.584,37.822-55.527,68.301-69.114c3.286,27.321,2.205,54.505-3.226,79.847c-0.081,0.009-0.16,0.021-0.24,0.03
	c-1.112,0.12-2.232,0.208-3.352,0.298c-0.528,0.042-1.052,0.1-1.581,0.136c-1.652,0.112-3.311,0.192-4.974,0.239
	C258.198,377.624,257.098,377.635,256,377.635z M294.819,260.492c-0.245-1.027-0.468-2.075-0.721-3.09
	c-1.837-7.408-4.007-14.755-6.417-22.003c27.587-12.292,51.421-30.656,69.295-47.185c13.391,19.93,20.66,43.504,20.66,67.786
	c0,3.136-0.124,6.266-0.363,9.38c-16.22-5.36-33.154-8.079-50.554-8.079C315.961,257.301,305.286,258.387,294.819,260.492z"/>
<g>
</g>
<g>
</g>
<g>
</g>
<g>
</g>
<g>
</g>
<g>
</g>
<g>
</g>
<g>
</g>
<g>
</g>
<g>
</g>
<g>
</g>
<g>
</g>
<g>
</g>
<g>
</g>
<g>
</g>
</svg>
