<?xml version="1.0" encoding="iso-8859-1"?>
<!-- Generator: Adobe Illustrator 19.0.0, SVG Export Plug-In . SVG Version: 6.00 Build 0)  -->
<svg version="1.1" id="Layer_1" xmlns="http://www.w3.org/2000/svg" xmlns:xlink="http://www.w3.org/1999/xlink" x="0px" y="0px"
	 viewBox="0 0 512 512" style="enable-background:new 0 0 512 512;" xml:space="preserve">
<g>
	<path style="fill:#B3404A;" d="M60.76,139.885c-7.812,0-14.144-6.332-14.144-14.144V60.76c0-7.812,6.332-14.144,14.144-14.144
		h64.98c7.812,0,14.144,6.332,14.144,14.144s-6.332,14.144-14.144,14.144H74.903v50.837
		C74.903,133.553,68.571,139.885,60.76,139.885z"/>
	<path style="fill:#B3404A;" d="M451.239,465.384H386.26c-7.81,0-14.144-6.332-14.144-14.144s6.334-14.144,14.144-14.144h50.835
		V386.26c0-7.812,6.334-14.144,14.144-14.144c7.81,0,14.144,6.332,14.144,14.144v64.98
		C465.383,459.05,459.05,465.384,451.239,465.384z"/>
	<path style="fill:#B3404A;" d="M497.856,512H14.144C6.332,512,0,505.668,0,497.856V14.144C0,6.332,6.332,0,14.144,0h483.713
		C505.667,0,512,6.332,512,14.144v483.713C512,505.668,505.667,512,497.856,512z M28.287,483.713h455.425V28.287H28.287V483.713z"/>
</g>
<circle style="fill:#F4B2B0;" cx="154.873" cy="256" r="76.376"/>
<path style="fill:#B3404A;" d="M154.873,346.519c-49.913,0-90.519-40.606-90.519-90.519s40.606-90.519,90.519-90.519
	s90.519,40.606,90.519,90.519S204.786,346.519,154.873,346.519z M154.873,193.768c-34.315,0-62.232,27.917-62.232,62.232
	s27.917,62.232,62.232,62.232s62.232-27.917,62.232-62.232S189.188,193.768,154.873,193.768z"/>
<g>
	<circle style="fill:#F4B2B0;" cx="357.127" cy="256" r="76.376"/>
	<path style="fill:#F4B2B0;" d="M433.503,256c0,42.181-34.195,76.376-76.376,76.376S280.751,298.181,280.751,256
		s34.195-76.376,76.376-76.376"/>
</g>
<path style="fill:#B3404A;" d="M357.127,346.519c-49.913,0-90.519-40.606-90.519-90.519s40.606-90.519,90.519-90.519
	c7.81,0,14.144,6.332,14.144,14.144c0,7.812-6.333,14.144-14.144,14.144c-34.315,0-62.232,27.917-62.232,62.232
	s27.917,62.232,62.232,62.232s62.232-27.917,62.232-62.232c0-7.812,6.334-14.144,14.144-14.144s14.144,6.332,14.144,14.144
	C447.646,305.913,407.04,346.519,357.127,346.519z"/>
<g>
</g>
<g>
</g>
<g>
</g>
<g>
</g>
<g>
</g>
<g>
</g>
<g>
</g>
<g>
</g>
<g>
</g>
<g>
</g>
<g>
</g>
<g>
</g>
<g>
</g>
<g>
</g>
<g>
</g>
</svg>
