<?xml version="1.0" encoding="utf-8"?>
<!-- Generator: Adobe Illustrator 19.0.0, SVG Export Plug-In . SVG Version: 6.00 Build 0)  -->
<svg version="1.1" id="Layer_1" xmlns="http://www.w3.org/2000/svg" xmlns:xlink="http://www.w3.org/1999/xlink" x="0px" y="0px"
	 viewBox="-478 248.9 24 24" style="enable-background:new -478 248.9 24 24;" xml:space="preserve">
<style type="text/css">
	.st0{fill:#F4B2B0;}
	.st1{fill:#B3404A;}
</style>
<path class="st0" d="M-470.4,254.7l-0.8,6.9l3.5,2.6l-0.5,2.4l0.5,1.3c0,0,1.4,0.9,4.1,0V264l3.5-3.3l-1.4-5.8L-470.4,254.7z"/>
<path class="st1" d="M-467.3,266.7c0-0.4-0.3-0.7-0.7-0.7c0,0-0.1,0-0.1,0c-0.9,0.2-1.9,0.2-2.2-0.6c-0.3-0.6-0.7-1.2-1.2-1.6
	c0,0-0.1,0-0.1-0.1c-0.1-0.3-0.3-0.4-0.6-0.4h0c-0.4,0-0.7,0.3-0.7,0.7c0,0.5,0.5,0.9,0.8,1c0.3,0.3,0.5,0.6,0.6,0.9
	c0.2,0.7,0.9,1.7,2.9,1.6c0,0,0,0,0,0.1l0,0.2c0,0.4,0.3,0.7,0.7,0.7c0.4,0,0.7-0.3,0.7-0.7l0-0.2
	C-467.3,267.3-467.3,267.2-467.3,266.7z M-460.3,256.7c0-0.1,0-0.2,0.1-0.3c0.1-0.7,0-1.5-0.3-2.2c-0.1-0.2-0.2-0.3-0.4-0.4
	c-0.2-0.1-1.1-0.2-2.8,0.8c-1.4-0.3-2.8-0.3-4.2,0c-1.6-1-2.5-0.9-2.7-0.8c-0.2,0.1-0.3,0.2-0.4,0.4c-0.3,0.7-0.4,1.5-0.3,2.2
	c0,0.1,0,0.2,0.1,0.2c-0.5,0.7-0.8,1.6-0.8,2.5c0,0.2,0,0.4,0,0.6c0.2,3,2.2,3.9,3.6,4.2c0,0.1-0.1,0.2-0.1,0.3
	c-0.1,0.4,0.1,0.7,0.5,0.8c0.4,0.1,0.7-0.1,0.8-0.5c0-0.2,0.1-0.4,0.3-0.6c0.3-0.2,0.3-0.7,0.1-0.9c-0.1-0.1-0.3-0.2-0.4-0.2
	c-2.3-0.3-3.3-1.2-3.4-3.2c0-0.2,0-0.3,0-0.5c0-0.6,0.2-1.3,0.6-1.8c0-0.1,0.1-0.1,0.1-0.2c0.2-0.2,0.2-0.4,0.1-0.7
	c0-0.1-0.1-0.2-0.1-0.4c-0.1-0.4,0-0.7,0.1-1.1c0.6,0.2,1.1,0.4,1.6,0.8c0.2,0.1,0.4,0.1,0.5,0.1c1.3-0.4,2.7-0.4,4.1,0
	c0.2,0.1,0.4,0,0.5-0.1c0.5-0.4,1-0.6,1.6-0.8c0.1,0.3,0.1,0.7,0.1,1c0,0.1-0.1,0.3-0.1,0.4c-0.1,0.2,0,0.5,0.1,0.7
	c0.1,0.1,0.1,0.1,0.1,0.2c0.4,0.5,0.6,1.1,0.6,1.8c0,0.2,0,0.3,0,0.5c-0.1,2-1.1,2.9-3.4,3.2c-0.4,0-0.6,0.4-0.6,0.7
	c0,0.2,0.1,0.3,0.2,0.4c0.2,0.2,0.3,0.4,0.3,0.6c0,0.2,0.1,0.4,0.1,0.5v1.5c0,0.4,0,0.7,0,0.9c0,0.4,0.3,0.7,0.7,0.7
	s0.7-0.3,0.7-0.7c0-0.1,0-0.5,0-0.9v-1.5c0-0.3,0-0.6-0.1-0.9c0-0.1,0-0.2-0.1-0.3c2.1-0.3,3.6-2.1,3.6-4.2c0-0.2,0-0.4,0-0.6
	C-459.5,258.3-459.8,257.5-460.3,256.7L-460.3,256.7z"/>
<g>
	<path class="st1" d="M-661.2,144.7c-7.8,0-14.1-6.3-14.1-14.1v-65c0-7.8,6.3-14.1,14.1-14.1h65c7.8,0,14.1,6.3,14.1,14.1
		s-6.3,14.1-14.1,14.1h-50.8v50.8C-647.1,138.4-653.4,144.7-661.2,144.7z"/>
	<path class="st1" d="M-270.8,470.2h-65c-7.8,0-14.1-6.3-14.1-14.1s6.3-14.1,14.1-14.1h50.8v-50.8c0-7.8,6.3-14.1,14.1-14.1
		s14.1,6.3,14.1,14.1v65C-256.6,463.9-263,470.2-270.8,470.2z"/>
	<path class="st1" d="M-224.1,516.9h-483.7c-7.8,0-14.1-6.3-14.1-14.1V19c0-7.8,6.3-14.1,14.1-14.1h483.7c7.8,0,14.1,6.3,14.1,14.1
		v483.7C-210,510.5-216.3,516.9-224.1,516.9z M-693.7,488.6h455.4V33.1h-455.4V488.6z"/>
</g>
<g>
	<path class="st1" d="M-661.2,144.7c-7.8,0-14.1-6.3-14.1-14.1v-65c0-7.8,6.3-14.1,14.1-14.1h65c7.8,0,14.1,6.3,14.1,14.1
		s-6.3,14.1-14.1,14.1h-50.8v50.8C-647.1,138.4-653.4,144.7-661.2,144.7z"/>
	<path class="st1" d="M-270.8,470.2h-65c-7.8,0-14.1-6.3-14.1-14.1s6.3-14.1,14.1-14.1h50.8v-50.8c0-7.8,6.3-14.1,14.1-14.1
		s14.1,6.3,14.1,14.1v65C-256.6,463.9-263,470.2-270.8,470.2z"/>
	<path class="st1" d="M-224.1,516.9h-483.7c-7.8,0-14.1-6.3-14.1-14.1V19c0-7.8,6.3-14.1,14.1-14.1h483.7c7.8,0,14.1,6.3,14.1,14.1
		v483.7C-210,510.5-216.3,516.9-224.1,516.9z M-693.7,488.6h455.4V33.1h-455.4V488.6z"/>
</g>
<g>
	<path class="st1" d="M-661.2,144.7c-7.8,0-14.1-6.3-14.1-14.1v-65c0-7.8,6.3-14.1,14.1-14.1h65c7.8,0,14.1,6.3,14.1,14.1
		s-6.3,14.1-14.1,14.1h-50.8v50.8C-647.1,138.4-653.4,144.7-661.2,144.7z"/>
	<path class="st1" d="M-270.8,470.2h-65c-7.8,0-14.1-6.3-14.1-14.1s6.3-14.1,14.1-14.1h50.8v-50.8c0-7.8,6.3-14.1,14.1-14.1
		s14.1,6.3,14.1,14.1v65C-256.6,463.9-263,470.2-270.8,470.2z"/>
	<path class="st1" d="M-224.1,516.9h-483.7c-7.8,0-14.1-6.3-14.1-14.1V19c0-7.8,6.3-14.1,14.1-14.1h483.7c7.8,0,14.1,6.3,14.1,14.1
		v483.7C-210,510.5-216.3,516.9-224.1,516.9z M-693.7,488.6h455.4V33.1h-455.4V488.6z"/>
</g>
<g>
	<path class="st1" d="M-661.2,144.7c-7.8,0-14.1-6.3-14.1-14.1v-65c0-7.8,6.3-14.1,14.1-14.1h65c7.8,0,14.1,6.3,14.1,14.1
		s-6.3,14.1-14.1,14.1h-50.8v50.8C-647.1,138.4-653.4,144.7-661.2,144.7z"/>
	<path class="st1" d="M-270.8,470.2h-65c-7.8,0-14.1-6.3-14.1-14.1s6.3-14.1,14.1-14.1h50.8v-50.8c0-7.8,6.3-14.1,14.1-14.1
		s14.1,6.3,14.1,14.1v65C-256.6,463.9-263,470.2-270.8,470.2z"/>
	<path class="st1" d="M-224.1,516.9h-483.7c-7.8,0-14.1-6.3-14.1-14.1V19c0-7.8,6.3-14.1,14.1-14.1h483.7c7.8,0,14.1,6.3,14.1,14.1
		v483.7C-210,510.5-216.3,516.9-224.1,516.9z M-693.7,488.6h455.4V33.1h-455.4V488.6z"/>
</g>
<g>
	<path class="st1" d="M-661.2,144.7c-7.8,0-14.1-6.3-14.1-14.1v-65c0-7.8,6.3-14.1,14.1-14.1h65c7.8,0,14.1,6.3,14.1,14.1
		s-6.3,14.1-14.1,14.1h-50.8v50.8C-647.1,138.4-653.4,144.7-661.2,144.7z"/>
	<path class="st1" d="M-270.8,470.2h-65c-7.8,0-14.1-6.3-14.1-14.1s6.3-14.1,14.1-14.1h50.8v-50.8c0-7.8,6.3-14.1,14.1-14.1
		s14.1,6.3,14.1,14.1v65C-256.6,463.9-263,470.2-270.8,470.2z"/>
	<path class="st1" d="M-224.1,516.9h-483.7c-7.8,0-14.1-6.3-14.1-14.1V19c0-7.8,6.3-14.1,14.1-14.1h483.7c7.8,0,14.1,6.3,14.1,14.1
		v483.7C-210,510.5-216.3,516.9-224.1,516.9z M-693.7,488.6h455.4V33.1h-455.4V488.6z"/>
</g>
<g>
	<path class="st1" d="M-661.2,144.7c-7.8,0-14.1-6.3-14.1-14.1v-65c0-7.8,6.3-14.1,14.1-14.1h65c7.8,0,14.1,6.3,14.1,14.1
		s-6.3,14.1-14.1,14.1h-50.8v50.8C-647.1,138.4-653.4,144.7-661.2,144.7z"/>
	<path class="st1" d="M-270.8,470.2h-65c-7.8,0-14.1-6.3-14.1-14.1s6.3-14.1,14.1-14.1h50.8v-50.8c0-7.8,6.3-14.1,14.1-14.1
		s14.1,6.3,14.1,14.1v65C-256.6,463.9-263,470.2-270.8,470.2z"/>
	<path class="st1" d="M-224.1,516.9h-483.7c-7.8,0-14.1-6.3-14.1-14.1V19c0-7.8,6.3-14.1,14.1-14.1h483.7c7.8,0,14.1,6.3,14.1,14.1
		v483.7C-210,510.5-216.3,516.9-224.1,516.9z M-693.7,488.6h455.4V33.1h-455.4V488.6z"/>
</g>
<g>
	<path class="st1" d="M-475.2,255.4c-0.4,0-0.7-0.3-0.7-0.7v-3c0-0.4,0.3-0.7,0.7-0.7h3c0.4,0,0.7,0.3,0.7,0.7
		c0,0.4-0.3,0.7-0.7,0.7h-2.4v2.4C-474.5,255.1-474.8,255.4-475.2,255.4z"/>
	<path class="st1" d="M-456.8,270.7h-3c-0.4,0-0.7-0.3-0.7-0.7s0.3-0.7,0.7-0.7h2.4V267c0-0.4,0.3-0.7,0.7-0.7s0.7,0.3,0.7,0.7v3
		C-456.2,270.4-456.5,270.7-456.8,270.7z"/>
	<path class="st1" d="M-454.7,272.9h-22.7c-0.4,0-0.7-0.3-0.7-0.7v-22.7c0-0.4,0.3-0.7,0.7-0.7h22.7c0.4,0,0.7,0.3,0.7,0.7v22.7
		C-454,272.6-454.3,272.9-454.7,272.9z M-476.7,271.5h21.3v-21.3h-21.3V271.5z"/>
</g>
</svg>
