<?xml version="1.0" encoding="iso-8859-1"?>
<!-- Generator: Adobe Illustrator 19.0.0, SVG Export Plug-In . SVG Version: 6.00 Build 0)  -->
<svg version="1.1" id="Layer_1" xmlns="http://www.w3.org/2000/svg" xmlns:xlink="http://www.w3.org/1999/xlink" x="0px" y="0px"
	 viewBox="0 0 512 512" style="enable-background:new 0 0 512 512;" xml:space="preserve">
<g>
	<path style="fill:#B3404A;" d="M60.761,139.883c-7.81,0-14.144-6.334-14.144-14.144V60.761c0-7.81,6.334-14.144,14.144-14.144
		h64.979c7.81,0,14.144,6.334,14.144,14.144s-6.334,14.144-14.144,14.144H74.905v50.835
		C74.905,133.551,68.571,139.883,60.761,139.883z"/>
	<path style="fill:#B3404A;" d="M451.239,465.383H386.26c-7.81,0-14.144-6.334-14.144-14.144s6.334-14.144,14.144-14.144h50.835
		V386.26c0-7.81,6.334-14.144,14.144-14.144c7.81,0,14.144,6.334,14.144,14.144v64.979
		C465.383,459.05,459.05,465.383,451.239,465.383z"/>
	<path style="fill:#B3404A;" d="M497.856,512H14.144C6.334,512,0,505.667,0,497.856V14.144C0,6.334,6.334,0,14.144,0h483.713
		C505.667,0,512,6.334,512,14.144v483.713C512,505.667,505.667,512,497.856,512z M28.287,483.713h455.425V28.287H28.287V483.713z"/>
</g>
<path style="fill:#F4B2B0;" d="M415.014,290.593c0-40.366-26.163-54.517-54.409-63.788c-0.054-0.018-0.109-0.035-0.164-0.054
	l44.917-23.085l-8.217-14.664c-12.33-22.003-30.956-33.16-55.362-33.16c-30.823,0-53.266,16.39-60.061,42.224
	c-18.803-28.187-48.285-43.957-83.436-43.957c-55.855,0-101.295,45.714-101.295,101.904c0,56.177,45.441,101.882,101.295,101.882
	c9.794,0,19.539-1.455,28.884-4.245l-22.787-52.016c-2.011,0.276-4.042,0.42-6.082,0.42c-25.139,0-45.592-20.654-45.592-46.04
	c0-25.381,20.452-46.031,45.592-46.031c18.299,0,34.991,10.8,41.54,26.873l0.074,0.182l27.255,62.516l3.148,7.061
	c9.217,21.544,26.655,50.118,71.399,50.306c0,0,0.177,0,0.178,0c11.707,0,22.913-2.305,32.901-6.663 M340.771,209.02
	c3.447,0,6.43,0.488,10.787,6.639l7.551,10.654c-2.062-0.672-4.068-1.307-6.008-1.921c-7.369-2.332-14.329-4.536-17.681-6.826
	c-1.232-0.842-1.332-0.911-1.332-2.962C334.087,209.565,338.762,209.02,340.771,209.02z M342.107,302.049
	c-0.372,0-0.748-0.007-1.136-0.02c-10.838-0.371-13.828-3.239-21.324-20.449c-1.8-4.134-3.71-8.537-5.723-13.196
	c8.595,4.488,17.995,7.927,27.201,10.978c6.943,2.325,14.125,4.731,17.234,7.014c0.885,0.652,1.184,0.871,1.184,3.505
	C359.54,297.045,352.372,302.049,342.107,302.049z"/>
<path style="fill:#B3404A;" d="M198.28,372.036c-63.653,0-115.438-52.049-115.438-116.025c0-63.989,51.784-116.047,115.438-116.047
	c31.475,0,59.215,11.176,80.135,31.898c13.349-19.036,35.97-30.166,63.364-30.166c29.482,0,52.893,13.967,67.7,40.39l8.217,14.664
	c1.877,3.349,2.313,7.319,1.205,10.994c-1.107,3.677-3.663,6.745-7.077,8.499l-18.457,9.488
	c19.709,11.742,35.792,30.76,35.792,64.861c0,7.81-6.334,14.144-14.144,14.144s-14.144-6.334-14.144-14.144
	c0-29.847-16.381-41.062-44.677-50.351c-0.246-0.081-0.489-0.167-0.728-0.262c-0.249-0.066-0.496-0.14-0.743-0.219
	c-2.02-0.659-3.983-1.279-5.884-1.88c-8.766-2.775-16.326-5.168-21.401-8.636c-6.642-4.536-7.495-10.206-7.495-14.639
	c0-11.432,8.759-19.729,20.828-19.729c9.267,0,16.153,3.888,22.329,12.608l1.037,1.462l21.716-11.161l-1.049-1.873
	c-9.777-17.449-23.85-25.931-43.024-25.931c-23.826,0-41.165,11.842-46.383,31.678c-1.416,5.385-5.857,9.437-11.346,10.353
	c-5.485,0.918-11.007-1.471-14.097-6.1c-16.203-24.287-41.657-37.663-71.673-37.663c-48.056,0-87.15,39.369-87.15,87.76
	c0,48.378,39.096,87.737,87.15,87.737c2.972,0,5.942-0.156,8.903-0.464l-11.9-27.166c-31.543-1.587-56.722-27.941-56.722-60.108
	c0-33.18,26.797-60.174,59.736-60.174c23.986,0,45.943,14.339,54.637,35.68l0.006,0.011l27.193,62.372l3.1,6.953
	c0.03,0.066,0.057,0.132,0.086,0.197c8.79,20.548,22.609,41.575,58.453,41.725h0.119c9.602,0,19.023-1.897,27.245-5.483
	c7.16-3.123,15.494,0.147,18.62,7.308c3.123,7.16-0.147,15.496-7.308,18.62c-11.929,5.205-24.9,7.843-38.557,7.843h-0.178
	c-59.178-0.249-78.11-44.179-84.358-58.785l-3.106-6.966l-27.303-62.624c-0.042-0.098-0.085-0.198-0.126-0.297l-0.075-0.182
	c-4.409-10.823-15.838-18.083-28.447-18.083c-17.342,0-31.448,14.303-31.448,31.887c0,17.589,14.108,31.897,31.448,31.897
	c1.366,0,2.764-0.096,4.155-0.289c6.276-0.853,12.343,2.544,14.881,8.338l22.785,52.016c1.625,3.713,1.581,7.945-0.123,11.622
	c-1.704,3.679-4.905,6.448-8.789,7.606C220.458,370.409,209.38,372.036,198.28,372.036z M342.107,316.193
	c-0.522,0-1.047-0.01-1.59-0.027c-20.107-0.689-26.195-11.393-33.839-28.936c-1.805-4.15-3.72-8.563-5.74-13.234
	c-2.376-5.498-1.031-11.895,3.356-15.972c4.387-4.075,10.864-4.95,16.176-2.174c8.167,4.266,17.272,7.493,25.102,10.089
	c10.148,3.399,16.598,5.691,21.157,9.042c6.162,4.53,6.953,10.343,6.953,14.903C373.684,305.127,360.403,316.193,342.107,316.193z"
	/>
<g>
</g>
<g>
</g>
<g>
</g>
<g>
</g>
<g>
</g>
<g>
</g>
<g>
</g>
<g>
</g>
<g>
</g>
<g>
</g>
<g>
</g>
<g>
</g>
<g>
</g>
<g>
</g>
<g>
</g>
</svg>
