<?xml version="1.0" encoding="iso-8859-1"?>
<!-- Generator: Adobe Illustrator 19.0.0, SVG Export Plug-In . SVG Version: 6.00 Build 0)  -->
<svg version="1.1" id="Layer_1" xmlns="http://www.w3.org/2000/svg" xmlns:xlink="http://www.w3.org/1999/xlink" x="0px" y="0px"
	 viewBox="0 0 512 512" style="enable-background:new 0 0 512 512;" xml:space="preserve">
<g>
	<path style="fill:#B3404A;" d="M60.76,139.885c-7.812,0-14.144-6.332-14.144-14.144V60.76c0-7.812,6.332-14.144,14.144-14.144
		h64.98c7.812,0,14.144,6.332,14.144,14.144s-6.332,14.144-14.144,14.144H74.903v50.837
		C74.903,133.553,68.571,139.885,60.76,139.885z"/>
	<path style="fill:#B3404A;" d="M451.24,465.384h-64.98c-7.812,0-14.144-6.332-14.144-14.144s6.332-14.144,14.144-14.144h50.836
		V386.26c0-7.812,6.332-14.144,14.144-14.144s14.144,6.332,14.144,14.144v64.98C465.384,459.05,459.05,465.384,451.24,465.384z"/>
	<path style="fill:#B3404A;" d="M497.856,512H14.144C6.332,512,0,505.668,0,497.856V14.144C0,6.332,6.332,0,14.144,0h483.713
		C505.668,0,512,6.332,512,14.144v483.713C512,505.668,505.668,512,497.856,512z M28.287,483.713h455.425V28.287H28.287V483.713z"/>
</g>
<path style="fill:#F4B2B0;" d="M285.871,396.432v-97.09c0-15.476,12.199-28.515,27.672-28.836
	c8.042-0.167,15.342,3.028,20.587,8.275c5.117,5.113,8.28,12.183,8.28,19.991v97.662h50.496l0.003-100.848
	c0-54.297-36.605-78.178-67.266-78.178c-40.93,0-53.985,23.517-53.988,23.524v-21.296h-36.171v176.797H285.871z"/>
<path style="fill:#B3404A;" d="M392.906,410.576h-50.496c-7.812,0-14.144-6.332-14.144-14.144V298.77
	c0-3.776-1.468-7.322-4.133-9.985c-2.751-2.751-6.416-4.242-10.298-4.14c-7.621,0.158-13.821,6.751-13.821,14.695v97.09
	c0,7.812-6.332,14.144-14.144,14.144h-50.387c-7.812,0-14.144-6.332-14.144-14.144V219.634c0-7.812,6.332-14.144,14.144-14.144
	h36.171c5.165,0,9.684,2.769,12.152,6.902c10.097-5.136,23.76-9.13,41.837-9.13c40.456,0,81.411,31.711,81.411,92.321
	l-0.003,100.848C407.05,404.244,400.718,410.576,392.906,410.576z M356.554,382.289h22.21l0.003-86.705
	c0-43.995-27.538-64.033-53.124-64.033c-30.781,0-41.055,15.37-41.748,16.466c-3.105,5.369-9.391,8.121-15.49,6.68
	c-6.384-1.506-10.895-7.206-10.895-13.765v-7.154h-7.884v148.51h22.099v-82.947c0-23.222,18.627-42.502,41.523-42.977
	c11.663-0.231,22.634,4.168,30.883,12.415c8.01,8.003,12.422,18.655,12.422,29.992L356.554,382.289L356.554,382.289z
	 M284.306,247.256c-0.127,0.255-0.262,0.502-0.402,0.747C284.194,247.528,284.306,247.258,284.306,247.256z"/>
<polyline style="fill:#F4B2B0;" points="174.893,352.177 174.893,396.432 124.507,396.432 124.507,219.634 174.893,219.634 
	174.893,276.745 "/>
<g>
	<path style="fill:#B3404A;" d="M174.893,410.576h-50.387c-7.812,0-14.144-6.332-14.144-14.144V219.634
		c0-7.812,6.332-14.144,14.144-14.144h50.387c7.812,0,14.144,6.332,14.144,14.144v57.111c0,7.812-6.332,14.144-14.144,14.144
		s-14.144-6.332-14.144-14.144v-42.967H138.65v148.511h22.099v-30.112c0-7.812,6.332-14.144,14.144-14.144
		c7.812,0,14.144,6.332,14.144,14.144v44.255C189.037,404.244,182.705,410.576,174.893,410.576z"/>
	<path style="fill:#B3404A;" d="M149.701,190.932c-24.678,0-44.755-20.077-44.755-44.755s20.077-44.753,44.755-44.753
		c24.676,0,44.753,20.075,44.753,44.753S174.377,190.932,149.701,190.932z M149.701,129.711c-9.08,0-16.467,7.387-16.467,16.466
		c0,9.08,7.387,16.467,16.467,16.467c9.079,0,16.466-7.387,16.466-16.467C166.167,137.099,158.779,129.711,149.701,129.711z"/>
</g>
<g>
</g>
<g>
</g>
<g>
</g>
<g>
</g>
<g>
</g>
<g>
</g>
<g>
</g>
<g>
</g>
<g>
</g>
<g>
</g>
<g>
</g>
<g>
</g>
<g>
</g>
<g>
</g>
<g>
</g>
</svg>
