<?xml version="1.0" encoding="iso-8859-1"?>
<!-- Generator: Adobe Illustrator 19.0.0, SVG Export Plug-In . SVG Version: 6.00 Build 0)  -->
<svg version="1.1" id="Layer_1" xmlns="http://www.w3.org/2000/svg" xmlns:xlink="http://www.w3.org/1999/xlink" x="0px" y="0px"
	 viewBox="0 0 512 512" style="enable-background:new 0 0 512 512;" xml:space="preserve">
<g>
	<path style="fill:#B3404A;" d="M60.761,139.885c-7.81,0-14.144-6.332-14.144-14.144V60.76c0-7.812,6.334-14.144,14.144-14.144
		h64.979c7.81,0,14.144,6.332,14.144,14.144s-6.334,14.144-14.144,14.144H74.905v50.837
		C74.905,133.553,68.571,139.885,60.761,139.885z"/>
	<path style="fill:#B3404A;" d="M451.239,465.384H386.26c-7.81,0-14.144-6.332-14.144-14.144s6.334-14.144,14.144-14.144h50.835
		V386.26c0-7.812,6.334-14.144,14.144-14.144c7.81,0,14.144,6.332,14.144,14.144v64.98
		C465.383,459.05,459.05,465.384,451.239,465.384z"/>
	<path style="fill:#B3404A;" d="M497.856,512H14.144C6.334,512,0,505.668,0,497.856V14.144C0,6.332,6.334,0,14.144,0h483.713
		C505.667,0,512,6.332,512,14.144v483.713C512,505.668,505.667,512,497.856,512z M28.287,483.713h455.425V28.287H28.287V483.713z"/>
</g>
<path style="fill:#F4B2B0;" d="M203.961,392.475c-15.96,0-28.945-13.023-28.945-29.031v-0.711c0-2.146,0.489-4.264,1.429-6.194
	l0.952-1.953l18.172-56.507c-4.649,3.772-10.717,5.953-17.606,5.953c-9.612,0-18.003-4.549-23.627-12.808
	c-0.239-0.352-0.463-0.713-0.67-1.085c-9.985-17.95-15.047-37.024-15.047-56.693c0-62.816,52.658-113.92,117.385-113.92
	c64.617,0,117.197,51.009,117.3,113.74c1.09,31.004-9.038,59.934-27.799,79.395c-17.5,18.153-41.865,27.75-70.455,27.75
	c-11.427,0-22.367-3.013-31.364-8.404l-12.833,40.983c-0.24,0.767-0.545,1.511-0.912,2.225l-1.502,2.929
	c-0.256,0.499-0.542,0.984-0.854,1.45C221.986,387.899,213.599,392.475,203.961,392.475z M243.805,187.145
	c21.088,0,34.189,12.42,34.189,32.412c0,14.326-5.293,25.184-9.546,33.909c-3.226,6.621-6.011,12.333-6.011,18.155
	c0,6.718,5.892,12.61,12.609,12.61c33.601,0,45.524-26.401,45.524-49.009c0-32.76-28.207-59.41-62.877-59.41
	s-62.876,26.652-62.876,59.41c0,9.234,2.263,17.749,7.565,28.456c1.184,2.339,1.875,4.276,2.279,6.12l2.833-8.809
	c-1.164-4.641-3.034-13.937-3.034-25.768C204.462,199.737,225.656,187.145,243.805,187.145z"/>
<path style="fill:#B3404A;" d="M256.003,133.669c56.88,0,103.157,44.759,103.157,99.776l0.003,0.156
	c0.997,27.255-7.691,52.493-23.841,69.244c-14.772,15.323-35.615,23.422-60.273,23.422c-13.448,0-25.835-5.243-33.137-14.026
	l-4.981-5.993l-19.575,62.515l-1.502,2.929c-2.969,4.406-6.969,6.639-11.891,6.639c-8.024,0-14.801-6.817-14.801-14.888v-0.711
	l1.392-2.858l31.738-98.696l-0.44-1.318c-0.03-0.092-3.247-10.025-3.247-24.637c0-30.627,17.623-33.933,25.2-33.933
	c13.301,0,20.046,6.147,20.046,18.268c0,11.065-4.127,19.531-8.117,27.717c-3.658,7.503-7.44,15.262-7.44,24.347
	c0,14.501,12.251,26.754,26.753,26.754c41.217,0,59.668-31.719,59.668-63.153c0-40.558-34.552-73.554-77.021-73.554
	c-42.468,0-77.019,32.997-77.019,73.554c0,11.42,2.796,22.15,9.065,34.795c1.334,2.622,1.334,3.499,1.334,6.761
	c0,8.087-5.024,13.111-13.113,13.111c-4.928,0-8.943-2.229-11.936-6.625c-8.803-15.824-13.264-32.583-13.264-49.818
	C152.761,178.429,199.075,133.669,256.003,133.669 M256.003,105.381c-72.526,0-131.529,57.449-131.529,128.064
	c0,22.105,5.663,43.493,16.831,63.57c0.413,0.743,0.86,1.467,1.338,2.17c7.506,11.024,18.896,17.753,31.653,18.836l-10.058,31.274
	l-0.511,1.048c-1.88,3.858-2.856,8.094-2.856,12.387v0.711c0,23.807,19.33,43.175,43.089,43.175c14.279,0,27.164-6.97,35.351-19.122
	c0.628-0.932,1.199-1.901,1.713-2.901l1.502-2.929c0.733-1.43,1.342-2.918,1.822-4.451l8.141-26
	c7.158,2.181,14.779,3.339,22.558,3.339c32.523,0,60.409-11.091,80.639-32.076c21.36-22.156,32.924-54.746,31.76-89.471
	C387.201,162.593,328.331,105.381,256.003,105.381L256.003,105.381z M276.79,270.056c0.62-2.69,2.52-6.592,4.372-10.387
	c4.635-9.509,10.977-22.522,10.977-40.111c0-7.11-1.266-13.622-3.632-19.381c10.933,8.308,17.921,20.933,17.921,35.047
	C306.426,245.487,303.497,269.076,276.79,270.056L276.79,270.056z"/>
<g>
</g>
<g>
</g>
<g>
</g>
<g>
</g>
<g>
</g>
<g>
</g>
<g>
</g>
<g>
</g>
<g>
</g>
<g>
</g>
<g>
</g>
<g>
</g>
<g>
</g>
<g>
</g>
<g>
</g>
</svg>
