<?xml version="1.0" encoding="iso-8859-1"?>
<!-- Generator: Adobe Illustrator 19.0.0, SVG Export Plug-In . SVG Version: 6.00 Build 0)  -->
<svg version="1.1" id="Layer_1" xmlns="http://www.w3.org/2000/svg" xmlns:xlink="http://www.w3.org/1999/xlink" x="0px" y="0px"
	 viewBox="0 0 512 512" style="enable-background:new 0 0 512 512;" xml:space="preserve">
<g>
	<path style="fill:#B3404A;" d="M60.76,139.885c-7.812,0-14.144-6.332-14.144-14.144V60.76c0-7.812,6.332-14.144,14.144-14.144
		h64.98c7.812,0,14.144,6.332,14.144,14.144s-6.332,14.144-14.144,14.144H74.903v50.837
		C74.903,133.553,68.571,139.885,60.76,139.885z"/>
	<path style="fill:#B3404A;" d="M451.24,465.384h-64.98c-7.812,0-14.144-6.332-14.144-14.144s6.332-14.144,14.144-14.144h50.836
		V386.26c0-7.812,6.332-14.144,14.144-14.144s14.144,6.332,14.144,14.144v64.98C465.384,459.05,459.05,465.384,451.24,465.384z"/>
	<path style="fill:#B3404A;" d="M497.856,512H14.144C6.332,512,0,505.668,0,497.856V14.144C0,6.332,6.332,0,14.144,0h483.713
		C505.668,0,512,6.332,512,14.144v483.713C512,505.668,505.668,512,497.856,512z M28.287,483.713h455.425V28.287H28.287V483.713z"/>
</g>
<path style="fill:#F4B2B0;" d="M369.122,266.038c7.935-21.196,12.128-43.818,12.128-65.41v-1.03c0-3.467,1.567-6.728,4.302-8.953
	c10.381-8.43,26.871-29.492,26.871-29.492s-39.441-6.635-40.14-6.635c-2.116,0-12.5-10.591-14.12-12.016
	c-12.345-10.882-28.226-16.875-44.714-16.875c-7.135,0-14.337,1.112-21.409,3.307c-21.913,6.795-38.821,24.872-44.128,47.172
	c-1.989,8.363-2.526,16.738-1.6,24.883c0.105,0.938-0.337,1.59-0.608,1.897c-0.481,0.537-1.161,0.846-1.866,0.846
	c-0.078,0-0.16-0.003-0.239-0.01c-23.896-2.222-46.623-9.07-67.194-20.023c-20.723-11.032-39.26-26.228-54.602-45.048
	c-1.556-1.914-4.549-1.679-5.792,0.453c-5.986,10.274-9.15,22.022-9.15,33.977c0,18.319,7.363,35.585,20.148,48.173
	c-5.377-1.276-10.584-3.283-15.417-5.971c-2.339-1.298-5.218,0.373-5.25,3.049c-0.332,27.215,15.602,51.435,39.473,62.338
	c-0.481,0.01-0.963,0.014-1.444,0.014c-3.783,0-7.616-0.362-11.386-1.086c-2.635-0.499-4.848,1.997-4.031,4.549
	c7.751,24.193,28.577,42.022,53.503,46.069c-20.685,13.886-44.777,21.211-69.847,21.211l-7.813-0.004
	c-2.411,0-4.45,1.571-5.061,3.904c-0.605,2.294,0.508,4.72,2.563,5.915c28.251,16.442,60.477,25.13,93.204,25.13
	c28.648,0,55.446-5.683,79.65-16.897c22.19-10.277,41.796-24.969,58.279-43.669"/>
<path style="fill:#B3404A;" d="M195.506,400.516c-35.225,0-69.915-9.353-100.319-27.05c-7.581-4.404-11.338-13.349-9.124-21.743
	c2.226-8.495,9.933-14.442,18.736-14.442l7.82,0.003c12.205,0,24.177-1.966,35.53-5.782c-15.189-10.144-26.961-25.252-32.659-43.039
	c-1.243-3.881-1.074-8.043,0.355-11.759c-15.111-15.284-23.914-36.256-23.643-58.543c0.068-5.441,2.542-10.391,6.725-13.67
	c-4.073-9.813-6.209-20.438-6.209-31.41c0-14.453,3.83-28.665,11.074-41.097c2.923-5.014,8.123-8.274,13.906-8.722
	c5.792-0.455,11.421,1.969,15.079,6.466c14.066,17.255,30.984,31.218,50.275,41.488c15.309,8.15,31.687,13.746,48.839,16.704
	c0.311-5.015,1.065-10.056,2.262-15.084c6.459-27.143,27.036-49.141,53.699-57.408c8.424-2.615,17.037-3.942,25.597-3.942
	c19.937,0,39.137,7.249,54.067,20.409c0.412,0.362,1.311,1.218,2.485,2.355c1.361,1.317,4.963,4.803,7.213,6.718
	c4.789,0.745,14.906,2.43,37.554,6.24c4.919,0.827,9.038,4.184,10.841,8.834c1.803,4.65,1.025,9.906-2.049,13.832
	c-1.74,2.222-16.944,21.498-28.167,30.986c-0.03,23.2-4.533,47.448-13.026,70.138c-2.74,7.317-10.888,11.028-18.204,8.287
	c-7.315-2.738-11.026-10.889-8.287-18.204c7.348-19.627,11.231-40.531,11.231-60.451v-1.03c0-7.744,3.472-15.006,9.524-19.927
	c2.535-2.058,5.676-5.202,8.892-8.677c-7.059-1.173-12.851-2.124-14.574-2.385c-6.396-0.522-11.171-4.891-20.62-14.036
	c-0.706-0.682-1.257-1.222-1.57-1.508c-9.707-8.556-22.265-13.294-35.308-13.294c-5.714,0-11.506,0.898-17.216,2.672
	c-17.165,5.322-30.406,19.476-34.561,36.938c-1.608,6.758-2.047,13.493-1.307,20.012c0.522,4.687-0.967,9.37-4.083,12.879
	c-3.561,3.974-8.761,6.039-14.042,5.527c-25.611-2.382-50.015-9.656-72.482-21.616c-17.534-9.335-33.385-21.254-47.292-35.544
	c-0.967,4.055-1.462,8.23-1.462,12.439c0,14.455,5.656,27.983,15.927,38.094c4.523,4.452,5.526,11.373,2.454,16.926
	c-3.072,5.554-9.466,8.384-15.643,6.915c-0.311-0.074-0.622-0.15-0.932-0.228c4.396,14.401,14.757,26.566,28.883,33.018
	c6,2.741,9.308,9.264,7.976,15.724c-1.085,5.26-5.012,9.34-9.994,10.751c8.189,11.52,20.827,19.667,35.052,21.976
	c5.731,0.931,10.312,5.269,11.551,10.942c1.239,5.673-1.115,11.527-5.935,14.763c-15.4,10.338-32.528,17.412-50.52,20.962
	c17.846,6.133,36.673,9.306,55.682,9.306c26.583,0,51.381-5.244,73.704-15.586c20.398-9.447,38.435-22.968,53.616-40.189
	c5.165-5.86,14.103-6.423,19.962-1.257c5.86,5.165,6.423,14.103,1.257,19.962c-17.79,20.183-38.967,36.045-62.945,47.151
	C255.027,394.39,226.228,400.516,195.506,400.516z M244.846,189.634c0.021,0.001,0.042,0.004,0.064,0.006
	C244.89,189.638,244.868,189.635,244.846,189.634z M372.271,168.663c0.006,0,0.01,0,0.016,0
	C372.281,168.663,372.275,168.663,372.271,168.663z M110.844,147.588c0.004,0.006,0.01,0.013,0.014,0.018
	C110.852,147.599,110.848,147.595,110.844,147.588z M372.906,140.39c0.352,0.021,0.84,0.071,1.721,0.191
	C374.099,140.487,373.524,140.418,372.906,140.39z"/>
<g>
</g>
<g>
</g>
<g>
</g>
<g>
</g>
<g>
</g>
<g>
</g>
<g>
</g>
<g>
</g>
<g>
</g>
<g>
</g>
<g>
</g>
<g>
</g>
<g>
</g>
<g>
</g>
<g>
</g>
</svg>
