<?xml version="1.0" encoding="utf-8"?>
<!-- Generator: Adobe Illustrator 19.0.0, SVG Export Plug-In . SVG Version: 6.00 Build 0)  -->
<svg version="1.1" id="Layer_1" xmlns="http://www.w3.org/2000/svg" xmlns:xlink="http://www.w3.org/1999/xlink" x="0px" y="0px"
	 viewBox="-236 6.9 508 508" style="enable-background:new -236 6.9 508 508;" xml:space="preserve">
<style type="text/css">
	.st0{fill:#F4B2B0;}
	.st1{fill:#B3404A;}
</style>
<path class="st0" d="M-120,264.5c0-77.8,63-140.8,140.8-140.8s140.8,63,140.8,140.8s-63,140.8-140.8,140.8
	c-50.2,0-94.3-26.3-119.2-65.8C-112.1,317.7-120,292-120,264.5z"/>
<polyline class="st0" points="-104,354.7 -115,399.7 -40,377.2 -83,326.7 "/>
<path class="st1" d="M174,260.5c0,84-68.4,152-153.2,152c-25.8,0-50-6.3-71.4-17.4c-1.7-0.9-3.6-1.1-5.4-0.5l-68.8,21.7
	c-5.5,1.7-10.6-3.5-8.7-8.9l22.1-65.4c0.7-1.9,0.4-4.1-0.6-5.8c-13-22.2-20.3-48-20.3-75.6c0-84,68.4-152,153.2-152
	C105.6,108.5,174,176.5,174,260.5 M20.8,132.5c-71.2,0-128.8,57.2-128.8,127.6c0,23.2,6.3,45,17.1,63.6c4.4,7.6,5.4,16.8,2.6,25.2
	l-6.9,20.6c-1.8,5.4,3.3,10.6,8.7,8.9l17.2-5.4c11.5-3.6,23.9-2.6,34.7,2.5c16.8,8,35.6,12.6,55.4,12.6
	c71.2,0,128.8-57.2,128.8-127.6C149.6,190.1,92,132.5,20.8,132.5 M98,295.3c-0.8-1.6-3.6-2.4-7.2-4.4s-22.4-10.8-25.6-12s-6-2-8.4,2
	c-2.4,3.6-9.6,12-12,14.8c-2,2.4-4.4,2.8-8,0.8s-16-5.6-30.4-18.4c-11.2-10-18.8-22-20.8-25.6c-2-3.6-0.4-5.6,1.6-7.6
	c1.6-1.6,3.6-4.4,5.6-6.4s2.4-3.6,3.6-6.4c1.1-2.2,0.9-4.4-0.1-6c-0.3-0.5-0.5-1.1-0.8-1.6c-1.9-4.6-8.3-19.6-11.1-26.4
	c-3.2-7.6-6.4-6-8.4-6s-4.8-0.4-7.2-0.4s-6.4,0.8-10,4.8c-3.6,3.6-13.2,12.8-13.2,31.2s13.6,36,15.2,38.4c2,2.4,26,41.2,64,56.4
	c38,14.8,38,10,45.2,9.2c6.8-0.8,22-8.8,25.2-17.6C99.2,304.5,99.2,296.9,98,295.3"/>
<g>
	<path class="st1" d="M-175.7,145.6c-7.7,0-14-6.3-14-14V67.1c0-7.7,6.3-14,14-14h64.4c7.7,0,14,6.3,14,14s-6.3,14-14,14h-50.4v50.4
		C-161.7,139.3-168,145.6-175.7,145.6z"/>
	<path class="st1" d="M211.5,468.3H147c-7.7,0-14-6.3-14-14s6.3-14,14-14h50.4v-50.4c0-7.7,6.3-14,14-14s14,6.3,14,14v64.4
		C225.5,462.1,219.2,468.3,211.5,468.3z"/>
	<path class="st1" d="M257.7,514.6H-222c-7.7,0-14-6.3-14-14V20.9c0-7.7,6.3-14,14-14h479.7c7.7,0,14,6.3,14,14v479.7
		C271.7,508.3,265.4,514.6,257.7,514.6z M-208,486.5h451.6V34.9H-208V486.5z"/>
</g>
</svg>
