<?xml version="1.0" encoding="iso-8859-1"?>
<!-- Generator: Adobe Illustrator 19.0.0, SVG Export Plug-In . SVG Version: 6.00 Build 0)  -->
<svg version="1.1" id="Layer_1" xmlns="http://www.w3.org/2000/svg" xmlns:xlink="http://www.w3.org/1999/xlink" x="0px" y="0px"
	 viewBox="0 0 512 512" style="enable-background:new 0 0 512 512;" xml:space="preserve">
<g>
	<path style="fill:#B3404A;" d="M60.76,139.885c-7.812,0-14.144-6.332-14.144-14.144V60.76c0-7.812,6.332-14.144,14.144-14.144
		h64.98c7.812,0,14.144,6.332,14.144,14.144s-6.332,14.144-14.144,14.144H74.903v50.837
		C74.903,133.553,68.571,139.885,60.76,139.885z"/>
	<path style="fill:#B3404A;" d="M451.24,465.384h-64.98c-7.812,0-14.144-6.332-14.144-14.144s6.332-14.144,14.144-14.144h50.836
		V386.26c0-7.812,6.332-14.144,14.144-14.144s14.144,6.332,14.144,14.144v64.98C465.384,459.05,459.05,465.384,451.24,465.384z"/>
	<path style="fill:#B3404A;" d="M497.856,512H14.144C6.332,512,0,505.668,0,497.856V14.144C0,6.332,6.332,0,14.144,0h483.713
		C505.668,0,512,6.332,512,14.144v483.713C512,505.668,505.668,512,497.856,512z M28.287,483.713h455.425V28.287H28.287V483.713z"/>
</g>
<path style="fill:#F4B2B0;" d="M407.283,224.413v-22.848c0-35.141-28.487-63.628-63.628-63.628H168.345
	c-35.141,0-63.628,28.487-63.628,63.628v108.869c0,35.141,28.487,63.628,63.628,63.628h175.312
	c35.141,0,63.628-28.487,63.628-63.628v-13.889 M206.093,308.743v-105.83l105.56,52.916L206.093,308.743z"/>
<path style="fill:#B3404A;" d="M343.657,388.206H168.343c-42.884,0-77.772-34.888-77.772-77.772V201.565
	c0-42.884,34.888-77.772,77.772-77.772h175.312c42.884,0,77.772,34.888,77.772,77.772v22.848c0,7.812-6.332,14.144-14.144,14.144
	s-14.144-6.332-14.144-14.144v-22.848c0-27.286-22.198-49.484-49.484-49.484H168.343c-27.286,0-49.484,22.198-49.484,49.484v108.869
	c0,27.286,22.198,49.484,49.484,49.484h175.312c27.286,0,49.484-22.198,49.484-49.484v-13.889c0-7.812,6.332-14.144,14.144-14.144
	s14.144,6.332,14.144,14.144v13.889C421.427,353.318,386.539,388.206,343.657,388.206z M206.094,322.887
	c-2.584,0-5.16-0.707-7.43-2.109c-4.174-2.577-6.714-7.131-6.714-12.035v-105.83c0-4.905,2.54-9.459,6.714-12.035
	c4.174-2.576,9.383-2.806,13.767-0.61l105.561,52.916c4.785,2.399,7.806,7.292,7.806,12.644c0,5.352-3.021,10.246-7.806,12.644
	l-105.561,52.914C210.432,322.389,208.261,322.887,206.094,322.887z M220.236,225.825v60.007l59.854-30.003L220.236,225.825z"/>
<g>
</g>
<g>
</g>
<g>
</g>
<g>
</g>
<g>
</g>
<g>
</g>
<g>
</g>
<g>
</g>
<g>
</g>
<g>
</g>
<g>
</g>
<g>
</g>
<g>
</g>
<g>
</g>
<g>
</g>
</svg>
